<?xml version="1.0" encoding="utf-8" standalone="no"?>
<!DOCTYPE svg PUBLIC "-//W3C//DTD SVG 1.1//EN"
  "http://www.w3.org/Graphics/SVG/1.1/DTD/svg11.dtd">
<svg xmlns:xlink="http://www.w3.org/1999/xlink" width="720pt" height="288pt" viewBox="0 0 720 288" xmlns="http://www.w3.org/2000/svg" version="1.1">
 <metadata>
  <rdf:RDF xmlns:dc="http://purl.org/dc/elements/1.1/" xmlns:cc="http://creativecommons.org/ns#" xmlns:rdf="http://www.w3.org/1999/02/22-rdf-syntax-ns#">
   <cc:Work>
    <dc:type rdf:resource="http://purl.org/dc/dcmitype/StillImage"/>
    <dc:date>2024-01-04T10:44:41.557025</dc:date>
    <dc:format>image/svg+xml</dc:format>
    <dc:creator>
     <cc:Agent>
      <dc:title>Matplotlib v3.6.1, https://matplotlib.org/</dc:title>
     </cc:Agent>
    </dc:creator>
   </cc:Work>
  </rdf:RDF>
 </metadata>
 <defs>
  <style type="text/css">*{stroke-linejoin: round; stroke-linecap: butt}</style>
 </defs>
 <g id="figure_1">
  <g id="patch_1">
   <path d="M 0 288 
L 720 288 
L 720 0 
L 0 0 
z
" style="fill: #ffffff"/>
  </g>
  <g id="axes_1">
   <g id="patch_2">
    <path d="M 90 256.32 
L 648 256.32 
L 648 34.56 
L 90 34.56 
z
" style="fill: #ffffff"/>
   </g>
   <g id="matplotlib.axis_1">
    <g id="xtick_1">
     <g id="line2d_1">
      <defs>
       <path id="mc126c36b93" d="M 0 0 
L 0 3.5 
" style="stroke: #000000; stroke-width: 0.8"/>
      </defs>
      <g>
       <use xlink:href="#mc126c36b93" x="115.363636" y="256.32" style="stroke: #000000; stroke-width: 0.8"/>
      </g>
     </g>
     <g id="text_1">
      <!-- 4 -->
      <g transform="translate(112.182386 270.918437) scale(0.1 -0.1)">
       <defs>
        <path id="DejaVuSans-34" d="M 2419 4116 
L 825 1625 
L 2419 1625 
L 2419 4116 
z
M 2253 4666 
L 3047 4666 
L 3047 1625 
L 3713 1625 
L 3713 1100 
L 3047 1100 
L 3047 0 
L 2419 0 
L 2419 1100 
L 313 1100 
L 313 1709 
L 2253 4666 
z
" transform="scale(0.015625)"/>
       </defs>
       <use xlink:href="#DejaVuSans-34"/>
      </g>
     </g>
    </g>
    <g id="xtick_2">
     <g id="line2d_2">
      <g>
       <use xlink:href="#mc126c36b93" x="200.191852" y="256.32" style="stroke: #000000; stroke-width: 0.8"/>
      </g>
     </g>
     <g id="text_2">
      <!-- 5 -->
      <g transform="translate(197.010602 270.918437) scale(0.1 -0.1)">
       <defs>
        <path id="DejaVuSans-35" d="M 691 4666 
L 3169 4666 
L 3169 4134 
L 1269 4134 
L 1269 2991 
Q 1406 3038 1543 3061 
Q 1681 3084 1819 3084 
Q 2600 3084 3056 2656 
Q 3513 2228 3513 1497 
Q 3513 744 3044 326 
Q 2575 -91 1722 -91 
Q 1428 -91 1123 -41 
Q 819 9 494 109 
L 494 744 
Q 775 591 1075 516 
Q 1375 441 1709 441 
Q 2250 441 2565 725 
Q 2881 1009 2881 1497 
Q 2881 1984 2565 2268 
Q 2250 2553 1709 2553 
Q 1456 2553 1204 2497 
Q 953 2441 691 2322 
L 691 4666 
z
" transform="scale(0.015625)"/>
       </defs>
       <use xlink:href="#DejaVuSans-35"/>
      </g>
     </g>
    </g>
    <g id="xtick_3">
     <g id="line2d_3">
      <g>
       <use xlink:href="#mc126c36b93" x="285.020067" y="256.32" style="stroke: #000000; stroke-width: 0.8"/>
      </g>
     </g>
     <g id="text_3">
      <!-- 6 -->
      <g transform="translate(281.838817 270.918437) scale(0.1 -0.1)">
       <defs>
        <path id="DejaVuSans-36" d="M 2113 2584 
Q 1688 2584 1439 2293 
Q 1191 2003 1191 1497 
Q 1191 994 1439 701 
Q 1688 409 2113 409 
Q 2538 409 2786 701 
Q 3034 994 3034 1497 
Q 3034 2003 2786 2293 
Q 2538 2584 2113 2584 
z
M 3366 4563 
L 3366 3988 
Q 3128 4100 2886 4159 
Q 2644 4219 2406 4219 
Q 1781 4219 1451 3797 
Q 1122 3375 1075 2522 
Q 1259 2794 1537 2939 
Q 1816 3084 2150 3084 
Q 2853 3084 3261 2657 
Q 3669 2231 3669 1497 
Q 3669 778 3244 343 
Q 2819 -91 2113 -91 
Q 1303 -91 875 529 
Q 447 1150 447 2328 
Q 447 3434 972 4092 
Q 1497 4750 2381 4750 
Q 2619 4750 2861 4703 
Q 3103 4656 3366 4563 
z
" transform="scale(0.015625)"/>
       </defs>
       <use xlink:href="#DejaVuSans-36"/>
      </g>
     </g>
    </g>
    <g id="xtick_4">
     <g id="line2d_4">
      <g>
       <use xlink:href="#mc126c36b93" x="369.848282" y="256.32" style="stroke: #000000; stroke-width: 0.8"/>
      </g>
     </g>
     <g id="text_4">
      <!-- 7 -->
      <g transform="translate(366.667032 270.918437) scale(0.1 -0.1)">
       <defs>
        <path id="DejaVuSans-37" d="M 525 4666 
L 3525 4666 
L 3525 4397 
L 1831 0 
L 1172 0 
L 2766 4134 
L 525 4134 
L 525 4666 
z
" transform="scale(0.015625)"/>
       </defs>
       <use xlink:href="#DejaVuSans-37"/>
      </g>
     </g>
    </g>
    <g id="xtick_5">
     <g id="line2d_5">
      <g>
       <use xlink:href="#mc126c36b93" x="454.676497" y="256.32" style="stroke: #000000; stroke-width: 0.8"/>
      </g>
     </g>
     <g id="text_5">
      <!-- 8 -->
      <g transform="translate(451.495247 270.918437) scale(0.1 -0.1)">
       <defs>
        <path id="DejaVuSans-38" d="M 2034 2216 
Q 1584 2216 1326 1975 
Q 1069 1734 1069 1313 
Q 1069 891 1326 650 
Q 1584 409 2034 409 
Q 2484 409 2743 651 
Q 3003 894 3003 1313 
Q 3003 1734 2745 1975 
Q 2488 2216 2034 2216 
z
M 1403 2484 
Q 997 2584 770 2862 
Q 544 3141 544 3541 
Q 544 4100 942 4425 
Q 1341 4750 2034 4750 
Q 2731 4750 3128 4425 
Q 3525 4100 3525 3541 
Q 3525 3141 3298 2862 
Q 3072 2584 2669 2484 
Q 3125 2378 3379 2068 
Q 3634 1759 3634 1313 
Q 3634 634 3220 271 
Q 2806 -91 2034 -91 
Q 1263 -91 848 271 
Q 434 634 434 1313 
Q 434 1759 690 2068 
Q 947 2378 1403 2484 
z
M 1172 3481 
Q 1172 3119 1398 2916 
Q 1625 2713 2034 2713 
Q 2441 2713 2670 2916 
Q 2900 3119 2900 3481 
Q 2900 3844 2670 4047 
Q 2441 4250 2034 4250 
Q 1625 4250 1398 4047 
Q 1172 3844 1172 3481 
z
" transform="scale(0.015625)"/>
       </defs>
       <use xlink:href="#DejaVuSans-38"/>
      </g>
     </g>
    </g>
    <g id="xtick_6">
     <g id="line2d_6">
      <g>
       <use xlink:href="#mc126c36b93" x="539.504713" y="256.32" style="stroke: #000000; stroke-width: 0.8"/>
      </g>
     </g>
     <g id="text_6">
      <!-- 9 -->
      <g transform="translate(536.323463 270.918437) scale(0.1 -0.1)">
       <defs>
        <path id="DejaVuSans-39" d="M 703 97 
L 703 672 
Q 941 559 1184 500 
Q 1428 441 1663 441 
Q 2288 441 2617 861 
Q 2947 1281 2994 2138 
Q 2813 1869 2534 1725 
Q 2256 1581 1919 1581 
Q 1219 1581 811 2004 
Q 403 2428 403 3163 
Q 403 3881 828 4315 
Q 1253 4750 1959 4750 
Q 2769 4750 3195 4129 
Q 3622 3509 3622 2328 
Q 3622 1225 3098 567 
Q 2575 -91 1691 -91 
Q 1453 -91 1209 -44 
Q 966 3 703 97 
z
M 1959 2075 
Q 2384 2075 2632 2365 
Q 2881 2656 2881 3163 
Q 2881 3666 2632 3958 
Q 2384 4250 1959 4250 
Q 1534 4250 1286 3958 
Q 1038 3666 1038 3163 
Q 1038 2656 1286 2365 
Q 1534 2075 1959 2075 
z
" transform="scale(0.015625)"/>
       </defs>
       <use xlink:href="#DejaVuSans-39"/>
      </g>
     </g>
    </g>
    <g id="xtick_7">
     <g id="line2d_7">
      <g>
       <use xlink:href="#mc126c36b93" x="624.332928" y="256.32" style="stroke: #000000; stroke-width: 0.8"/>
      </g>
     </g>
     <g id="text_7">
      <!-- 10 -->
      <g transform="translate(617.970428 270.918437) scale(0.1 -0.1)">
       <defs>
        <path id="DejaVuSans-31" d="M 794 531 
L 1825 531 
L 1825 4091 
L 703 3866 
L 703 4441 
L 1819 4666 
L 2450 4666 
L 2450 531 
L 3481 531 
L 3481 0 
L 794 0 
L 794 531 
z
" transform="scale(0.015625)"/>
        <path id="DejaVuSans-30" d="M 2034 4250 
Q 1547 4250 1301 3770 
Q 1056 3291 1056 2328 
Q 1056 1369 1301 889 
Q 1547 409 2034 409 
Q 2525 409 2770 889 
Q 3016 1369 3016 2328 
Q 3016 3291 2770 3770 
Q 2525 4250 2034 4250 
z
M 2034 4750 
Q 2819 4750 3233 4129 
Q 3647 3509 3647 2328 
Q 3647 1150 3233 529 
Q 2819 -91 2034 -91 
Q 1250 -91 836 529 
Q 422 1150 422 2328 
Q 422 3509 836 4129 
Q 1250 4750 2034 4750 
z
" transform="scale(0.015625)"/>
       </defs>
       <use xlink:href="#DejaVuSans-31"/>
       <use xlink:href="#DejaVuSans-30" x="63.623047"/>
      </g>
     </g>
    </g>
    <g id="text_8">
     <!-- X-axis Label -->
     <g transform="translate(338.925 284.596563) scale(0.1 -0.1)">
      <defs>
       <path id="DejaVuSans-58" d="M 403 4666 
L 1081 4666 
L 2241 2931 
L 3406 4666 
L 4084 4666 
L 2584 2425 
L 4184 0 
L 3506 0 
L 2194 1984 
L 872 0 
L 191 0 
L 1856 2491 
L 403 4666 
z
" transform="scale(0.015625)"/>
       <path id="DejaVuSans-2d" d="M 313 2009 
L 1997 2009 
L 1997 1497 
L 313 1497 
L 313 2009 
z
" transform="scale(0.015625)"/>
       <path id="DejaVuSans-61" d="M 2194 1759 
Q 1497 1759 1228 1600 
Q 959 1441 959 1056 
Q 959 750 1161 570 
Q 1363 391 1709 391 
Q 2188 391 2477 730 
Q 2766 1069 2766 1631 
L 2766 1759 
L 2194 1759 
z
M 3341 1997 
L 3341 0 
L 2766 0 
L 2766 531 
Q 2569 213 2275 61 
Q 1981 -91 1556 -91 
Q 1019 -91 701 211 
Q 384 513 384 1019 
Q 384 1609 779 1909 
Q 1175 2209 1959 2209 
L 2766 2209 
L 2766 2266 
Q 2766 2663 2505 2880 
Q 2244 3097 1772 3097 
Q 1472 3097 1187 3025 
Q 903 2953 641 2809 
L 641 3341 
Q 956 3463 1253 3523 
Q 1550 3584 1831 3584 
Q 2591 3584 2966 3190 
Q 3341 2797 3341 1997 
z
" transform="scale(0.015625)"/>
       <path id="DejaVuSans-78" d="M 3513 3500 
L 2247 1797 
L 3578 0 
L 2900 0 
L 1881 1375 
L 863 0 
L 184 0 
L 1544 1831 
L 300 3500 
L 978 3500 
L 1906 2253 
L 2834 3500 
L 3513 3500 
z
" transform="scale(0.015625)"/>
       <path id="DejaVuSans-69" d="M 603 3500 
L 1178 3500 
L 1178 0 
L 603 0 
L 603 3500 
z
M 603 4863 
L 1178 4863 
L 1178 4134 
L 603 4134 
L 603 4863 
z
" transform="scale(0.015625)"/>
       <path id="DejaVuSans-73" d="M 2834 3397 
L 2834 2853 
Q 2591 2978 2328 3040 
Q 2066 3103 1784 3103 
Q 1356 3103 1142 2972 
Q 928 2841 928 2578 
Q 928 2378 1081 2264 
Q 1234 2150 1697 2047 
L 1894 2003 
Q 2506 1872 2764 1633 
Q 3022 1394 3022 966 
Q 3022 478 2636 193 
Q 2250 -91 1575 -91 
Q 1294 -91 989 -36 
Q 684 19 347 128 
L 347 722 
Q 666 556 975 473 
Q 1284 391 1588 391 
Q 1994 391 2212 530 
Q 2431 669 2431 922 
Q 2431 1156 2273 1281 
Q 2116 1406 1581 1522 
L 1381 1569 
Q 847 1681 609 1914 
Q 372 2147 372 2553 
Q 372 3047 722 3315 
Q 1072 3584 1716 3584 
Q 2034 3584 2315 3537 
Q 2597 3491 2834 3397 
z
" transform="scale(0.015625)"/>
       <path id="DejaVuSans-20" transform="scale(0.015625)"/>
       <path id="DejaVuSans-4c" d="M 628 4666 
L 1259 4666 
L 1259 531 
L 3531 531 
L 3531 0 
L 628 0 
L 628 4666 
z
" transform="scale(0.015625)"/>
       <path id="DejaVuSans-62" d="M 3116 1747 
Q 3116 2381 2855 2742 
Q 2594 3103 2138 3103 
Q 1681 3103 1420 2742 
Q 1159 2381 1159 1747 
Q 1159 1113 1420 752 
Q 1681 391 2138 391 
Q 2594 391 2855 752 
Q 3116 1113 3116 1747 
z
M 1159 2969 
Q 1341 3281 1617 3432 
Q 1894 3584 2278 3584 
Q 2916 3584 3314 3078 
Q 3713 2572 3713 1747 
Q 3713 922 3314 415 
Q 2916 -91 2278 -91 
Q 1894 -91 1617 61 
Q 1341 213 1159 525 
L 1159 0 
L 581 0 
L 581 4863 
L 1159 4863 
L 1159 2969 
z
" transform="scale(0.015625)"/>
       <path id="DejaVuSans-65" d="M 3597 1894 
L 3597 1613 
L 953 1613 
Q 991 1019 1311 708 
Q 1631 397 2203 397 
Q 2534 397 2845 478 
Q 3156 559 3463 722 
L 3463 178 
Q 3153 47 2828 -22 
Q 2503 -91 2169 -91 
Q 1331 -91 842 396 
Q 353 884 353 1716 
Q 353 2575 817 3079 
Q 1281 3584 2069 3584 
Q 2775 3584 3186 3129 
Q 3597 2675 3597 1894 
z
M 3022 2063 
Q 3016 2534 2758 2815 
Q 2500 3097 2075 3097 
Q 1594 3097 1305 2825 
Q 1016 2553 972 2059 
L 3022 2063 
z
" transform="scale(0.015625)"/>
       <path id="DejaVuSans-6c" d="M 603 4863 
L 1178 4863 
L 1178 0 
L 603 0 
L 603 4863 
z
" transform="scale(0.015625)"/>
      </defs>
      <use xlink:href="#DejaVuSans-58"/>
      <use xlink:href="#DejaVuSans-2d" x="63.505859"/>
      <use xlink:href="#DejaVuSans-61" x="99.589844"/>
      <use xlink:href="#DejaVuSans-78" x="160.869141"/>
      <use xlink:href="#DejaVuSans-69" x="220.048828"/>
      <use xlink:href="#DejaVuSans-73" x="247.832031"/>
      <use xlink:href="#DejaVuSans-20" x="299.931641"/>
      <use xlink:href="#DejaVuSans-4c" x="331.71875"/>
      <use xlink:href="#DejaVuSans-61" x="387.431641"/>
      <use xlink:href="#DejaVuSans-62" x="448.710938"/>
      <use xlink:href="#DejaVuSans-65" x="512.1875"/>
      <use xlink:href="#DejaVuSans-6c" x="573.710938"/>
     </g>
    </g>
   </g>
   <g id="matplotlib.axis_2">
    <g id="ytick_1">
     <g id="line2d_8">
      <defs>
       <path id="mb511063ed6" d="M 0 0 
L -3.5 0 
" style="stroke: #000000; stroke-width: 0.8"/>
      </defs>
      <g>
       <use xlink:href="#mb511063ed6" x="90" y="252.799957" style="stroke: #000000; stroke-width: 0.8"/>
      </g>
     </g>
     <g id="text_9">
      <!-- −10 -->
      <g transform="translate(61.895313 256.599176) scale(0.1 -0.1)">
       <defs>
        <path id="DejaVuSans-2212" d="M 678 2272 
L 4684 2272 
L 4684 1741 
L 678 1741 
L 678 2272 
z
" transform="scale(0.015625)"/>
       </defs>
       <use xlink:href="#DejaVuSans-2212"/>
       <use xlink:href="#DejaVuSans-31" x="83.789062"/>
       <use xlink:href="#DejaVuSans-30" x="147.412109"/>
      </g>
     </g>
    </g>
    <g id="ytick_2">
     <g id="line2d_9">
      <g>
       <use xlink:href="#mb511063ed6" x="90" y="213.383524" style="stroke: #000000; stroke-width: 0.8"/>
      </g>
     </g>
     <g id="text_10">
      <!-- −8 -->
      <g transform="translate(68.257812 217.182742) scale(0.1 -0.1)">
       <use xlink:href="#DejaVuSans-2212"/>
       <use xlink:href="#DejaVuSans-38" x="83.789062"/>
      </g>
     </g>
    </g>
    <g id="ytick_3">
     <g id="line2d_10">
      <g>
       <use xlink:href="#mb511063ed6" x="90" y="173.96709" style="stroke: #000000; stroke-width: 0.8"/>
      </g>
     </g>
     <g id="text_11">
      <!-- −6 -->
      <g transform="translate(68.257812 177.766309) scale(0.1 -0.1)">
       <use xlink:href="#DejaVuSans-2212"/>
       <use xlink:href="#DejaVuSans-36" x="83.789062"/>
      </g>
     </g>
    </g>
    <g id="ytick_4">
     <g id="line2d_11">
      <g>
       <use xlink:href="#mb511063ed6" x="90" y="134.550657" style="stroke: #000000; stroke-width: 0.8"/>
      </g>
     </g>
     <g id="text_12">
      <!-- −4 -->
      <g transform="translate(68.257812 138.349876) scale(0.1 -0.1)">
       <use xlink:href="#DejaVuSans-2212"/>
       <use xlink:href="#DejaVuSans-34" x="83.789062"/>
      </g>
     </g>
    </g>
    <g id="ytick_5">
     <g id="line2d_12">
      <g>
       <use xlink:href="#mb511063ed6" x="90" y="95.134224" style="stroke: #000000; stroke-width: 0.8"/>
      </g>
     </g>
     <g id="text_13">
      <!-- −2 -->
      <g transform="translate(68.257812 98.933443) scale(0.1 -0.1)">
       <defs>
        <path id="DejaVuSans-32" d="M 1228 531 
L 3431 531 
L 3431 0 
L 469 0 
L 469 531 
Q 828 903 1448 1529 
Q 2069 2156 2228 2338 
Q 2531 2678 2651 2914 
Q 2772 3150 2772 3378 
Q 2772 3750 2511 3984 
Q 2250 4219 1831 4219 
Q 1534 4219 1204 4116 
Q 875 4013 500 3803 
L 500 4441 
Q 881 4594 1212 4672 
Q 1544 4750 1819 4750 
Q 2544 4750 2975 4387 
Q 3406 4025 3406 3419 
Q 3406 3131 3298 2873 
Q 3191 2616 2906 2266 
Q 2828 2175 2409 1742 
Q 1991 1309 1228 531 
z
" transform="scale(0.015625)"/>
       </defs>
       <use xlink:href="#DejaVuSans-2212"/>
       <use xlink:href="#DejaVuSans-32" x="83.789062"/>
      </g>
     </g>
    </g>
    <g id="ytick_6">
     <g id="line2d_13">
      <g>
       <use xlink:href="#mb511063ed6" x="90" y="55.71779" style="stroke: #000000; stroke-width: 0.8"/>
      </g>
     </g>
     <g id="text_14">
      <!-- 0 -->
      <g transform="translate(76.6375 59.517009) scale(0.1 -0.1)">
       <use xlink:href="#DejaVuSans-30"/>
      </g>
     </g>
    </g>
    <g id="text_15">
     <!-- Y-axis Label -->
     <g transform="translate(55.815625 174.800156) rotate(-90) scale(0.1 -0.1)">
      <defs>
       <path id="DejaVuSans-59" d="M -13 4666 
L 666 4666 
L 1959 2747 
L 3244 4666 
L 3922 4666 
L 2272 2222 
L 2272 0 
L 1638 0 
L 1638 2222 
L -13 4666 
z
" transform="scale(0.015625)"/>
      </defs>
      <use xlink:href="#DejaVuSans-59"/>
      <use xlink:href="#DejaVuSans-2d" x="49.208984"/>
      <use xlink:href="#DejaVuSans-61" x="85.292969"/>
      <use xlink:href="#DejaVuSans-78" x="146.572266"/>
      <use xlink:href="#DejaVuSans-69" x="205.751953"/>
      <use xlink:href="#DejaVuSans-73" x="233.535156"/>
      <use xlink:href="#DejaVuSans-20" x="285.634766"/>
      <use xlink:href="#DejaVuSans-4c" x="317.421875"/>
      <use xlink:href="#DejaVuSans-61" x="373.134766"/>
      <use xlink:href="#DejaVuSans-62" x="434.414062"/>
      <use xlink:href="#DejaVuSans-65" x="497.890625"/>
      <use xlink:href="#DejaVuSans-6c" x="559.414062"/>
     </g>
    </g>
   </g>
   <g id="line2d_14">
    <path d="M 115.363636 61.278886 
L 117.060201 59.580447 
L 118.756765 58.438787 
L 122.149894 57.622141 
L 123.846458 56.567826 
L 125.543022 54.928088 
L 127.239587 54.087236 
L 130.632715 46.802199 
L 132.329279 45.726998 
L 134.025844 46.363355 
L 135.722408 47.856619 
L 137.418972 48.85844 
L 140.812101 49.617577 
L 142.508665 50.122263 
L 144.20523 51.393196 
L 145.901794 56.686379 
L 147.598358 61.2988 
L 149.294922 60.836054 
L 150.991487 59.923372 
L 152.688051 58.788159 
L 157.777744 57.582105 
L 161.170873 54.788875 
L 162.867437 53.138423 
L 164.564001 49.385018 
L 166.260566 48.539934 
L 167.95713 46.701744 
L 169.653694 47.203902 
L 171.350258 48.239159 
L 173.046823 49.023474 
L 174.743387 49.317231 
L 178.136516 50.50374 
L 179.83308 52.661618 
L 181.529644 58.76362 
L 183.226209 63.004997 
L 186.619337 59.416915 
L 188.315901 58.209254 
L 191.70903 57.6159 
L 193.405594 56.75026 
L 195.102159 55.046132 
L 196.798723 53.928767 
L 198.495287 50.48372 
L 200.191852 47.370406 
L 201.888416 46.311537 
L 203.58498 48.684676 
L 205.281545 50.773485 
L 206.978109 54.525637 
L 208.674673 57.035412 
L 210.371237 53.279831 
L 212.067802 52.861565 
L 213.764366 54.696202 
L 215.46093 54.245532 
L 217.157495 54.985487 
L 218.854059 54.479804 
L 222.247188 55.661086 
L 223.943752 57.157463 
L 225.640316 57.802987 
L 227.336881 58.61324 
L 229.033445 58.269752 
L 230.730009 54.381625 
L 232.426573 54.364918 
L 234.123138 59.509808 
L 235.819702 56.808204 
L 237.516266 52.890849 
L 239.212831 59.413894 
L 240.909395 52.632145 
L 242.605959 52.89555 
L 244.302524 51.016109 
L 245.999088 55.528422 
L 247.695652 60.369728 
L 249.392216 63.945465 
L 251.088781 56.502809 
L 252.785345 58.261092 
L 254.481909 60.817107 
L 256.178474 61.120244 
L 257.875038 57.737328 
L 259.571602 49.821803 
L 261.268167 46.693394 
L 262.964731 44.64 
L 264.661295 47.197777 
L 266.35786 48.17445 
L 268.054424 48.8195 
L 269.750988 49.661585 
L 273.144117 52.041744 
L 274.840681 52.824483 
L 276.537245 56.610137 
L 278.23381 59.196666 
L 279.930374 64.147741 
L 281.626938 61.770434 
L 283.323503 60.568092 
L 285.020067 59.510783 
L 286.716631 58.600454 
L 288.413196 56.395535 
L 290.10976 54.563707 
L 291.806324 50.5655 
L 293.502888 47.79514 
L 295.199453 46.043313 
L 296.896017 45.962269 
L 300.289146 48.320778 
L 303.682274 49.504522 
L 305.378839 49.843316 
L 307.075403 50.430845 
L 308.771967 51.163578 
L 310.468531 55.570198 
L 312.165096 60.471854 
L 313.86166 60.978692 
L 315.558224 60.499584 
L 317.254789 59.303165 
L 318.951353 58.51805 
L 322.344482 57.684125 
L 327.434175 53.469581 
L 329.130739 49.775809 
L 330.827303 49.89457 
L 332.523867 46.729783 
L 334.220432 47.312443 
L 335.916996 48.440816 
L 337.61356 49.137558 
L 339.310125 49.4439 
L 342.703253 50.719151 
L 344.399818 52.799882 
L 346.096382 58.775663 
L 347.792946 63.188501 
L 349.48951 60.901337 
L 351.186075 59.461716 
L 352.882639 58.339682 
L 356.275768 57.649459 
L 357.972332 56.702567 
L 359.668896 55.034731 
L 361.365461 53.933624 
L 363.062025 50.043283 
L 364.758589 46.503971 
L 366.455154 45.871211 
L 368.151718 46.254087 
L 369.848282 47.687151 
L 371.544846 48.766165 
L 373.241411 49.286344 
L 374.937975 49.595839 
L 376.634539 50.131629 
L 378.331104 50.905296 
L 381.724232 60.378229 
L 383.420797 60.102065 
L 385.117361 60.282469 
L 386.813925 59.018921 
L 388.51049 58.577027 
L 390.207054 58.262823 
L 391.903618 57.807689 
L 393.600182 56.530082 
L 395.296747 54.912015 
L 396.993311 53.466086 
L 398.689875 49.337372 
L 400.38644 46.352286 
L 402.083004 45.907679 
L 403.779568 46.275432 
L 405.476133 47.55634 
L 407.172697 48.69171 
L 410.565825 49.684012 
L 412.26239 50.288756 
L 413.958954 51.779519 
L 415.655518 57.622555 
L 417.352083 62.479019 
L 419.048647 61.470568 
L 420.745211 59.802138 
L 422.441776 58.591941 
L 427.531469 57.19312 
L 429.228033 55.602262 
L 430.924597 54.469236 
L 432.621161 52.020015 
L 434.317726 49.096909 
L 436.01429 45.397284 
L 437.710854 46.498498 
L 439.407419 48.116038 
L 441.103983 48.966479 
L 442.800547 49.430525 
L 444.497112 49.729938 
L 447.89024 51.027072 
L 449.586804 55.114469 
L 451.283369 58.72424 
L 452.979933 61.148501 
L 454.676497 60.973348 
L 456.373062 59.436722 
L 458.069626 58.588979 
L 459.76619 58.260667 
L 461.462755 57.744544 
L 463.159319 56.721499 
L 464.855883 54.850467 
L 466.552448 53.689905 
L 468.249012 49.769691 
L 469.945576 46.75879 
L 471.64214 45.910098 
L 473.338705 46.163767 
L 475.035269 47.530788 
L 476.731833 48.626033 
L 480.124962 49.426801 
L 481.821526 50.057863 
L 483.518091 51.467365 
L 485.214655 57.630333 
L 486.911219 62.32321 
L 488.607784 60.743665 
L 492.000912 58.710786 
L 495.394041 57.917594 
L 497.090605 57.27622 
L 498.787169 55.519294 
L 500.483734 54.400535 
L 502.180298 51.707104 
L 503.876862 48.759967 
L 505.573427 45.21206 
L 507.269991 46.603663 
L 508.966555 48.206525 
L 510.663119 49.056075 
L 512.359684 49.499643 
L 514.056248 49.814336 
L 517.449377 51.089724 
L 519.145941 55.329918 
L 520.842505 59.033739 
L 522.53907 61.304499 
L 524.235634 60.895406 
L 525.932198 59.36735 
L 527.628763 58.55335 
L 529.325327 58.228734 
L 531.021891 57.735971 
L 532.718455 56.744985 
L 534.41502 54.930475 
L 536.111584 53.825522 
L 537.808148 49.895987 
L 539.504713 46.414243 
L 541.201277 45.3872 
L 542.897841 45.932542 
L 544.594406 47.509421 
L 546.29097 48.673054 
L 547.987534 49.20114 
L 549.684099 49.547887 
L 551.380663 50.136946 
L 553.077227 51.207041 
L 554.773791 56.960522 
L 556.470356 61.373005 
L 558.16692 61.409035 
L 561.560049 58.781897 
L 563.256613 58.327174 
L 564.953177 58.010145 
L 566.649742 57.468346 
L 570.04287 54.499782 
L 571.739434 52.781327 
L 573.435999 49.794709 
L 575.132563 46.396052 
L 576.829127 46.247691 
L 578.525692 47.924439 
L 580.222256 48.846946 
L 581.91882 49.382535 
L 583.615385 49.586875 
L 587.008513 51.039956 
L 588.705078 55.688045 
L 590.401642 59.361061 
L 592.098206 60.476941 
L 593.79477 60.736632 
L 595.491335 59.394162 
L 597.187899 58.680244 
L 598.884463 58.30064 
L 600.581028 57.766611 
L 602.277592 56.809831 
L 603.974156 55.045865 
L 605.670721 53.907953 
L 607.367285 49.892228 
L 609.063849 46.530989 
L 610.760413 44.903365 
L 612.456978 45.698888 
L 614.153542 47.426353 
L 615.850106 48.654128 
L 617.546671 49.257398 
L 619.243235 49.654137 
L 620.939799 50.240815 
L 622.636364 51.356441 
L 622.636364 51.356441 
" clip-path="url(#pda2f9b2cec)" style="fill: none; stroke-dasharray: 5.55,2.4; stroke-dashoffset: 0; stroke: #1f77b4; stroke-opacity: 0.5; stroke-width: 1.5"/>
   </g>
   <g id="line2d_15">
    <path d="M 115.363636 75.543022 
L 118.756765 75.399919 
L 123.846458 75.000153 
L 125.543022 74.721097 
L 127.239587 74.593355 
L 128.936151 75.047606 
L 130.632715 75.278357 
L 134.025844 75.360233 
L 139.115537 75.428697 
L 140.812101 75.521145 
L 142.508665 75.753805 
L 144.20523 76.510299 
L 145.901794 76.732243 
L 147.598358 75.87418 
L 149.294922 75.673661 
L 156.08118 75.317265 
L 159.474308 75.033268 
L 161.170873 74.749808 
L 162.867437 74.726809 
L 166.260566 75.371786 
L 167.95713 75.444805 
L 171.350258 75.374466 
L 174.743387 75.442584 
L 176.439951 75.56262 
L 178.136516 75.90744 
L 179.83308 76.681759 
L 181.529644 76.862808 
L 183.226209 75.889121 
L 184.922773 75.569107 
L 186.619337 75.589028 
L 191.70903 75.199452 
L 193.405594 75.034436 
L 196.798723 74.583329 
L 198.495287 75.008561 
L 200.191852 75.304366 
L 201.888416 75.364941 
L 203.58498 81.182187 
L 205.281545 95.399078 
L 206.978109 83.816513 
L 208.674673 78.810893 
L 210.371237 81.195661 
L 212.067802 80.574707 
L 213.764366 81.877065 
L 215.46093 79.014262 
L 217.157495 74.64171 
L 218.854059 78.585371 
L 220.550623 77.890288 
L 222.247188 75.514404 
L 225.640316 77.991273 
L 227.336881 73.861744 
L 230.730009 74.124767 
L 232.426573 75.396628 
L 234.123138 76.345487 
L 235.819702 77.42376 
L 237.516266 77.405394 
L 239.212831 76.08558 
L 240.909395 75.637509 
L 242.605959 75.632868 
L 244.302524 75.760626 
L 247.695652 77.343056 
L 249.392216 77.057666 
L 251.088781 76.198623 
L 252.785345 76.594679 
L 254.481909 75.94718 
L 256.178474 75.820848 
L 257.875038 75.19769 
L 259.571602 75.125976 
L 261.268167 74.796886 
L 262.964731 73.967204 
L 269.750988 74.904371 
L 273.144117 75.25899 
L 276.537245 75.692645 
L 278.23381 75.65029 
L 279.930374 75.404054 
L 281.626938 75.475681 
L 285.020067 75.197656 
L 290.10976 74.434552 
L 291.806324 74.985309 
L 293.502888 75.263851 
L 298.592581 75.307901 
L 305.378839 75.403976 
L 307.075403 75.551503 
L 308.771967 76.052097 
L 310.468531 76.401318 
L 312.165096 76.528907 
L 313.86166 75.680088 
L 318.951353 75.329578 
L 324.041046 74.929045 
L 325.73761 74.615162 
L 327.434175 74.605439 
L 329.130739 75.044958 
L 332.523867 75.413176 
L 337.61356 75.386983 
L 341.006689 75.546825 
L 342.703253 75.863319 
L 344.399818 76.605256 
L 346.096382 76.752652 
L 347.792946 75.848783 
L 349.48951 75.596713 
L 352.882639 75.477605 
L 357.972332 75.081569 
L 359.668896 74.769452 
L 361.365461 74.617688 
L 363.062025 75.086601 
L 364.758589 75.309349 
L 368.151718 75.356462 
L 374.937975 75.502918 
L 376.634539 75.706442 
L 378.331104 76.326892 
L 380.027668 76.655433 
L 381.724232 75.950184 
L 385.117361 75.621378 
L 396.993311 74.611211 
L 398.689875 75.109294 
L 403.779568 75.355702 
L 408.869261 75.427345 
L 410.565825 75.524706 
L 412.26239 75.792863 
L 413.958954 76.621563 
L 415.655518 76.806761 
L 417.352083 75.834202 
L 419.048647 75.607599 
L 424.13834 75.398493 
L 427.531469 75.13973 
L 430.924597 74.616076 
L 432.621161 74.824289 
L 434.317726 75.175105 
L 437.710854 75.374472 
L 442.800547 75.389202 
L 446.193676 75.602767 
L 447.89024 76.092454 
L 449.586804 76.44214 
L 452.979933 75.55813 
L 456.373062 75.408258 
L 463.159319 74.77526 
L 464.855883 74.448719 
L 466.552448 74.364237 
L 468.249012 75.000884 
L 469.945576 75.234268 
L 473.338705 75.323282 
L 480.124962 75.509529 
L 481.821526 75.77361 
L 483.518091 76.585701 
L 485.214655 76.811969 
L 486.911219 75.810191 
L 488.607784 75.55253 
L 493.697476 75.369209 
L 497.090605 75.111171 
L 500.483734 74.564165 
L 505.573427 75.259338 
L 507.269991 75.374246 
L 512.359684 75.397242 
L 515.752812 75.628966 
L 517.449377 76.168606 
L 519.145941 76.525877 
L 522.53907 75.6132 
L 525.932198 75.431768 
L 532.718455 74.850063 
L 534.41502 74.545268 
L 536.111584 74.438479 
L 537.808148 75.014323 
L 539.504713 75.207258 
L 549.684099 75.511857 
L 551.380663 75.745428 
L 553.077227 76.510816 
L 554.773791 76.793868 
L 556.470356 75.850585 
L 558.16692 75.626886 
L 561.560049 75.500997 
L 568.346306 74.885379 
L 570.04287 74.584417 
L 571.739434 74.679785 
L 575.132563 75.359501 
L 576.829127 75.452187 
L 580.222256 75.422413 
L 583.615385 75.532649 
L 585.311949 75.74285 
L 587.008513 76.381135 
L 588.705078 76.768595 
L 590.401642 75.990229 
L 592.098206 75.652072 
L 595.491335 75.469278 
L 602.277592 74.942141 
L 603.974156 74.644704 
L 605.670721 74.524126 
L 607.367285 75.053794 
L 609.063849 75.238405 
L 612.456978 75.315834 
L 619.243235 75.523431 
L 620.939799 75.767505 
L 622.636364 76.563188 
L 622.636364 76.563188 
" clip-path="url(#pda2f9b2cec)" style="fill: none; stroke-dasharray: 5.55,2.4; stroke-dashoffset: 0; stroke: #ff7f0e; stroke-opacity: 0.5; stroke-width: 1.5"/>
   </g>
   <g id="line2d_16">
    <path d="M 115.363636 95.162567 
L 122.149894 95.187472 
L 128.936151 95.210828 
L 130.632715 95.707153 
L 132.329279 95.293795 
L 134.025844 95.150677 
L 139.115537 95.115332 
L 142.508665 95.034975 
L 144.20523 94.852906 
L 145.901794 94.848572 
L 147.598358 95.308477 
L 150.991487 95.133142 
L 159.474308 95.266317 
L 161.170873 95.381191 
L 162.867437 95.08983 
L 164.564001 96.006403 
L 166.260566 94.965601 
L 167.95713 95.136922 
L 173.046823 95.124712 
L 178.136516 95.011898 
L 179.83308 94.823258 
L 181.529644 95.213541 
L 183.226209 95.384801 
L 184.922773 95.182639 
L 195.102159 95.185477 
L 196.798723 95.251048 
L 198.495287 95.077714 
L 200.191852 95.411412 
L 201.888416 95.173312 
L 203.58498 95.09061 
L 206.978109 95.19633 
L 208.674673 97.024213 
L 210.371237 96.04294 
L 213.764366 100.030761 
L 215.46093 100.467698 
L 217.157495 101.125955 
L 218.854059 96.905151 
L 220.550623 101.674451 
L 222.247188 102.946547 
L 223.943752 104.617817 
L 225.640316 101.287127 
L 227.336881 101.718262 
L 229.033445 91.420891 
L 232.426573 96.589304 
L 234.123138 94.706013 
L 235.819702 100.286642 
L 237.516266 95.573589 
L 239.212831 97.554608 
L 240.909395 99.210499 
L 242.605959 99.64734 
L 244.302524 96.892914 
L 245.999088 96.254884 
L 247.695652 96.747532 
L 249.392216 100.087916 
L 251.088781 92.329059 
L 254.481909 94.761611 
L 256.178474 96.166995 
L 257.875038 95.016973 
L 259.571602 95.161408 
L 261.268167 92.58814 
L 262.964731 92.266269 
L 264.661295 93.358188 
L 266.35786 94.843007 
L 268.054424 95.076762 
L 269.750988 95.042006 
L 271.447552 94.711455 
L 273.144117 94.004267 
L 274.840681 93.446086 
L 276.537245 94.690317 
L 278.23381 95.005425 
L 279.930374 95.755911 
L 288.413196 95.4584 
L 290.10976 95.528965 
L 291.806324 94.451262 
L 293.502888 94.869385 
L 295.199453 95.039547 
L 296.896017 94.993322 
L 298.592581 95.117055 
L 307.075403 95.006733 
L 310.468531 94.847729 
L 312.165096 96.516429 
L 313.86166 95.202638 
L 317.254789 95.171332 
L 325.73761 95.308787 
L 327.434175 95.096987 
L 329.130739 95.811198 
L 332.523867 95.130269 
L 335.916996 95.162898 
L 342.703253 94.993871 
L 344.399818 94.829982 
L 347.792946 95.409944 
L 349.48951 95.135964 
L 361.365461 95.245112 
L 363.062025 95.128335 
L 364.758589 95.554766 
L 366.455154 95.247988 
L 369.848282 95.179097 
L 376.634539 95.035548 
L 380.027668 94.811299 
L 381.724232 95.365363 
L 383.420797 95.189792 
L 386.813925 95.142215 
L 398.689875 95.435095 
L 400.38644 95.549917 
L 402.083004 95.150952 
L 412.26239 95.000788 
L 413.958954 94.802077 
L 415.655518 94.919359 
L 417.352083 95.256869 
L 419.048647 95.135216 
L 430.924597 95.317029 
L 432.621161 94.963342 
L 434.317726 97.306133 
L 436.01429 95.253769 
L 437.710854 95.127089 
L 442.800547 95.101385 
L 446.193676 95.010455 
L 449.586804 94.777269 
L 451.283369 95.428846 
L 452.979933 95.124295 
L 459.76619 95.224532 
L 466.552448 95.239314 
L 468.249012 95.181106 
L 469.945576 95.278064 
L 473.338705 95.159544 
L 480.124962 95.095703 
L 481.821526 95.026919 
L 483.518091 94.822815 
L 485.214655 94.927052 
L 486.911219 95.247105 
L 490.304348 95.138485 
L 498.787169 95.205595 
L 500.483734 95.332563 
L 502.180298 94.939155 
L 503.876862 97.2649 
L 505.573427 95.263289 
L 507.269991 95.1218 
L 512.359684 95.09755 
L 515.752812 94.998055 
L 517.449377 94.815442 
L 519.145941 94.754863 
L 520.842505 95.459817 
L 522.53907 95.128144 
L 527.628763 95.194224 
L 534.41502 95.258641 
L 536.111584 95.262838 
L 537.808148 95.140368 
L 539.504713 95.759782 
L 541.201277 95.312727 
L 542.897841 95.142465 
L 546.29097 95.139544 
L 551.380663 94.979381 
L 553.077227 94.776221 
L 554.773791 94.767318 
L 556.470356 95.272606 
L 558.16692 95.127229 
L 570.04287 95.353153 
L 571.739434 95.037153 
L 573.435999 96.609312 
L 575.132563 95.293009 
L 576.829127 95.097204 
L 581.91882 95.103036 
L 585.311949 95.001668 
L 588.705078 94.695636 
L 590.401642 95.272213 
L 592.098206 95.140087 
L 597.187899 95.197598 
L 603.974156 95.320451 
L 605.670721 95.3021 
L 607.367285 95.12525 
L 609.063849 95.925852 
L 612.456978 95.06384 
L 614.153542 95.16291 
L 620.939799 94.944592 
L 622.636364 94.726587 
L 622.636364 94.726587 
" clip-path="url(#pda2f9b2cec)" style="fill: none; stroke-dasharray: 5.55,2.4; stroke-dashoffset: 0; stroke: #2ca02c; stroke-opacity: 0.5; stroke-width: 1.5"/>
   </g>
   <g id="line2d_17">
    <path d="M 115.363636 114.787758 
L 118.756765 114.835962 
L 122.149894 114.751401 
L 127.239587 114.282236 
L 128.936151 115.118715 
L 130.632715 114.032038 
L 132.329279 115.836276 
L 137.418972 114.473842 
L 139.115537 114.188781 
L 140.812101 114.081427 
L 142.508665 114.228998 
L 144.20523 114.619391 
L 145.901794 114.560007 
L 147.598358 115.518691 
L 149.294922 114.786016 
L 156.08118 114.796959 
L 157.777744 114.656649 
L 159.474308 114.637782 
L 161.170873 114.391116 
L 162.867437 114.535368 
L 164.564001 115.551421 
L 166.260566 113.61694 
L 167.95713 116.834448 
L 169.653694 115.47246 
L 171.350258 114.778357 
L 173.046823 114.324922 
L 174.743387 114.090825 
L 176.439951 114.05485 
L 181.529644 114.819468 
L 183.226209 115.457037 
L 184.922773 114.804834 
L 190.012466 114.818597 
L 195.102159 114.47609 
L 196.798723 114.317763 
L 198.495287 115.063357 
L 200.191852 113.884019 
L 201.888416 115.966865 
L 203.58498 114.718096 
L 205.281545 116.081848 
L 206.978109 115.75181 
L 208.674673 114.751409 
L 212.067802 115.710302 
L 213.764366 116.271206 
L 215.46093 115.911651 
L 217.157495 115.941897 
L 218.854059 117.611262 
L 220.550623 115.712393 
L 222.247188 115.195198 
L 223.943752 114.358241 
L 225.640316 114.687148 
L 227.336881 117.402899 
L 229.033445 117.176086 
L 230.730009 118.969592 
L 232.426573 118.486824 
L 234.123138 115.933507 
L 235.819702 116.436047 
L 237.516266 112.210896 
L 239.212831 112.80404 
L 240.909395 113.688698 
L 242.605959 115.098508 
L 244.302524 115.914671 
L 245.999088 115.054714 
L 247.695652 114.59288 
L 249.392216 113.807839 
L 251.088781 113.856852 
L 252.785345 114.07839 
L 254.481909 115.359199 
L 256.178474 114.209446 
L 257.875038 115.388186 
L 259.571602 113.396794 
L 261.268167 112.199082 
L 264.661295 114.769631 
L 266.35786 116.529267 
L 268.054424 116.306924 
L 269.750988 115.434403 
L 271.447552 115.318432 
L 273.144117 114.813988 
L 276.537245 114.794625 
L 278.23381 115.118208 
L 279.930374 114.873098 
L 286.716631 114.792234 
L 288.413196 114.910466 
L 290.10976 114.623452 
L 291.806324 115.059303 
L 293.502888 113.856963 
L 295.199453 115.621423 
L 296.896017 115.32158 
L 298.592581 115.496882 
L 300.289146 115.090184 
L 301.98571 114.532177 
L 305.378839 113.935926 
L 307.075403 113.908216 
L 308.771967 114.348847 
L 310.468531 114.346359 
L 312.165096 114.861837 
L 313.86166 114.764907 
L 318.951353 114.849158 
L 322.344482 114.748558 
L 324.041046 114.672165 
L 325.73761 114.408998 
L 327.434175 114.417812 
L 329.130739 115.453591 
L 330.827303 114.011256 
L 332.523867 116.156807 
L 334.220432 115.680114 
L 335.916996 114.899691 
L 337.61356 114.461208 
L 339.310125 114.211424 
L 341.006689 114.115805 
L 346.096382 114.704131 
L 347.792946 115.44853 
L 349.48951 114.824911 
L 356.275768 114.782663 
L 359.668896 114.529219 
L 361.365461 114.318003 
L 363.062025 115.211979 
L 364.758589 114.011775 
L 366.455154 116.011343 
L 368.151718 115.282308 
L 371.544846 114.418676 
L 374.937975 114.040138 
L 376.634539 114.163494 
L 378.331104 114.553536 
L 380.027668 114.498717 
L 381.724232 115.180422 
L 383.420797 114.677031 
L 385.117361 114.930546 
L 396.993311 114.461098 
L 398.689875 115.409839 
L 400.38644 113.464279 
L 402.083004 116.309987 
L 403.779568 115.342139 
L 407.172697 114.377848 
L 408.869261 114.131744 
L 410.565825 114.0462 
L 412.26239 114.237979 
L 413.958954 114.640246 
L 415.655518 114.699356 
L 417.352083 115.711265 
L 419.048647 114.809844 
L 425.834904 114.809366 
L 429.228033 114.6107 
L 430.924597 114.344466 
L 432.621161 114.763318 
L 434.317726 116.338296 
L 436.01429 114.856158 
L 437.710854 115.464386 
L 439.407419 114.763405 
L 441.103983 114.443581 
L 444.497112 114.185537 
L 446.193676 114.262296 
L 447.89024 114.536013 
L 449.586804 114.465063 
L 451.283369 114.836831 
L 452.979933 114.47764 
L 454.676497 114.840992 
L 459.76619 114.813789 
L 466.552448 114.388389 
L 468.249012 115.216965 
L 469.945576 113.373348 
L 471.64214 116.149147 
L 473.338705 115.237127 
L 476.731833 114.369271 
L 480.124962 114.040101 
L 481.821526 114.239738 
L 483.518091 114.654857 
L 485.214655 114.725879 
L 486.911219 115.688772 
L 488.607784 114.837522 
L 498.787169 114.614866 
L 500.483734 114.355694 
L 502.180298 114.844752 
L 503.876862 116.492859 
L 505.573427 114.803727 
L 507.269991 115.46738 
L 508.966555 114.799286 
L 510.663119 114.453916 
L 514.056248 114.169161 
L 515.752812 114.23901 
L 517.449377 114.539535 
L 519.145941 114.486329 
L 520.842505 114.798939 
L 522.53907 114.525007 
L 524.235634 114.841673 
L 529.325327 114.809666 
L 536.111584 114.380967 
L 537.808148 115.188909 
L 539.504713 114.342623 
L 541.201277 116.103291 
L 542.897841 115.140452 
L 546.29097 114.337051 
L 549.684099 114.040268 
L 551.380663 114.200355 
L 553.077227 114.63891 
L 554.773791 114.65405 
L 556.470356 115.542086 
L 558.16692 114.709318 
L 561.560049 114.842631 
L 564.953177 114.800792 
L 570.04287 114.352821 
L 571.739434 114.543878 
L 573.435999 115.493507 
L 575.132563 114.105371 
L 576.829127 116.225027 
L 578.525692 114.928776 
L 580.222256 114.534747 
L 583.615385 114.200637 
L 585.311949 114.277046 
L 587.008513 114.581014 
L 588.705078 114.553398 
L 590.401642 115.252821 
L 592.098206 114.584595 
L 593.79477 114.836944 
L 598.884463 114.805618 
L 603.974156 114.432784 
L 605.670721 114.37886 
L 607.367285 115.228569 
L 609.063849 114.610484 
L 610.760413 115.919431 
L 612.456978 115.085573 
L 615.850106 114.33342 
L 619.243235 114.057481 
L 620.939799 114.221017 
L 622.636364 114.653863 
L 622.636364 114.653863 
" clip-path="url(#pda2f9b2cec)" style="fill: none; stroke-dasharray: 5.55,2.4; stroke-dashoffset: 0; stroke: #d62728; stroke-opacity: 0.5; stroke-width: 1.5"/>
   </g>
   <g id="line2d_18">
    <path d="M 115.363636 134.458112 
L 120.453329 134.581537 
L 123.846458 134.520316 
L 125.543022 134.420071 
L 127.239587 133.948633 
L 128.936151 133.122459 
L 130.632715 135.661687 
L 132.329279 134.940663 
L 134.025844 134.607391 
L 135.722408 134.408817 
L 140.812101 134.279718 
L 145.901794 134.601522 
L 147.598358 134.509086 
L 149.294922 134.747999 
L 152.688051 134.643924 
L 159.474308 134.510178 
L 161.170873 134.27911 
L 162.867437 133.719314 
L 164.564001 132.892957 
L 166.260566 136.371078 
L 167.95713 134.822583 
L 171.350258 134.363245 
L 176.439951 134.264318 
L 181.529644 134.677 
L 183.226209 134.40794 
L 188.315901 134.623507 
L 195.102159 134.441047 
L 196.798723 133.942277 
L 198.495287 133.129264 
L 200.191852 136.107395 
L 201.888416 135.032899 
L 203.58498 134.64338 
L 205.281545 134.96588 
L 206.978109 135.514001 
L 208.674673 134.481489 
L 210.371237 134.580811 
L 212.067802 134.954837 
L 213.764366 135.144044 
L 215.46093 135.058341 
L 217.157495 134.576573 
L 218.854059 135.148604 
L 220.550623 133.388132 
L 222.247188 135.070605 
L 223.943752 135.023359 
L 227.336881 134.367268 
L 229.033445 135.238945 
L 232.426573 135.56477 
L 234.123138 136.676227 
L 235.819702 132.957145 
L 237.516266 132.636303 
L 239.212831 134.713756 
L 240.909395 134.650775 
L 242.605959 134.44772 
L 244.302524 134.698848 
L 245.999088 134.584122 
L 247.695652 134.606221 
L 249.392216 133.924556 
L 251.088781 133.880055 
L 252.785345 134.516002 
L 254.481909 134.800359 
L 256.178474 133.546922 
L 257.875038 138.126542 
L 259.571602 137.318018 
L 261.268167 136.204981 
L 262.964731 134.609688 
L 264.661295 134.637059 
L 268.054424 135.30094 
L 271.447552 135.22396 
L 273.144117 135.44647 
L 274.840681 135.297335 
L 276.537245 134.418195 
L 283.323503 134.576977 
L 288.413196 134.552834 
L 290.10976 134.205771 
L 291.806324 133.546659 
L 293.502888 136.189071 
L 295.199453 135.710236 
L 296.896017 135.011908 
L 298.592581 134.63881 
L 301.98571 134.324881 
L 307.075403 134.312375 
L 310.468531 134.568734 
L 324.041046 134.519932 
L 325.73761 134.307377 
L 327.434175 133.791183 
L 329.130739 132.868684 
L 330.827303 136.165504 
L 332.523867 134.858328 
L 334.220432 134.52227 
L 337.61356 134.321287 
L 339.310125 134.234483 
L 342.703253 134.431553 
L 346.096382 134.622411 
L 347.792946 134.516405 
L 352.882639 134.623372 
L 359.668896 134.407866 
L 361.365461 133.897839 
L 363.062025 133.000753 
L 364.758589 135.810707 
L 366.455154 134.974805 
L 368.151718 134.628367 
L 371.544846 134.355011 
L 374.937975 134.298711 
L 380.027668 134.581321 
L 381.724232 134.392242 
L 385.117361 134.516114 
L 388.51049 134.614017 
L 395.296747 134.3255 
L 396.993311 133.746046 
L 398.689875 132.841534 
L 400.38644 136.113049 
L 402.083004 134.932961 
L 405.476133 134.435309 
L 408.869261 134.273981 
L 410.565825 134.289034 
L 415.655518 134.637334 
L 417.352083 134.526258 
L 419.048647 134.633634 
L 429.228033 134.476264 
L 430.924597 134.118059 
L 432.621161 133.486649 
L 434.317726 133.035784 
L 436.01429 134.891608 
L 439.407419 134.452729 
L 442.800547 134.303314 
L 444.497112 134.28868 
L 449.586804 134.557436 
L 451.283369 134.468594 
L 452.979933 134.64125 
L 454.676497 134.498967 
L 459.76619 134.570441 
L 463.159319 134.519829 
L 464.855883 134.409981 
L 466.552448 133.814522 
L 468.249012 132.906064 
L 469.945576 136.230858 
L 471.64214 134.981639 
L 473.338705 134.629837 
L 476.731833 134.356394 
L 480.124962 134.326697 
L 485.214655 134.620473 
L 486.911219 134.499379 
L 488.607784 134.850702 
L 490.304348 134.67574 
L 498.787169 134.48077 
L 500.483734 134.099015 
L 502.180298 133.472817 
L 503.876862 133.09939 
L 505.573427 134.894243 
L 508.966555 134.44641 
L 512.359684 134.291337 
L 514.056248 134.264949 
L 519.145941 134.575387 
L 520.842505 134.465334 
L 522.53907 134.61703 
L 524.235634 134.499871 
L 529.325327 134.566909 
L 532.718455 134.517467 
L 534.41502 134.404773 
L 536.111584 133.833351 
L 537.808148 132.951423 
L 539.504713 135.316822 
L 541.201277 134.766077 
L 544.594406 134.444234 
L 549.684099 134.367366 
L 554.773791 134.58236 
L 556.470356 134.452593 
L 558.16692 134.584976 
L 570.04287 134.279647 
L 571.739434 133.701496 
L 573.435999 132.298424 
L 575.132563 135.32695 
L 576.829127 134.753428 
L 578.525692 134.516135 
L 583.615385 134.307354 
L 588.705078 134.60821 
L 590.401642 134.368707 
L 592.098206 134.646894 
L 593.79477 134.540874 
L 598.884463 134.554986 
L 602.277592 134.515663 
L 603.974156 134.383454 
L 605.670721 133.803433 
L 607.367285 132.902261 
L 609.063849 135.03303 
L 612.456978 134.608431 
L 615.850106 134.396394 
L 619.243235 134.363066 
L 622.636364 134.55191 
L 622.636364 134.55191 
" clip-path="url(#pda2f9b2cec)" style="fill: none; stroke-dasharray: 5.55,2.4; stroke-dashoffset: 0; stroke: #9467bd; stroke-opacity: 0.5; stroke-width: 1.5"/>
   </g>
   <g id="line2d_19">
    <path d="M 115.363636 153.955508 
L 117.060201 154.193234 
L 118.756765 154.25349 
L 125.543022 153.834228 
L 127.239587 153.777962 
L 128.936151 153.938762 
L 130.632715 153.402033 
L 132.329279 153.868847 
L 134.025844 153.620843 
L 135.722408 153.834391 
L 137.418972 154.167152 
L 139.115537 154.347539 
L 144.20523 154.142216 
L 145.901794 154.2128 
L 147.598358 154.663274 
L 149.294922 154.155611 
L 154.384615 154.12732 
L 157.777744 153.712658 
L 162.867437 153.705397 
L 164.564001 154.058984 
L 166.260566 152.420901 
L 167.95713 154.392405 
L 169.653694 154.254406 
L 171.350258 154.266562 
L 173.046823 154.464004 
L 174.743387 154.502586 
L 176.439951 154.351822 
L 181.529644 154.182959 
L 183.226209 154.03432 
L 184.922773 154.128168 
L 186.619337 154.418591 
L 188.315901 154.393827 
L 193.405594 153.845854 
L 198.495287 153.904694 
L 200.191852 153.143305 
L 201.888416 153.767553 
L 203.58498 154.918325 
L 205.281545 155.295705 
L 206.978109 153.876728 
L 208.674673 154.259587 
L 210.371237 154.464912 
L 212.067802 154.194082 
L 217.157495 154.300746 
L 220.550623 154.243192 
L 222.247188 153.368373 
L 223.943752 154.266417 
L 225.640316 154.129657 
L 227.336881 153.098552 
L 229.033445 150.945824 
L 230.730009 152.770509 
L 232.426573 152.129499 
L 234.123138 153.683394 
L 235.819702 153.043003 
L 237.516266 154.068355 
L 239.212831 154.257942 
L 240.909395 154.077818 
L 242.605959 156.545187 
L 245.999088 155.794906 
L 247.695652 154.273476 
L 249.392216 154.10303 
L 252.785345 154.280124 
L 254.481909 154.206934 
L 256.178474 154.276769 
L 257.875038 154.713272 
L 259.571602 156.616624 
L 261.268167 159.050417 
L 262.964731 159.982724 
L 264.661295 159.284923 
L 266.35786 158.122553 
L 268.054424 156.252653 
L 271.447552 155.527502 
L 273.144117 155.216213 
L 274.840681 154.702852 
L 276.537245 154.393087 
L 278.23381 155.653393 
L 279.930374 155.875573 
L 281.626938 155.084683 
L 283.323503 154.790027 
L 286.716631 153.985486 
L 288.413196 153.863263 
L 291.806324 153.975115 
L 293.502888 152.616113 
L 295.199453 153.6589 
L 296.896017 153.763051 
L 298.592581 154.161559 
L 301.98571 154.641026 
L 303.682274 154.745641 
L 307.075403 154.486841 
L 308.771967 154.359036 
L 310.468531 154.426034 
L 312.165096 153.890808 
L 317.254789 154.301661 
L 318.951353 154.240004 
L 322.344482 153.862367 
L 327.434175 153.845004 
L 329.130739 154.105204 
L 330.827303 153.111641 
L 332.523867 154.4108 
L 335.916996 154.222982 
L 337.61356 154.42417 
L 339.310125 154.461372 
L 342.703253 154.264279 
L 346.096382 154.204243 
L 347.792946 154.09434 
L 349.48951 154.146105 
L 351.186075 154.420531 
L 352.882639 154.433011 
L 357.972332 153.873643 
L 363.062025 153.954625 
L 364.758589 153.17931 
L 366.455154 153.707354 
L 368.151718 153.582359 
L 373.241411 154.426087 
L 378.331104 154.213745 
L 380.027668 154.289496 
L 381.724232 154.899824 
L 383.420797 154.19593 
L 385.117361 153.794623 
L 386.813925 153.977424 
L 388.51049 154.006563 
L 393.600182 153.661418 
L 396.993311 153.63161 
L 398.689875 153.926379 
L 400.38644 152.392635 
L 402.083004 153.850458 
L 403.779568 153.85523 
L 408.869261 154.485533 
L 412.26239 154.335249 
L 415.655518 154.297237 
L 417.352083 154.334759 
L 419.048647 154.118555 
L 422.441776 154.342703 
L 425.834904 154.020403 
L 427.531469 153.839159 
L 432.621161 153.846887 
L 434.317726 154.174583 
L 436.01429 154.030929 
L 437.710854 153.421848 
L 439.407419 153.683281 
L 441.103983 154.100292 
L 442.800547 154.355033 
L 447.89024 154.250724 
L 449.586804 154.320575 
L 451.283369 154.750855 
L 452.979933 154.089835 
L 454.676497 153.930427 
L 456.373062 154.072088 
L 458.069626 154.097784 
L 463.159319 153.810664 
L 468.249012 153.938281 
L 469.945576 152.684938 
L 471.64214 153.819327 
L 473.338705 153.657011 
L 478.428398 154.403155 
L 483.518091 154.184488 
L 486.911219 154.320075 
L 488.607784 154.139099 
L 492.000912 154.270535 
L 495.394041 153.912267 
L 497.090605 153.730582 
L 502.180298 153.812693 
L 503.876862 154.176233 
L 505.573427 153.881587 
L 507.269991 153.426511 
L 512.359684 154.41506 
L 517.449377 154.271493 
L 519.145941 154.334811 
L 520.842505 154.695195 
L 522.53907 154.078953 
L 524.235634 153.945267 
L 525.932198 154.113277 
L 527.628763 154.139333 
L 532.718455 153.827712 
L 537.808148 153.934518 
L 539.504713 153.273631 
L 541.201277 153.662379 
L 542.897841 153.500955 
L 546.29097 154.205099 
L 547.987534 154.38265 
L 553.077227 154.182594 
L 554.773791 154.267985 
L 556.470356 154.621454 
L 558.16692 154.111949 
L 561.560049 154.308651 
L 564.953177 153.972659 
L 566.649742 153.771594 
L 573.435999 153.854806 
L 575.132563 153.189102 
L 576.829127 153.688944 
L 578.525692 153.834727 
L 581.91882 154.435821 
L 588.705078 154.274169 
L 590.401642 154.998212 
L 592.098206 154.05344 
L 593.79477 153.901672 
L 597.187899 154.076234 
L 602.277592 153.781204 
L 607.367285 153.916029 
L 609.063849 153.293629 
L 610.760413 153.601942 
L 612.456978 153.474417 
L 615.850106 154.226098 
L 617.546671 154.410123 
L 622.636364 154.247189 
L 622.636364 154.247189 
" clip-path="url(#pda2f9b2cec)" style="fill: none; stroke-dasharray: 5.55,2.4; stroke-dashoffset: 0; stroke: #8c564b; stroke-opacity: 0.5; stroke-width: 1.5"/>
   </g>
   <g id="line2d_20">
    <path d="M 115.363636 173.859543 
L 127.239587 174.16434 
L 128.936151 174.363538 
L 130.632715 174.390402 
L 132.329279 174.562952 
L 135.722408 174.297943 
L 139.115537 174.110253 
L 145.901794 173.948306 
L 156.08118 173.982548 
L 157.777744 174.047634 
L 159.474308 173.984358 
L 162.867437 174.258438 
L 164.564001 174.527693 
L 169.653694 174.409156 
L 178.136516 174.001601 
L 184.922773 173.890847 
L 193.405594 174.017458 
L 195.102159 173.989958 
L 201.888416 174.398914 
L 205.281545 173.794752 
L 206.978109 173.956539 
L 208.674673 173.962751 
L 210.371237 173.848014 
L 215.46093 174.101235 
L 218.854059 173.878454 
L 220.550623 172.657994 
L 222.247188 172.389134 
L 223.943752 171.567507 
L 225.640316 172.123082 
L 227.336881 172.291471 
L 229.033445 172.605217 
L 232.426573 173.604113 
L 234.123138 173.930177 
L 235.819702 174.078383 
L 237.516266 174.846738 
L 240.909395 174.153347 
L 244.302524 174.025502 
L 245.999088 174.294513 
L 247.695652 174.265848 
L 249.392216 174.097097 
L 251.088781 174.079447 
L 254.481909 173.744892 
L 256.178474 174.189602 
L 257.875038 173.70476 
L 259.571602 173.710246 
L 261.268167 173.95668 
L 273.144117 174.523907 
L 274.840681 174.71753 
L 276.537245 173.869774 
L 278.23381 173.595724 
L 279.930374 173.893457 
L 281.626938 173.783672 
L 290.10976 174.013178 
L 291.806324 174.283364 
L 295.199453 175.01046 
L 298.592581 174.565019 
L 308.771967 174.111484 
L 312.165096 173.700723 
L 313.86166 173.833697 
L 317.254789 173.872426 
L 322.344482 174.073181 
L 324.041046 173.975216 
L 325.73761 174.046638 
L 327.434175 174.262769 
L 329.130739 174.655273 
L 335.916996 174.323831 
L 339.310125 174.129232 
L 346.096382 173.887635 
L 361.365461 174.138885 
L 363.062025 174.318151 
L 364.758589 174.347006 
L 366.455154 174.508335 
L 369.848282 174.273545 
L 374.937975 174.047713 
L 383.420797 173.883693 
L 390.207054 173.983075 
L 391.903618 174.055814 
L 395.296747 174.038469 
L 398.689875 174.374457 
L 403.779568 174.383806 
L 415.655518 173.919477 
L 430.924597 174.096833 
L 432.621161 174.256448 
L 434.317726 174.528086 
L 439.407419 174.256219 
L 444.497112 174.036484 
L 451.283369 173.959609 
L 456.373062 173.917931 
L 463.159319 174.00613 
L 464.855883 173.99889 
L 468.249012 174.223539 
L 469.945576 174.226286 
L 471.64214 174.402952 
L 476.731833 174.123679 
L 483.518091 173.969172 
L 498.787169 173.978506 
L 502.180298 174.289051 
L 503.876862 174.571006 
L 505.573427 174.53277 
L 508.966555 174.281416 
L 514.056248 174.051137 
L 519.145941 173.957287 
L 534.41502 173.998352 
L 537.808148 174.243999 
L 544.594406 174.155511 
L 549.684099 173.994446 
L 559.863484 173.905241 
L 566.649742 174.038125 
L 568.346306 173.984379 
L 571.739434 174.210772 
L 573.435999 174.47738 
L 587.008513 173.980272 
L 595.491335 173.927055 
L 602.277592 174.005888 
L 603.974156 174.003239 
L 607.367285 174.284674 
L 609.063849 174.279859 
L 610.760413 174.391465 
L 615.850106 174.112821 
L 622.636364 173.974135 
L 622.636364 173.974135 
" clip-path="url(#pda2f9b2cec)" style="fill: none; stroke-dasharray: 5.55,2.4; stroke-dashoffset: 0; stroke: #e377c2; stroke-opacity: 0.5; stroke-width: 1.5"/>
   </g>
   <g id="line2d_21">
    <path d="M 115.363636 194.509589 
L 120.453329 194.682258 
L 122.149894 194.934725 
L 125.543022 195.173818 
L 127.239587 194.694762 
L 128.936151 193.866048 
L 132.329279 193.588811 
L 135.722408 193.706541 
L 140.812101 193.6097 
L 142.508665 193.746786 
L 144.20523 194.243208 
L 145.901794 194.391377 
L 147.598358 194.043506 
L 159.474308 195.090344 
L 161.170873 195.053415 
L 164.564001 193.738753 
L 167.95713 193.603068 
L 169.653694 193.776402 
L 173.046823 193.726566 
L 176.439951 193.645181 
L 178.136516 193.824453 
L 181.529644 194.531592 
L 183.226209 194.102593 
L 184.922773 194.299624 
L 190.012466 194.49405 
L 191.70903 194.693864 
L 195.102159 194.880234 
L 196.798723 194.48237 
L 198.495287 193.809557 
L 200.191852 193.675305 
L 203.58498 193.682362 
L 206.978109 194.021344 
L 208.674673 193.822085 
L 210.371237 194.737577 
L 212.067802 196.658932 
L 213.764366 197.74612 
L 215.46093 196.918007 
L 217.157495 194.757612 
L 218.854059 197.127926 
L 220.550623 194.882072 
L 222.247188 194.472628 
L 223.943752 192.819747 
L 225.640316 192.839546 
L 227.336881 189.942349 
L 229.033445 190.883689 
L 230.730009 188.968945 
L 232.426573 190.343201 
L 234.123138 194.998544 
L 235.819702 196.194774 
L 237.516266 202.166652 
L 239.212831 199.405779 
L 240.909395 199.63549 
L 242.605959 197.04795 
L 244.302524 194.97646 
L 245.999088 195.812289 
L 247.695652 196.108297 
L 249.392216 194.711347 
L 251.088781 193.573653 
L 252.785345 192.866733 
L 254.481909 192.899323 
L 256.178474 191.082862 
L 257.875038 192.718781 
L 259.571602 193.681751 
L 261.268167 193.760715 
L 264.661295 193.64525 
L 266.35786 193.714402 
L 269.750988 194.000016 
L 273.144117 194.023136 
L 274.840681 193.501448 
L 276.537245 193.189172 
L 278.23381 193.751539 
L 279.930374 193.427892 
L 281.626938 193.240313 
L 290.10976 193.093415 
L 291.806324 193.456304 
L 293.502888 193.589526 
L 296.896017 193.985254 
L 298.592581 194.176209 
L 300.289146 194.199348 
L 305.378839 193.807629 
L 307.075403 193.661512 
L 308.771967 193.721813 
L 310.468531 193.904545 
L 312.165096 194.345064 
L 313.86166 194.115599 
L 317.254789 194.38111 
L 318.951353 194.46614 
L 324.041046 195.05989 
L 325.73761 195.144062 
L 329.130739 193.765223 
L 332.523867 193.690143 
L 334.220432 193.849842 
L 337.61356 193.79632 
L 341.006689 193.670739 
L 342.703253 193.742485 
L 346.096382 194.295698 
L 347.792946 194.019014 
L 354.579203 194.464168 
L 356.275768 194.688543 
L 359.668896 194.931974 
L 361.365461 194.474856 
L 363.062025 193.779749 
L 364.758589 193.674369 
L 366.455154 193.681921 
L 369.848282 193.840051 
L 376.634539 193.70135 
L 378.331104 194.070977 
L 380.027668 194.240781 
L 381.724232 194.034714 
L 383.420797 194.307349 
L 395.296747 194.867909 
L 398.689875 193.726481 
L 403.779568 193.732286 
L 407.172697 193.709182 
L 410.565825 193.62924 
L 412.26239 193.796117 
L 413.958954 194.324433 
L 415.655518 194.51404 
L 417.352083 194.029294 
L 420.745211 194.269964 
L 424.13834 194.480233 
L 427.531469 194.893791 
L 429.228033 195.023614 
L 430.924597 194.818783 
L 432.621161 194.058631 
L 434.317726 193.671569 
L 446.193676 193.675429 
L 447.89024 193.986635 
L 449.586804 194.121138 
L 451.283369 194.080101 
L 456.373062 194.440096 
L 459.76619 194.612984 
L 461.462755 194.804813 
L 464.855883 194.964746 
L 466.552448 194.488271 
L 468.249012 193.787793 
L 471.64214 193.589864 
L 475.035269 193.721037 
L 480.124962 193.617719 
L 481.821526 193.807085 
L 483.518091 194.405587 
L 485.214655 194.616182 
L 486.911219 194.059531 
L 490.304348 194.227345 
L 493.697476 194.506593 
L 497.090605 194.924554 
L 498.787169 195.063169 
L 500.483734 194.810042 
L 502.180298 194.033494 
L 503.876862 193.670483 
L 507.269991 193.71517 
L 510.663119 193.716022 
L 514.056248 193.61778 
L 515.752812 193.68005 
L 517.449377 194.005801 
L 519.145941 194.159653 
L 520.842505 194.105656 
L 524.235634 194.439102 
L 527.628763 194.485341 
L 534.41502 194.969949 
L 536.111584 194.493106 
L 537.808148 193.795273 
L 539.504713 193.675143 
L 546.29097 193.766788 
L 549.684099 193.644438 
L 551.380663 193.741323 
L 553.077227 194.222407 
L 554.773791 194.434326 
L 556.470356 194.013384 
L 558.16692 194.294429 
L 559.863484 194.447646 
L 563.256613 194.597509 
L 566.649742 195.045068 
L 568.346306 195.113107 
L 570.04287 195.050577 
L 571.739434 194.302439 
L 573.435999 193.74831 
L 575.132563 193.588847 
L 576.829127 193.56726 
L 580.222256 193.649025 
L 583.615385 193.585638 
L 585.311949 193.680672 
L 587.008513 194.082115 
L 588.705078 194.247084 
L 590.401642 193.996802 
L 602.277592 194.855983 
L 603.974156 194.924668 
L 605.670721 194.428541 
L 607.367285 193.772135 
L 609.063849 193.679529 
L 615.850106 193.754039 
L 619.243235 193.639327 
L 620.939799 193.750822 
L 622.636364 194.246829 
L 622.636364 194.246829 
" clip-path="url(#pda2f9b2cec)" style="fill: none; stroke-dasharray: 5.55,2.4; stroke-dashoffset: 0; stroke: #7f7f7f; stroke-opacity: 0.5; stroke-width: 1.5"/>
   </g>
   <g id="line2d_22">
    <path d="M 115.363636 213.411962 
L 122.149894 213.096389 
L 125.543022 213.163759 
L 127.239587 213.256922 
L 128.936151 213.478677 
L 130.632715 213.10899 
L 134.025844 213.186471 
L 137.418972 213.246105 
L 140.812101 213.318118 
L 142.508665 213.268795 
L 144.20523 213.089623 
L 145.901794 212.75394 
L 147.598358 213.357852 
L 149.294922 213.456664 
L 152.688051 213.288083 
L 157.777744 213.078679 
L 161.170873 213.144699 
L 164.564001 213.483556 
L 167.95713 213.113847 
L 174.743387 213.332789 
L 178.136516 213.262291 
L 179.83308 212.905964 
L 181.529644 212.723432 
L 183.226209 213.437622 
L 184.922773 213.462891 
L 193.405594 213.105962 
L 196.798723 213.245938 
L 198.495287 213.478538 
L 200.191852 213.151748 
L 203.58498 213.237701 
L 205.281545 212.605379 
L 206.978109 213.17302 
L 208.674673 213.179091 
L 212.067802 213.488431 
L 213.764366 213.952012 
L 215.46093 214.197948 
L 217.157495 215.137433 
L 218.854059 214.581199 
L 220.550623 215.059767 
L 222.247188 214.961859 
L 223.943752 216.660636 
L 225.640316 216.704318 
L 227.336881 215.521212 
L 229.033445 212.890661 
L 230.730009 214.165246 
L 232.426573 214.362247 
L 235.819702 214.440455 
L 239.212831 213.559616 
L 242.605959 213.04569 
L 244.302524 212.946943 
L 247.695652 212.222255 
L 249.392216 213.01751 
L 251.088781 212.890561 
L 252.785345 213.132844 
L 254.481909 213.555937 
L 256.178474 213.420362 
L 257.875038 213.406404 
L 259.571602 213.572986 
L 261.268167 212.614032 
L 262.964731 212.634217 
L 264.661295 212.869849 
L 266.35786 212.843112 
L 269.750988 213.037086 
L 273.144117 213.053846 
L 274.840681 213.284869 
L 276.537245 213.105144 
L 279.930374 213.314604 
L 288.413196 213.185159 
L 290.10976 213.274717 
L 291.806324 213.540305 
L 293.502888 213.141298 
L 295.199453 213.197894 
L 296.896017 213.114925 
L 305.378839 213.380202 
L 308.771967 213.260394 
L 310.468531 212.804281 
L 312.165096 212.852928 
L 313.86166 213.440612 
L 317.254789 213.291037 
L 322.344482 213.100135 
L 325.73761 213.16584 
L 329.130739 213.463668 
L 330.827303 213.462752 
L 332.523867 213.107096 
L 337.61356 213.3012 
L 341.006689 213.342335 
L 342.703253 213.307019 
L 344.399818 212.933772 
L 346.096382 212.751716 
L 347.792946 213.439347 
L 351.186075 213.367977 
L 354.579203 213.150184 
L 357.972332 213.113605 
L 361.365461 213.252956 
L 363.062025 213.497124 
L 364.758589 213.120094 
L 368.151718 213.182564 
L 371.544846 213.234426 
L 374.937975 213.328112 
L 378.331104 213.168143 
L 380.027668 212.785989 
L 381.724232 213.244613 
L 385.117361 213.383599 
L 395.296747 213.157022 
L 396.993311 213.286416 
L 398.689875 213.543383 
L 400.38644 213.059915 
L 408.869261 213.310095 
L 412.26239 213.251636 
L 415.655518 212.692293 
L 417.352083 213.429096 
L 420.745211 213.399082 
L 424.13834 213.164775 
L 427.531469 213.092156 
L 430.924597 213.191788 
L 432.621161 213.438988 
L 434.317726 213.209963 
L 441.103983 213.258163 
L 446.193676 213.298274 
L 447.89024 213.221564 
L 449.586804 212.831039 
L 452.979933 213.382592 
L 456.373062 213.35661 
L 461.462755 213.115455 
L 464.855883 213.181331 
L 466.552448 213.26779 
L 468.249012 213.526284 
L 469.945576 213.160708 
L 476.731833 213.234071 
L 480.124962 213.297316 
L 481.821526 213.23673 
L 483.518091 213.016373 
L 485.214655 212.676576 
L 486.911219 213.421459 
L 488.607784 213.470555 
L 497.090605 213.092699 
L 500.483734 213.187459 
L 502.180298 213.447779 
L 503.876862 213.175992 
L 514.056248 213.359184 
L 517.449377 213.218477 
L 519.145941 212.819951 
L 522.53907 213.383007 
L 525.932198 213.35339 
L 531.021891 213.109586 
L 534.41502 213.174636 
L 536.111584 213.258962 
L 537.808148 213.528183 
L 539.504713 213.109977 
L 542.897841 213.171712 
L 546.29097 213.217284 
L 549.684099 213.308419 
L 553.077227 213.08323 
L 554.773791 212.695969 
L 556.470356 213.369871 
L 559.863484 213.390933 
L 564.953177 213.116293 
L 568.346306 213.110863 
L 570.04287 213.165917 
L 573.435999 213.442274 
L 575.132563 213.215434 
L 576.829127 213.134339 
L 585.311949 213.263666 
L 587.008513 213.170053 
L 588.705078 212.787526 
L 590.401642 213.192138 
L 592.098206 213.391927 
L 595.491335 213.356693 
L 600.581028 213.100818 
L 603.974156 213.163404 
L 605.670721 213.246759 
L 607.367285 213.542266 
L 609.063849 213.125103 
L 614.153542 213.159343 
L 619.243235 213.31449 
L 620.939799 213.251314 
L 622.636364 213.069438 
L 622.636364 213.069438 
" clip-path="url(#pda2f9b2cec)" style="fill: none; stroke-dasharray: 5.55,2.4; stroke-dashoffset: 0; stroke: #bcbd22; stroke-opacity: 0.5; stroke-width: 1.5"/>
   </g>
   <g id="line2d_23">
    <path d="M 115.363636 225.462463 
L 117.060201 227.064915 
L 118.756765 228.035254 
L 122.149894 228.590145 
L 123.846458 230.527768 
L 125.543022 233.459307 
L 127.239587 233.513508 
L 128.936151 236.379422 
L 130.632715 242.208089 
L 132.329279 243.331968 
L 134.025844 243.34919 
L 135.722408 241.173861 
L 137.418972 239.635436 
L 139.115537 238.654889 
L 140.812101 238.090727 
L 142.508665 237.64521 
L 144.20523 236.853966 
L 145.901794 232.576814 
L 147.598358 225.381214 
L 149.294922 225.229131 
L 152.688051 227.620015 
L 154.384615 228.012268 
L 156.08118 228.277856 
L 157.777744 228.797123 
L 159.474308 231.523455 
L 161.170873 233.445036 
L 162.867437 233.987011 
L 164.564001 236.730634 
L 166.260566 238.220448 
L 167.95713 243.086033 
L 169.653694 242.54878 
L 173.046823 239.599742 
L 174.743387 238.598431 
L 176.439951 238.057706 
L 178.136516 237.242401 
L 179.83308 236.007584 
L 181.529644 231.425921 
L 183.226209 223.525882 
L 184.922773 225.496074 
L 186.619337 227.019325 
L 188.315901 228.261711 
L 191.70903 228.643374 
L 193.405594 230.211382 
L 195.102159 233.360002 
L 196.798723 233.858192 
L 198.495287 236.639906 
L 200.191852 240.80567 
L 201.888416 242.081354 
L 203.58498 238.33819 
L 205.281545 235.078043 
L 206.978109 233.290836 
L 208.674673 227.049394 
L 210.371237 231.571093 
L 212.067802 233.202121 
L 213.764366 231.929007 
L 215.46093 232.841152 
L 217.157495 232.118311 
L 218.854059 231.665745 
L 220.550623 232.535113 
L 222.247188 232.134075 
L 223.943752 232.104769 
L 225.640316 232.689105 
L 227.336881 231.102312 
L 229.033445 230.91398 
L 230.730009 234.676831 
L 232.426573 235.396791 
L 234.123138 231.61078 
L 235.819702 232.550495 
L 237.516266 233.282121 
L 239.212831 231.514357 
L 240.909395 235.78526 
L 242.605959 235.737239 
L 244.302524 237.403094 
L 245.999088 234.703428 
L 249.392216 223.476681 
L 251.088781 231.318526 
L 252.785345 228.773234 
L 254.481909 224.676844 
L 256.178474 225.5084 
L 257.875038 230.41145 
L 259.571602 238.543605 
L 262.964731 246.24 
L 264.661295 242.528711 
L 266.35786 239.674047 
L 269.750988 238.289822 
L 273.144117 236.142722 
L 274.840681 235.320923 
L 276.537245 232.594592 
L 278.23381 228.91865 
L 279.930374 221.620099 
L 281.626938 224.61931 
L 283.323503 225.951417 
L 285.020067 226.955333 
L 286.716631 227.790221 
L 288.413196 231.921785 
L 291.806324 237.012715 
L 293.502888 239.825157 
L 295.199453 241.400352 
L 296.896017 243.39853 
L 298.592581 241.871321 
L 300.289146 239.919253 
L 301.98571 238.880998 
L 303.682274 238.021318 
L 305.378839 237.491322 
L 307.075403 237.127992 
L 308.771967 236.560844 
L 310.468531 233.536737 
L 312.165096 228.166434 
L 313.86166 225.199132 
L 315.558224 226.158742 
L 317.254789 227.373142 
L 318.951353 227.914005 
L 320.647917 228.114073 
L 322.344482 228.519486 
L 324.041046 231.32054 
L 325.73761 233.765693 
L 327.434175 234.007531 
L 329.130739 236.40088 
L 330.827303 236.128451 
L 332.523867 242.973048 
L 334.220432 242.368956 
L 335.916996 240.573241 
L 337.61356 239.226655 
L 339.310125 238.28826 
L 341.006689 237.645314 
L 344.399818 235.838905 
L 346.096382 231.159951 
L 347.792946 223.263523 
L 349.48951 225.795759 
L 352.882639 228.122337 
L 354.579203 228.385321 
L 356.275768 228.521917 
L 357.972332 230.352943 
L 359.668896 233.4433 
L 361.365461 233.86281 
L 363.062025 236.94525 
L 364.758589 242.259963 
L 366.455154 242.731834 
L 368.151718 243.432072 
L 369.848282 241.432123 
L 371.544846 239.77738 
L 373.241411 238.592459 
L 374.937975 238.038401 
L 376.634539 237.624689 
L 378.331104 236.997784 
L 380.027668 233.37153 
L 381.724232 227.080054 
L 383.420797 225.900202 
L 385.117361 226.289887 
L 386.813925 227.537932 
L 391.903618 228.450251 
L 395.296747 233.445244 
L 396.993311 233.851456 
L 398.689875 237.223477 
L 400.38644 241.408512 
L 402.083004 243.101276 
L 403.779568 243.363288 
L 407.172697 239.9446 
L 408.869261 238.790339 
L 413.958954 236.765738 
L 415.655518 232.234317 
L 417.352083 223.804352 
L 419.048647 224.864134 
L 420.745211 226.548808 
L 422.441776 227.821193 
L 424.13834 228.237683 
L 425.834904 228.458341 
L 427.531469 229.393958 
L 429.228033 232.491086 
L 430.924597 233.587431 
L 432.621161 235.189536 
L 434.317726 237.219241 
L 436.01429 244.560361 
L 437.710854 243.657 
L 439.407419 241.065043 
L 441.103983 239.656617 
L 442.800547 238.525168 
L 447.89024 236.828064 
L 449.586804 233.704409 
L 451.283369 229.710101 
L 452.979933 224.746774 
L 454.676497 225.519303 
L 456.373062 227.129845 
L 458.069626 227.864075 
L 459.76619 228.071157 
L 461.462755 228.488132 
L 463.159319 230.427596 
L 464.855883 233.685972 
L 466.552448 233.985379 
L 468.249012 237.239866 
L 469.945576 242.03941 
L 473.338705 243.329295 
L 475.035269 241.511254 
L 476.731833 239.89158 
L 478.428398 238.794228 
L 481.821526 237.773577 
L 483.518091 236.974903 
L 485.214655 232.230011 
L 486.911219 223.999211 
L 488.607784 225.454373 
L 492.000912 227.702514 
L 493.697476 228.089004 
L 495.394041 228.341641 
L 497.090605 229.374931 
L 498.787169 232.651744 
L 500.483734 233.590556 
L 502.180298 235.54988 
L 503.876862 237.89677 
L 505.573427 244.804665 
L 507.269991 243.457453 
L 508.966555 240.954384 
L 510.663119 239.573735 
L 512.359684 238.454092 
L 514.056248 237.824097 
L 517.449377 236.750217 
L 519.145941 233.532709 
L 520.842505 229.300278 
L 522.53907 224.607539 
L 524.235634 225.58767 
L 525.932198 227.166997 
L 527.628763 227.878832 
L 529.325327 228.098518 
L 531.021891 228.497577 
L 532.718455 230.395443 
L 534.41502 233.568125 
L 536.111584 233.82413 
L 537.808148 237.120665 
L 539.504713 242.139687 
L 541.201277 243.271656 
L 542.897841 243.611792 
L 544.594406 241.513025 
L 546.29097 239.805991 
L 547.987534 238.625271 
L 553.077227 237.019069 
L 554.773791 232.615494 
L 556.470356 225.241666 
L 558.16692 225.080244 
L 561.560049 227.710778 
L 563.256613 228.089768 
L 564.953177 228.350703 
L 566.649742 228.976774 
L 568.346306 231.888556 
L 570.04287 233.765797 
L 571.739434 234.39048 
L 573.435999 235.750607 
L 575.132563 241.99691 
L 576.829127 243.926095 
L 578.525692 241.404623 
L 581.91882 238.693847 
L 585.311949 237.553231 
L 587.008513 236.75105 
L 588.705078 233.312607 
L 590.401642 228.503723 
L 592.098206 225.615517 
L 593.79477 225.679544 
L 595.491335 227.074186 
L 597.187899 227.769944 
L 598.884463 228.074143 
L 600.581028 228.522681 
L 602.277592 230.431866 
L 603.974156 233.406113 
L 605.670721 233.676562 
L 607.367285 237.110388 
L 609.063849 241.85896 
L 610.760413 243.860506 
L 612.456978 243.875367 
L 614.153542 241.660072 
L 615.850106 239.899636 
L 617.546671 238.594403 
L 620.939799 237.436704 
L 622.636364 236.914799 
L 622.636364 236.914799 
" clip-path="url(#pda2f9b2cec)" style="fill: none; stroke-dasharray: 5.55,2.4; stroke-dashoffset: 0; stroke: #17becf; stroke-opacity: 0.5; stroke-width: 1.5"/>
   </g>
   <g id="patch_3">
    <path d="M 90 256.32 
L 90 34.56 
" style="fill: none; stroke: #000000; stroke-width: 0.8; stroke-linejoin: miter; stroke-linecap: square"/>
   </g>
   <g id="patch_4">
    <path d="M 648 256.32 
L 648 34.56 
" style="fill: none; stroke: #000000; stroke-width: 0.8; stroke-linejoin: miter; stroke-linecap: square"/>
   </g>
   <g id="patch_5">
    <path d="M 90 256.32 
L 648 256.32 
" style="fill: none; stroke: #000000; stroke-width: 0.8; stroke-linejoin: miter; stroke-linecap: square"/>
   </g>
   <g id="patch_6">
    <path d="M 90 34.56 
L 648 34.56 
" style="fill: none; stroke: #000000; stroke-width: 0.8; stroke-linejoin: miter; stroke-linecap: square"/>
   </g>
   <g id="legend_1">
    <g id="patch_7">
     <path d="M 566.573437 189.34125 
L 641 189.34125 
Q 643 189.34125 643 187.34125 
L 643 41.56 
Q 643 39.56 641 39.56 
L 566.573437 39.56 
Q 564.573437 39.56 564.573437 41.56 
L 564.573437 187.34125 
Q 564.573437 189.34125 566.573437 189.34125 
z
" style="fill: #ffffff; opacity: 0.8; stroke: #cccccc; stroke-linejoin: miter"/>
    </g>
    <g id="line2d_24">
     <path d="M 568.573437 47.658437 
L 578.573437 47.658437 
L 588.573437 47.658437 
" style="fill: none; stroke-dasharray: 5.55,2.4; stroke-dashoffset: 0; stroke: #1f77b4; stroke-opacity: 0.5; stroke-width: 1.5"/>
    </g>
    <g id="text_16">
     <!-- Trace 1 -->
     <g transform="translate(596.573437 51.158437) scale(0.1 -0.1)">
      <defs>
       <path id="DejaVuSans-54" d="M -19 4666 
L 3928 4666 
L 3928 4134 
L 2272 4134 
L 2272 0 
L 1638 0 
L 1638 4134 
L -19 4134 
L -19 4666 
z
" transform="scale(0.015625)"/>
       <path id="DejaVuSans-72" d="M 2631 2963 
Q 2534 3019 2420 3045 
Q 2306 3072 2169 3072 
Q 1681 3072 1420 2755 
Q 1159 2438 1159 1844 
L 1159 0 
L 581 0 
L 581 3500 
L 1159 3500 
L 1159 2956 
Q 1341 3275 1631 3429 
Q 1922 3584 2338 3584 
Q 2397 3584 2469 3576 
Q 2541 3569 2628 3553 
L 2631 2963 
z
" transform="scale(0.015625)"/>
       <path id="DejaVuSans-63" d="M 3122 3366 
L 3122 2828 
Q 2878 2963 2633 3030 
Q 2388 3097 2138 3097 
Q 1578 3097 1268 2742 
Q 959 2388 959 1747 
Q 959 1106 1268 751 
Q 1578 397 2138 397 
Q 2388 397 2633 464 
Q 2878 531 3122 666 
L 3122 134 
Q 2881 22 2623 -34 
Q 2366 -91 2075 -91 
Q 1284 -91 818 406 
Q 353 903 353 1747 
Q 353 2603 823 3093 
Q 1294 3584 2113 3584 
Q 2378 3584 2631 3529 
Q 2884 3475 3122 3366 
z
" transform="scale(0.015625)"/>
      </defs>
      <use xlink:href="#DejaVuSans-54"/>
      <use xlink:href="#DejaVuSans-72" x="46.333984"/>
      <use xlink:href="#DejaVuSans-61" x="87.447266"/>
      <use xlink:href="#DejaVuSans-63" x="148.726562"/>
      <use xlink:href="#DejaVuSans-65" x="203.707031"/>
      <use xlink:href="#DejaVuSans-20" x="265.230469"/>
      <use xlink:href="#DejaVuSans-31" x="297.017578"/>
     </g>
    </g>
    <g id="line2d_25">
     <path d="M 568.573437 62.336563 
L 578.573437 62.336563 
L 588.573437 62.336563 
" style="fill: none; stroke-dasharray: 5.55,2.4; stroke-dashoffset: 0; stroke: #ff7f0e; stroke-opacity: 0.5; stroke-width: 1.5"/>
    </g>
    <g id="text_17">
     <!-- Trace 2 -->
     <g transform="translate(596.573437 65.836563) scale(0.1 -0.1)">
      <use xlink:href="#DejaVuSans-54"/>
      <use xlink:href="#DejaVuSans-72" x="46.333984"/>
      <use xlink:href="#DejaVuSans-61" x="87.447266"/>
      <use xlink:href="#DejaVuSans-63" x="148.726562"/>
      <use xlink:href="#DejaVuSans-65" x="203.707031"/>
      <use xlink:href="#DejaVuSans-20" x="265.230469"/>
      <use xlink:href="#DejaVuSans-32" x="297.017578"/>
     </g>
    </g>
    <g id="line2d_26">
     <path d="M 568.573437 77.014688 
L 578.573437 77.014688 
L 588.573437 77.014688 
" style="fill: none; stroke-dasharray: 5.55,2.4; stroke-dashoffset: 0; stroke: #2ca02c; stroke-opacity: 0.5; stroke-width: 1.5"/>
    </g>
    <g id="text_18">
     <!-- Trace 3 -->
     <g transform="translate(596.573437 80.514688) scale(0.1 -0.1)">
      <defs>
       <path id="DejaVuSans-33" d="M 2597 2516 
Q 3050 2419 3304 2112 
Q 3559 1806 3559 1356 
Q 3559 666 3084 287 
Q 2609 -91 1734 -91 
Q 1441 -91 1130 -33 
Q 819 25 488 141 
L 488 750 
Q 750 597 1062 519 
Q 1375 441 1716 441 
Q 2309 441 2620 675 
Q 2931 909 2931 1356 
Q 2931 1769 2642 2001 
Q 2353 2234 1838 2234 
L 1294 2234 
L 1294 2753 
L 1863 2753 
Q 2328 2753 2575 2939 
Q 2822 3125 2822 3475 
Q 2822 3834 2567 4026 
Q 2313 4219 1838 4219 
Q 1578 4219 1281 4162 
Q 984 4106 628 3988 
L 628 4550 
Q 988 4650 1302 4700 
Q 1616 4750 1894 4750 
Q 2613 4750 3031 4423 
Q 3450 4097 3450 3541 
Q 3450 3153 3228 2886 
Q 3006 2619 2597 2516 
z
" transform="scale(0.015625)"/>
      </defs>
      <use xlink:href="#DejaVuSans-54"/>
      <use xlink:href="#DejaVuSans-72" x="46.333984"/>
      <use xlink:href="#DejaVuSans-61" x="87.447266"/>
      <use xlink:href="#DejaVuSans-63" x="148.726562"/>
      <use xlink:href="#DejaVuSans-65" x="203.707031"/>
      <use xlink:href="#DejaVuSans-20" x="265.230469"/>
      <use xlink:href="#DejaVuSans-33" x="297.017578"/>
     </g>
    </g>
    <g id="line2d_27">
     <path d="M 568.573437 91.692813 
L 578.573437 91.692813 
L 588.573437 91.692813 
" style="fill: none; stroke-dasharray: 5.55,2.4; stroke-dashoffset: 0; stroke: #d62728; stroke-opacity: 0.5; stroke-width: 1.5"/>
    </g>
    <g id="text_19">
     <!-- Trace 4 -->
     <g transform="translate(596.573437 95.192813) scale(0.1 -0.1)">
      <use xlink:href="#DejaVuSans-54"/>
      <use xlink:href="#DejaVuSans-72" x="46.333984"/>
      <use xlink:href="#DejaVuSans-61" x="87.447266"/>
      <use xlink:href="#DejaVuSans-63" x="148.726562"/>
      <use xlink:href="#DejaVuSans-65" x="203.707031"/>
      <use xlink:href="#DejaVuSans-20" x="265.230469"/>
      <use xlink:href="#DejaVuSans-34" x="297.017578"/>
     </g>
    </g>
    <g id="line2d_28">
     <path d="M 568.573437 106.370938 
L 578.573437 106.370938 
L 588.573437 106.370938 
" style="fill: none; stroke-dasharray: 5.55,2.4; stroke-dashoffset: 0; stroke: #9467bd; stroke-opacity: 0.5; stroke-width: 1.5"/>
    </g>
    <g id="text_20">
     <!-- Trace 5 -->
     <g transform="translate(596.573437 109.870938) scale(0.1 -0.1)">
      <use xlink:href="#DejaVuSans-54"/>
      <use xlink:href="#DejaVuSans-72" x="46.333984"/>
      <use xlink:href="#DejaVuSans-61" x="87.447266"/>
      <use xlink:href="#DejaVuSans-63" x="148.726562"/>
      <use xlink:href="#DejaVuSans-65" x="203.707031"/>
      <use xlink:href="#DejaVuSans-20" x="265.230469"/>
      <use xlink:href="#DejaVuSans-35" x="297.017578"/>
     </g>
    </g>
    <g id="line2d_29">
     <path d="M 568.573437 121.049062 
L 578.573437 121.049062 
L 588.573437 121.049062 
" style="fill: none; stroke-dasharray: 5.55,2.4; stroke-dashoffset: 0; stroke: #8c564b; stroke-opacity: 0.5; stroke-width: 1.5"/>
    </g>
    <g id="text_21">
     <!-- Trace 6 -->
     <g transform="translate(596.573437 124.549062) scale(0.1 -0.1)">
      <use xlink:href="#DejaVuSans-54"/>
      <use xlink:href="#DejaVuSans-72" x="46.333984"/>
      <use xlink:href="#DejaVuSans-61" x="87.447266"/>
      <use xlink:href="#DejaVuSans-63" x="148.726562"/>
      <use xlink:href="#DejaVuSans-65" x="203.707031"/>
      <use xlink:href="#DejaVuSans-20" x="265.230469"/>
      <use xlink:href="#DejaVuSans-36" x="297.017578"/>
     </g>
    </g>
    <g id="line2d_30">
     <path d="M 568.573437 135.727188 
L 578.573437 135.727188 
L 588.573437 135.727188 
" style="fill: none; stroke-dasharray: 5.55,2.4; stroke-dashoffset: 0; stroke: #e377c2; stroke-opacity: 0.5; stroke-width: 1.5"/>
    </g>
    <g id="text_22">
     <!-- Trace 7 -->
     <g transform="translate(596.573437 139.227188) scale(0.1 -0.1)">
      <use xlink:href="#DejaVuSans-54"/>
      <use xlink:href="#DejaVuSans-72" x="46.333984"/>
      <use xlink:href="#DejaVuSans-61" x="87.447266"/>
      <use xlink:href="#DejaVuSans-63" x="148.726562"/>
      <use xlink:href="#DejaVuSans-65" x="203.707031"/>
      <use xlink:href="#DejaVuSans-20" x="265.230469"/>
      <use xlink:href="#DejaVuSans-37" x="297.017578"/>
     </g>
    </g>
    <g id="line2d_31">
     <path d="M 568.573437 150.405312 
L 578.573437 150.405312 
L 588.573437 150.405312 
" style="fill: none; stroke-dasharray: 5.55,2.4; stroke-dashoffset: 0; stroke: #7f7f7f; stroke-opacity: 0.5; stroke-width: 1.5"/>
    </g>
    <g id="text_23">
     <!-- Trace 8 -->
     <g transform="translate(596.573437 153.905312) scale(0.1 -0.1)">
      <use xlink:href="#DejaVuSans-54"/>
      <use xlink:href="#DejaVuSans-72" x="46.333984"/>
      <use xlink:href="#DejaVuSans-61" x="87.447266"/>
      <use xlink:href="#DejaVuSans-63" x="148.726562"/>
      <use xlink:href="#DejaVuSans-65" x="203.707031"/>
      <use xlink:href="#DejaVuSans-20" x="265.230469"/>
      <use xlink:href="#DejaVuSans-38" x="297.017578"/>
     </g>
    </g>
    <g id="line2d_32">
     <path d="M 568.573437 165.083438 
L 578.573437 165.083438 
L 588.573437 165.083438 
" style="fill: none; stroke-dasharray: 5.55,2.4; stroke-dashoffset: 0; stroke: #bcbd22; stroke-opacity: 0.5; stroke-width: 1.5"/>
    </g>
    <g id="text_24">
     <!-- Trace 9 -->
     <g transform="translate(596.573437 168.583438) scale(0.1 -0.1)">
      <use xlink:href="#DejaVuSans-54"/>
      <use xlink:href="#DejaVuSans-72" x="46.333984"/>
      <use xlink:href="#DejaVuSans-61" x="87.447266"/>
      <use xlink:href="#DejaVuSans-63" x="148.726562"/>
      <use xlink:href="#DejaVuSans-65" x="203.707031"/>
      <use xlink:href="#DejaVuSans-20" x="265.230469"/>
      <use xlink:href="#DejaVuSans-39" x="297.017578"/>
     </g>
    </g>
    <g id="line2d_33">
     <path d="M 568.573437 179.761562 
L 578.573437 179.761562 
L 588.573437 179.761562 
" style="fill: none; stroke-dasharray: 5.55,2.4; stroke-dashoffset: 0; stroke: #17becf; stroke-opacity: 0.5; stroke-width: 1.5"/>
    </g>
    <g id="text_25">
     <!-- Trace 10 -->
     <g transform="translate(596.573437 183.261562) scale(0.1 -0.1)">
      <use xlink:href="#DejaVuSans-54"/>
      <use xlink:href="#DejaVuSans-72" x="46.333984"/>
      <use xlink:href="#DejaVuSans-61" x="87.447266"/>
      <use xlink:href="#DejaVuSans-63" x="148.726562"/>
      <use xlink:href="#DejaVuSans-65" x="203.707031"/>
      <use xlink:href="#DejaVuSans-20" x="265.230469"/>
      <use xlink:href="#DejaVuSans-31" x="297.017578"/>
      <use xlink:href="#DejaVuSans-30" x="360.640625"/>
     </g>
    </g>
   </g>
  </g>
 </g>
 <defs>
  <clipPath id="pda2f9b2cec">
   <rect x="90" y="34.56" width="558" height="221.76"/>
  </clipPath>
 </defs>
</svg>
