<?xml version="1.0" encoding="utf-8" standalone="no"?>
<!DOCTYPE svg PUBLIC "-//W3C//DTD SVG 1.1//EN"
  "http://www.w3.org/Graphics/SVG/1.1/DTD/svg11.dtd">
<svg xmlns:xlink="http://www.w3.org/1999/xlink" width="720pt" height="288pt" viewBox="0 0 720 288" xmlns="http://www.w3.org/2000/svg" version="1.1">
 <metadata>
  <rdf:RDF xmlns:dc="http://purl.org/dc/elements/1.1/" xmlns:cc="http://creativecommons.org/ns#" xmlns:rdf="http://www.w3.org/1999/02/22-rdf-syntax-ns#">
   <cc:Work>
    <dc:type rdf:resource="http://purl.org/dc/dcmitype/StillImage"/>
    <dc:date>2024-01-04T10:42:06.375629</dc:date>
    <dc:format>image/svg+xml</dc:format>
    <dc:creator>
     <cc:Agent>
      <dc:title>Matplotlib v3.6.1, https://matplotlib.org/</dc:title>
     </cc:Agent>
    </dc:creator>
   </cc:Work>
  </rdf:RDF>
 </metadata>
 <defs>
  <style type="text/css">*{stroke-linejoin: round; stroke-linecap: butt}</style>
 </defs>
 <g id="figure_1">
  <g id="patch_1">
   <path d="M 0 288 
L 720 288 
L 720 0 
L 0 0 
z
" style="fill: #ffffff"/>
  </g>
  <g id="axes_1">
   <g id="patch_2">
    <path d="M 90 256.32 
L 648 256.32 
L 648 34.56 
L 90 34.56 
z
" style="fill: #ffffff"/>
   </g>
   <g id="matplotlib.axis_1">
    <g id="xtick_1">
     <g id="line2d_1">
      <defs>
       <path id="m8d586c3af6" d="M 0 0 
L 0 3.5 
" style="stroke: #000000; stroke-width: 0.8"/>
      </defs>
      <g>
       <use xlink:href="#m8d586c3af6" x="157.777744" y="256.32" style="stroke: #000000; stroke-width: 0.8"/>
      </g>
     </g>
     <g id="text_1">
      <!-- 3 -->
      <g transform="translate(154.596494 270.918437) scale(0.1 -0.1)">
       <defs>
        <path id="DejaVuSans-33" d="M 2597 2516 
Q 3050 2419 3304 2112 
Q 3559 1806 3559 1356 
Q 3559 666 3084 287 
Q 2609 -91 1734 -91 
Q 1441 -91 1130 -33 
Q 819 25 488 141 
L 488 750 
Q 750 597 1062 519 
Q 1375 441 1716 441 
Q 2309 441 2620 675 
Q 2931 909 2931 1356 
Q 2931 1769 2642 2001 
Q 2353 2234 1838 2234 
L 1294 2234 
L 1294 2753 
L 1863 2753 
Q 2328 2753 2575 2939 
Q 2822 3125 2822 3475 
Q 2822 3834 2567 4026 
Q 2313 4219 1838 4219 
Q 1578 4219 1281 4162 
Q 984 4106 628 3988 
L 628 4550 
Q 988 4650 1302 4700 
Q 1616 4750 1894 4750 
Q 2613 4750 3031 4423 
Q 3450 4097 3450 3541 
Q 3450 3153 3228 2886 
Q 3006 2619 2597 2516 
z
" transform="scale(0.015625)"/>
       </defs>
       <use xlink:href="#DejaVuSans-33"/>
      </g>
     </g>
    </g>
    <g id="xtick_2">
     <g id="line2d_2">
      <g>
       <use xlink:href="#m8d586c3af6" x="242.605959" y="256.32" style="stroke: #000000; stroke-width: 0.8"/>
      </g>
     </g>
     <g id="text_2">
      <!-- 4 -->
      <g transform="translate(239.424709 270.918437) scale(0.1 -0.1)">
       <defs>
        <path id="DejaVuSans-34" d="M 2419 4116 
L 825 1625 
L 2419 1625 
L 2419 4116 
z
M 2253 4666 
L 3047 4666 
L 3047 1625 
L 3713 1625 
L 3713 1100 
L 3047 1100 
L 3047 0 
L 2419 0 
L 2419 1100 
L 313 1100 
L 313 1709 
L 2253 4666 
z
" transform="scale(0.015625)"/>
       </defs>
       <use xlink:href="#DejaVuSans-34"/>
      </g>
     </g>
    </g>
    <g id="xtick_3">
     <g id="line2d_3">
      <g>
       <use xlink:href="#m8d586c3af6" x="327.434175" y="256.32" style="stroke: #000000; stroke-width: 0.8"/>
      </g>
     </g>
     <g id="text_3">
      <!-- 5 -->
      <g transform="translate(324.252925 270.918437) scale(0.1 -0.1)">
       <defs>
        <path id="DejaVuSans-35" d="M 691 4666 
L 3169 4666 
L 3169 4134 
L 1269 4134 
L 1269 2991 
Q 1406 3038 1543 3061 
Q 1681 3084 1819 3084 
Q 2600 3084 3056 2656 
Q 3513 2228 3513 1497 
Q 3513 744 3044 326 
Q 2575 -91 1722 -91 
Q 1428 -91 1123 -41 
Q 819 9 494 109 
L 494 744 
Q 775 591 1075 516 
Q 1375 441 1709 441 
Q 2250 441 2565 725 
Q 2881 1009 2881 1497 
Q 2881 1984 2565 2268 
Q 2250 2553 1709 2553 
Q 1456 2553 1204 2497 
Q 953 2441 691 2322 
L 691 4666 
z
" transform="scale(0.015625)"/>
       </defs>
       <use xlink:href="#DejaVuSans-35"/>
      </g>
     </g>
    </g>
    <g id="xtick_4">
     <g id="line2d_4">
      <g>
       <use xlink:href="#m8d586c3af6" x="412.26239" y="256.32" style="stroke: #000000; stroke-width: 0.8"/>
      </g>
     </g>
     <g id="text_4">
      <!-- 6 -->
      <g transform="translate(409.08114 270.918437) scale(0.1 -0.1)">
       <defs>
        <path id="DejaVuSans-36" d="M 2113 2584 
Q 1688 2584 1439 2293 
Q 1191 2003 1191 1497 
Q 1191 994 1439 701 
Q 1688 409 2113 409 
Q 2538 409 2786 701 
Q 3034 994 3034 1497 
Q 3034 2003 2786 2293 
Q 2538 2584 2113 2584 
z
M 3366 4563 
L 3366 3988 
Q 3128 4100 2886 4159 
Q 2644 4219 2406 4219 
Q 1781 4219 1451 3797 
Q 1122 3375 1075 2522 
Q 1259 2794 1537 2939 
Q 1816 3084 2150 3084 
Q 2853 3084 3261 2657 
Q 3669 2231 3669 1497 
Q 3669 778 3244 343 
Q 2819 -91 2113 -91 
Q 1303 -91 875 529 
Q 447 1150 447 2328 
Q 447 3434 972 4092 
Q 1497 4750 2381 4750 
Q 2619 4750 2861 4703 
Q 3103 4656 3366 4563 
z
" transform="scale(0.015625)"/>
       </defs>
       <use xlink:href="#DejaVuSans-36"/>
      </g>
     </g>
    </g>
    <g id="xtick_5">
     <g id="line2d_5">
      <g>
       <use xlink:href="#m8d586c3af6" x="497.090605" y="256.32" style="stroke: #000000; stroke-width: 0.8"/>
      </g>
     </g>
     <g id="text_5">
      <!-- 7 -->
      <g transform="translate(493.909355 270.918437) scale(0.1 -0.1)">
       <defs>
        <path id="DejaVuSans-37" d="M 525 4666 
L 3525 4666 
L 3525 4397 
L 1831 0 
L 1172 0 
L 2766 4134 
L 525 4134 
L 525 4666 
z
" transform="scale(0.015625)"/>
       </defs>
       <use xlink:href="#DejaVuSans-37"/>
      </g>
     </g>
    </g>
    <g id="xtick_6">
     <g id="line2d_6">
      <g>
       <use xlink:href="#m8d586c3af6" x="581.91882" y="256.32" style="stroke: #000000; stroke-width: 0.8"/>
      </g>
     </g>
     <g id="text_6">
      <!-- 8 -->
      <g transform="translate(578.73757 270.918437) scale(0.1 -0.1)">
       <defs>
        <path id="DejaVuSans-38" d="M 2034 2216 
Q 1584 2216 1326 1975 
Q 1069 1734 1069 1313 
Q 1069 891 1326 650 
Q 1584 409 2034 409 
Q 2484 409 2743 651 
Q 3003 894 3003 1313 
Q 3003 1734 2745 1975 
Q 2488 2216 2034 2216 
z
M 1403 2484 
Q 997 2584 770 2862 
Q 544 3141 544 3541 
Q 544 4100 942 4425 
Q 1341 4750 2034 4750 
Q 2731 4750 3128 4425 
Q 3525 4100 3525 3541 
Q 3525 3141 3298 2862 
Q 3072 2584 2669 2484 
Q 3125 2378 3379 2068 
Q 3634 1759 3634 1313 
Q 3634 634 3220 271 
Q 2806 -91 2034 -91 
Q 1263 -91 848 271 
Q 434 634 434 1313 
Q 434 1759 690 2068 
Q 947 2378 1403 2484 
z
M 1172 3481 
Q 1172 3119 1398 2916 
Q 1625 2713 2034 2713 
Q 2441 2713 2670 2916 
Q 2900 3119 2900 3481 
Q 2900 3844 2670 4047 
Q 2441 4250 2034 4250 
Q 1625 4250 1398 4047 
Q 1172 3844 1172 3481 
z
" transform="scale(0.015625)"/>
       </defs>
       <use xlink:href="#DejaVuSans-38"/>
      </g>
     </g>
    </g>
    <g id="text_7">
     <!-- X-axis Label -->
     <g transform="translate(338.925 284.596563) scale(0.1 -0.1)">
      <defs>
       <path id="DejaVuSans-58" d="M 403 4666 
L 1081 4666 
L 2241 2931 
L 3406 4666 
L 4084 4666 
L 2584 2425 
L 4184 0 
L 3506 0 
L 2194 1984 
L 872 0 
L 191 0 
L 1856 2491 
L 403 4666 
z
" transform="scale(0.015625)"/>
       <path id="DejaVuSans-2d" d="M 313 2009 
L 1997 2009 
L 1997 1497 
L 313 1497 
L 313 2009 
z
" transform="scale(0.015625)"/>
       <path id="DejaVuSans-61" d="M 2194 1759 
Q 1497 1759 1228 1600 
Q 959 1441 959 1056 
Q 959 750 1161 570 
Q 1363 391 1709 391 
Q 2188 391 2477 730 
Q 2766 1069 2766 1631 
L 2766 1759 
L 2194 1759 
z
M 3341 1997 
L 3341 0 
L 2766 0 
L 2766 531 
Q 2569 213 2275 61 
Q 1981 -91 1556 -91 
Q 1019 -91 701 211 
Q 384 513 384 1019 
Q 384 1609 779 1909 
Q 1175 2209 1959 2209 
L 2766 2209 
L 2766 2266 
Q 2766 2663 2505 2880 
Q 2244 3097 1772 3097 
Q 1472 3097 1187 3025 
Q 903 2953 641 2809 
L 641 3341 
Q 956 3463 1253 3523 
Q 1550 3584 1831 3584 
Q 2591 3584 2966 3190 
Q 3341 2797 3341 1997 
z
" transform="scale(0.015625)"/>
       <path id="DejaVuSans-78" d="M 3513 3500 
L 2247 1797 
L 3578 0 
L 2900 0 
L 1881 1375 
L 863 0 
L 184 0 
L 1544 1831 
L 300 3500 
L 978 3500 
L 1906 2253 
L 2834 3500 
L 3513 3500 
z
" transform="scale(0.015625)"/>
       <path id="DejaVuSans-69" d="M 603 3500 
L 1178 3500 
L 1178 0 
L 603 0 
L 603 3500 
z
M 603 4863 
L 1178 4863 
L 1178 4134 
L 603 4134 
L 603 4863 
z
" transform="scale(0.015625)"/>
       <path id="DejaVuSans-73" d="M 2834 3397 
L 2834 2853 
Q 2591 2978 2328 3040 
Q 2066 3103 1784 3103 
Q 1356 3103 1142 2972 
Q 928 2841 928 2578 
Q 928 2378 1081 2264 
Q 1234 2150 1697 2047 
L 1894 2003 
Q 2506 1872 2764 1633 
Q 3022 1394 3022 966 
Q 3022 478 2636 193 
Q 2250 -91 1575 -91 
Q 1294 -91 989 -36 
Q 684 19 347 128 
L 347 722 
Q 666 556 975 473 
Q 1284 391 1588 391 
Q 1994 391 2212 530 
Q 2431 669 2431 922 
Q 2431 1156 2273 1281 
Q 2116 1406 1581 1522 
L 1381 1569 
Q 847 1681 609 1914 
Q 372 2147 372 2553 
Q 372 3047 722 3315 
Q 1072 3584 1716 3584 
Q 2034 3584 2315 3537 
Q 2597 3491 2834 3397 
z
" transform="scale(0.015625)"/>
       <path id="DejaVuSans-20" transform="scale(0.015625)"/>
       <path id="DejaVuSans-4c" d="M 628 4666 
L 1259 4666 
L 1259 531 
L 3531 531 
L 3531 0 
L 628 0 
L 628 4666 
z
" transform="scale(0.015625)"/>
       <path id="DejaVuSans-62" d="M 3116 1747 
Q 3116 2381 2855 2742 
Q 2594 3103 2138 3103 
Q 1681 3103 1420 2742 
Q 1159 2381 1159 1747 
Q 1159 1113 1420 752 
Q 1681 391 2138 391 
Q 2594 391 2855 752 
Q 3116 1113 3116 1747 
z
M 1159 2969 
Q 1341 3281 1617 3432 
Q 1894 3584 2278 3584 
Q 2916 3584 3314 3078 
Q 3713 2572 3713 1747 
Q 3713 922 3314 415 
Q 2916 -91 2278 -91 
Q 1894 -91 1617 61 
Q 1341 213 1159 525 
L 1159 0 
L 581 0 
L 581 4863 
L 1159 4863 
L 1159 2969 
z
" transform="scale(0.015625)"/>
       <path id="DejaVuSans-65" d="M 3597 1894 
L 3597 1613 
L 953 1613 
Q 991 1019 1311 708 
Q 1631 397 2203 397 
Q 2534 397 2845 478 
Q 3156 559 3463 722 
L 3463 178 
Q 3153 47 2828 -22 
Q 2503 -91 2169 -91 
Q 1331 -91 842 396 
Q 353 884 353 1716 
Q 353 2575 817 3079 
Q 1281 3584 2069 3584 
Q 2775 3584 3186 3129 
Q 3597 2675 3597 1894 
z
M 3022 2063 
Q 3016 2534 2758 2815 
Q 2500 3097 2075 3097 
Q 1594 3097 1305 2825 
Q 1016 2553 972 2059 
L 3022 2063 
z
" transform="scale(0.015625)"/>
       <path id="DejaVuSans-6c" d="M 603 4863 
L 1178 4863 
L 1178 0 
L 603 0 
L 603 4863 
z
" transform="scale(0.015625)"/>
      </defs>
      <use xlink:href="#DejaVuSans-58"/>
      <use xlink:href="#DejaVuSans-2d" x="63.505859"/>
      <use xlink:href="#DejaVuSans-61" x="99.589844"/>
      <use xlink:href="#DejaVuSans-78" x="160.869141"/>
      <use xlink:href="#DejaVuSans-69" x="220.048828"/>
      <use xlink:href="#DejaVuSans-73" x="247.832031"/>
      <use xlink:href="#DejaVuSans-20" x="299.931641"/>
      <use xlink:href="#DejaVuSans-4c" x="331.71875"/>
      <use xlink:href="#DejaVuSans-61" x="387.431641"/>
      <use xlink:href="#DejaVuSans-62" x="448.710938"/>
      <use xlink:href="#DejaVuSans-65" x="512.1875"/>
      <use xlink:href="#DejaVuSans-6c" x="573.710938"/>
     </g>
    </g>
   </g>
   <g id="matplotlib.axis_2">
    <g id="ytick_1">
     <g id="line2d_7">
      <defs>
       <path id="m5af52d8073" d="M 0 0 
L -3.5 0 
" style="stroke: #000000; stroke-width: 0.8"/>
      </defs>
      <g>
       <use xlink:href="#m5af52d8073" x="90" y="252.799957" style="stroke: #000000; stroke-width: 0.8"/>
      </g>
     </g>
     <g id="text_8">
      <!-- −10 -->
      <g transform="translate(61.895313 256.599176) scale(0.1 -0.1)">
       <defs>
        <path id="DejaVuSans-2212" d="M 678 2272 
L 4684 2272 
L 4684 1741 
L 678 1741 
L 678 2272 
z
" transform="scale(0.015625)"/>
        <path id="DejaVuSans-31" d="M 794 531 
L 1825 531 
L 1825 4091 
L 703 3866 
L 703 4441 
L 1819 4666 
L 2450 4666 
L 2450 531 
L 3481 531 
L 3481 0 
L 794 0 
L 794 531 
z
" transform="scale(0.015625)"/>
        <path id="DejaVuSans-30" d="M 2034 4250 
Q 1547 4250 1301 3770 
Q 1056 3291 1056 2328 
Q 1056 1369 1301 889 
Q 1547 409 2034 409 
Q 2525 409 2770 889 
Q 3016 1369 3016 2328 
Q 3016 3291 2770 3770 
Q 2525 4250 2034 4250 
z
M 2034 4750 
Q 2819 4750 3233 4129 
Q 3647 3509 3647 2328 
Q 3647 1150 3233 529 
Q 2819 -91 2034 -91 
Q 1250 -91 836 529 
Q 422 1150 422 2328 
Q 422 3509 836 4129 
Q 1250 4750 2034 4750 
z
" transform="scale(0.015625)"/>
       </defs>
       <use xlink:href="#DejaVuSans-2212"/>
       <use xlink:href="#DejaVuSans-31" x="83.789062"/>
       <use xlink:href="#DejaVuSans-30" x="147.412109"/>
      </g>
     </g>
    </g>
    <g id="ytick_2">
     <g id="line2d_8">
      <g>
       <use xlink:href="#m5af52d8073" x="90" y="213.383524" style="stroke: #000000; stroke-width: 0.8"/>
      </g>
     </g>
     <g id="text_9">
      <!-- −8 -->
      <g transform="translate(68.257812 217.182742) scale(0.1 -0.1)">
       <use xlink:href="#DejaVuSans-2212"/>
       <use xlink:href="#DejaVuSans-38" x="83.789062"/>
      </g>
     </g>
    </g>
    <g id="ytick_3">
     <g id="line2d_9">
      <g>
       <use xlink:href="#m5af52d8073" x="90" y="173.96709" style="stroke: #000000; stroke-width: 0.8"/>
      </g>
     </g>
     <g id="text_10">
      <!-- −6 -->
      <g transform="translate(68.257812 177.766309) scale(0.1 -0.1)">
       <use xlink:href="#DejaVuSans-2212"/>
       <use xlink:href="#DejaVuSans-36" x="83.789062"/>
      </g>
     </g>
    </g>
    <g id="ytick_4">
     <g id="line2d_10">
      <g>
       <use xlink:href="#m5af52d8073" x="90" y="134.550657" style="stroke: #000000; stroke-width: 0.8"/>
      </g>
     </g>
     <g id="text_11">
      <!-- −4 -->
      <g transform="translate(68.257812 138.349876) scale(0.1 -0.1)">
       <use xlink:href="#DejaVuSans-2212"/>
       <use xlink:href="#DejaVuSans-34" x="83.789062"/>
      </g>
     </g>
    </g>
    <g id="ytick_5">
     <g id="line2d_11">
      <g>
       <use xlink:href="#m5af52d8073" x="90" y="95.134224" style="stroke: #000000; stroke-width: 0.8"/>
      </g>
     </g>
     <g id="text_12">
      <!-- −2 -->
      <g transform="translate(68.257812 98.933443) scale(0.1 -0.1)">
       <defs>
        <path id="DejaVuSans-32" d="M 1228 531 
L 3431 531 
L 3431 0 
L 469 0 
L 469 531 
Q 828 903 1448 1529 
Q 2069 2156 2228 2338 
Q 2531 2678 2651 2914 
Q 2772 3150 2772 3378 
Q 2772 3750 2511 3984 
Q 2250 4219 1831 4219 
Q 1534 4219 1204 4116 
Q 875 4013 500 3803 
L 500 4441 
Q 881 4594 1212 4672 
Q 1544 4750 1819 4750 
Q 2544 4750 2975 4387 
Q 3406 4025 3406 3419 
Q 3406 3131 3298 2873 
Q 3191 2616 2906 2266 
Q 2828 2175 2409 1742 
Q 1991 1309 1228 531 
z
" transform="scale(0.015625)"/>
       </defs>
       <use xlink:href="#DejaVuSans-2212"/>
       <use xlink:href="#DejaVuSans-32" x="83.789062"/>
      </g>
     </g>
    </g>
    <g id="ytick_6">
     <g id="line2d_12">
      <g>
       <use xlink:href="#m5af52d8073" x="90" y="55.71779" style="stroke: #000000; stroke-width: 0.8"/>
      </g>
     </g>
     <g id="text_13">
      <!-- 0 -->
      <g transform="translate(76.6375 59.517009) scale(0.1 -0.1)">
       <use xlink:href="#DejaVuSans-30"/>
      </g>
     </g>
    </g>
    <g id="text_14">
     <!-- Y-axis Label -->
     <g transform="translate(55.815625 174.800156) rotate(-90) scale(0.1 -0.1)">
      <defs>
       <path id="DejaVuSans-59" d="M -13 4666 
L 666 4666 
L 1959 2747 
L 3244 4666 
L 3922 4666 
L 2272 2222 
L 2272 0 
L 1638 0 
L 1638 2222 
L -13 4666 
z
" transform="scale(0.015625)"/>
      </defs>
      <use xlink:href="#DejaVuSans-59"/>
      <use xlink:href="#DejaVuSans-2d" x="49.208984"/>
      <use xlink:href="#DejaVuSans-61" x="85.292969"/>
      <use xlink:href="#DejaVuSans-78" x="146.572266"/>
      <use xlink:href="#DejaVuSans-69" x="205.751953"/>
      <use xlink:href="#DejaVuSans-73" x="233.535156"/>
      <use xlink:href="#DejaVuSans-20" x="285.634766"/>
      <use xlink:href="#DejaVuSans-4c" x="317.421875"/>
      <use xlink:href="#DejaVuSans-61" x="373.134766"/>
      <use xlink:href="#DejaVuSans-62" x="434.414062"/>
      <use xlink:href="#DejaVuSans-65" x="497.890625"/>
      <use xlink:href="#DejaVuSans-6c" x="559.414062"/>
     </g>
    </g>
   </g>
   <g id="line2d_13">
    <path d="M 115.363636 53.802726 
L 117.060201 49.795107 
L 118.756765 48.22909 
L 120.453329 46.186626 
L 122.149894 46.580419 
L 123.846458 47.895439 
L 125.543022 48.830795 
L 128.936151 49.683717 
L 130.632715 50.306303 
L 132.329279 51.748375 
L 134.025844 57.476408 
L 135.722408 62.140764 
L 137.418972 61.490147 
L 139.115537 59.818716 
L 140.812101 58.491376 
L 144.20523 57.788688 
L 145.901794 57.201025 
L 147.598358 55.594874 
L 149.294922 54.436985 
L 150.991487 51.966955 
L 152.688051 49.154952 
L 154.384615 45.509207 
L 156.08118 46.486971 
L 157.777744 48.034135 
L 159.474308 48.910851 
L 161.170873 49.390707 
L 162.867437 49.690197 
L 166.260566 50.984035 
L 171.350258 63.072255 
L 173.046823 61.421614 
L 174.743387 59.560049 
L 176.439951 58.407366 
L 179.83308 57.489149 
L 181.529644 56.2916 
L 183.226209 54.551374 
L 184.922773 53.43418 
L 186.619337 49.831541 
L 188.315901 49.635982 
L 190.012466 46.530292 
L 191.70903 46.980768 
L 193.405594 48.156798 
L 195.102159 48.932615 
L 196.798723 49.243897 
L 200.191852 50.648763 
L 201.888416 54.030007 
L 203.58498 56.399545 
L 205.281545 61.746567 
L 206.978109 61.035757 
L 210.371237 58.359378 
L 213.764366 57.738221 
L 215.46093 57.028173 
L 217.157495 55.436448 
L 218.854059 54.28338 
L 220.550623 51.068606 
L 222.247188 48.599224 
L 223.943752 44.954088 
L 225.640316 46.033066 
L 227.336881 47.739825 
L 229.033445 48.869217 
L 230.730009 49.460067 
L 232.426573 49.850775 
L 234.123138 50.36776 
L 235.819702 51.03596 
L 237.516266 55.083034 
L 239.212831 58.43892 
L 240.909395 62.890324 
L 244.302524 59.580447 
L 245.999088 58.438787 
L 249.392216 57.622141 
L 251.088781 56.567826 
L 252.785345 54.928088 
L 254.481909 54.087236 
L 257.875038 46.802199 
L 259.571602 45.726998 
L 261.268167 46.363355 
L 262.964731 47.856619 
L 264.661295 48.85844 
L 268.054424 49.617577 
L 269.750988 50.122263 
L 271.447552 51.393196 
L 273.144117 56.686379 
L 274.840681 61.2988 
L 276.537245 60.836054 
L 278.23381 59.923372 
L 279.930374 58.788159 
L 285.020067 57.582105 
L 288.413196 54.788875 
L 290.10976 53.138423 
L 291.806324 49.385018 
L 293.502888 48.539934 
L 295.199453 46.701744 
L 296.896017 47.203902 
L 298.592581 48.239159 
L 300.289146 49.023474 
L 301.98571 49.317231 
L 305.378839 50.50374 
L 307.075403 52.661618 
L 308.771967 58.76362 
L 310.468531 63.004997 
L 313.86166 59.416915 
L 315.558224 58.209254 
L 318.951353 57.6159 
L 320.647917 56.75026 
L 322.344482 55.046132 
L 324.041046 53.928767 
L 325.73761 50.48372 
L 327.434175 47.370406 
L 329.130739 46.311537 
L 330.827303 48.684676 
L 332.523867 50.773485 
L 334.220432 54.525637 
L 335.916996 57.035412 
L 337.61356 53.279831 
L 339.310125 52.861565 
L 341.006689 54.696202 
L 342.703253 54.245532 
L 344.399818 54.985487 
L 346.096382 54.479804 
L 349.48951 55.661086 
L 351.186075 57.157463 
L 352.882639 57.802987 
L 354.579203 58.61324 
L 356.275768 58.269752 
L 357.972332 54.381625 
L 359.668896 54.364918 
L 361.365461 59.509808 
L 363.062025 56.808204 
L 364.758589 52.890849 
L 366.455154 59.413894 
L 368.151718 52.632145 
L 369.848282 52.89555 
L 371.544846 51.016109 
L 373.241411 55.528422 
L 374.937975 60.369728 
L 376.634539 63.945465 
L 378.331104 56.502809 
L 380.027668 58.261092 
L 381.724232 60.817107 
L 383.420797 61.120244 
L 385.117361 57.737328 
L 386.813925 49.821803 
L 388.51049 46.693394 
L 390.207054 44.64 
L 391.903618 47.197777 
L 393.600182 48.17445 
L 395.296747 48.8195 
L 396.993311 49.661585 
L 400.38644 52.041744 
L 402.083004 52.824483 
L 403.779568 56.610137 
L 405.476133 59.196666 
L 407.172697 64.147741 
L 408.869261 61.770434 
L 410.565825 60.568092 
L 412.26239 59.510783 
L 413.958954 58.600454 
L 415.655518 56.395535 
L 417.352083 54.563707 
L 419.048647 50.5655 
L 420.745211 47.79514 
L 422.441776 46.043313 
L 424.13834 45.962269 
L 427.531469 48.320778 
L 430.924597 49.504522 
L 432.621161 49.843316 
L 434.317726 50.430845 
L 436.01429 51.163578 
L 437.710854 55.570198 
L 439.407419 60.471854 
L 441.103983 60.978692 
L 442.800547 60.499584 
L 444.497112 59.303165 
L 446.193676 58.51805 
L 449.586804 57.684125 
L 454.676497 53.469581 
L 456.373062 49.775809 
L 458.069626 49.89457 
L 459.76619 46.729783 
L 461.462755 47.312443 
L 463.159319 48.440816 
L 464.855883 49.137558 
L 466.552448 49.4439 
L 469.945576 50.719151 
L 471.64214 52.799882 
L 473.338705 58.775663 
L 475.035269 63.188501 
L 476.731833 60.901337 
L 478.428398 59.461716 
L 480.124962 58.339682 
L 483.518091 57.649459 
L 485.214655 56.702567 
L 486.911219 55.034731 
L 488.607784 53.933624 
L 490.304348 50.043283 
L 492.000912 46.503971 
L 493.697476 45.871211 
L 495.394041 46.254087 
L 497.090605 47.687151 
L 498.787169 48.766165 
L 500.483734 49.286344 
L 502.180298 49.595839 
L 503.876862 50.131629 
L 505.573427 50.905296 
L 508.966555 60.378229 
L 510.663119 60.102065 
L 512.359684 60.282469 
L 514.056248 59.018921 
L 515.752812 58.577027 
L 517.449377 58.262823 
L 519.145941 57.807689 
L 520.842505 56.530082 
L 522.53907 54.912015 
L 524.235634 53.466086 
L 525.932198 49.337372 
L 527.628763 46.352286 
L 529.325327 45.907679 
L 531.021891 46.275432 
L 532.718455 47.55634 
L 534.41502 48.69171 
L 537.808148 49.684012 
L 539.504713 50.288756 
L 541.201277 51.779519 
L 542.897841 57.622555 
L 544.594406 62.479019 
L 546.29097 61.470568 
L 547.987534 59.802138 
L 549.684099 58.591941 
L 554.773791 57.19312 
L 556.470356 55.602262 
L 558.16692 54.469236 
L 559.863484 52.020015 
L 561.560049 49.096909 
L 563.256613 45.397284 
L 564.953177 46.498498 
L 566.649742 48.116038 
L 568.346306 48.966479 
L 570.04287 49.430525 
L 571.739434 49.729938 
L 575.132563 51.027072 
L 576.829127 55.114469 
L 578.525692 58.72424 
L 580.222256 61.148501 
L 581.91882 60.973348 
L 583.615385 59.436722 
L 585.311949 58.588979 
L 587.008513 58.260667 
L 588.705078 57.744544 
L 590.401642 56.721499 
L 592.098206 54.850467 
L 593.79477 53.689905 
L 595.491335 49.769691 
L 597.187899 46.75879 
L 598.884463 45.910098 
L 600.581028 46.163767 
L 602.277592 47.530788 
L 603.974156 48.626033 
L 607.367285 49.426801 
L 609.063849 50.057863 
L 610.760413 51.467365 
L 612.456978 57.630333 
L 614.153542 62.32321 
L 615.850106 60.743665 
L 619.243235 58.710786 
L 622.636364 57.917594 
L 622.636364 57.917594 
" clip-path="url(#p4ac117d338)" style="fill: none; stroke: #1f77b4; stroke-width: 1.5; stroke-linecap: square"/>
   </g>
   <g id="line2d_14">
    <path d="M 115.363636 74.498489 
L 117.060201 75.094912 
L 120.453329 75.408983 
L 125.543022 75.383247 
L 128.936151 75.534653 
L 130.632715 75.805531 
L 132.329279 76.625054 
L 134.025844 76.818711 
L 135.722408 75.871555 
L 137.418972 75.612585 
L 140.812101 75.506282 
L 145.901794 75.118944 
L 149.294922 74.622961 
L 150.991487 74.819815 
L 152.688051 75.171476 
L 156.08118 75.371601 
L 161.170873 75.386792 
L 164.564001 75.59508 
L 166.260566 76.075468 
L 167.95713 76.427636 
L 169.653694 75.952858 
L 171.350258 75.597986 
L 179.83308 75.000515 
L 181.529644 74.816915 
L 183.226209 74.451376 
L 184.922773 74.473637 
L 186.619337 75.064346 
L 188.315901 75.133067 
L 190.012466 75.422918 
L 195.102159 75.410147 
L 198.495287 75.606975 
L 200.191852 76.031157 
L 201.888416 76.652373 
L 203.58498 76.86131 
L 205.281545 75.747963 
L 206.978109 75.562994 
L 210.371237 75.488759 
L 215.46093 75.035294 
L 218.854059 74.498003 
L 220.550623 74.920769 
L 225.640316 75.369089 
L 232.426573 75.461844 
L 234.123138 75.624911 
L 235.819702 76.136618 
L 237.516266 76.511132 
L 240.909395 75.648122 
L 251.088781 75.000153 
L 252.785345 74.721097 
L 254.481909 74.593355 
L 256.178474 75.047606 
L 257.875038 75.278357 
L 261.268167 75.360233 
L 266.35786 75.428697 
L 268.054424 75.521145 
L 269.750988 75.753805 
L 271.447552 76.510299 
L 273.144117 76.732243 
L 274.840681 75.87418 
L 276.537245 75.673661 
L 283.323503 75.317265 
L 286.716631 75.033268 
L 288.413196 74.749808 
L 290.10976 74.726809 
L 293.502888 75.371786 
L 295.199453 75.444805 
L 298.592581 75.374466 
L 301.98571 75.442584 
L 303.682274 75.56262 
L 305.378839 75.90744 
L 307.075403 76.681759 
L 308.771967 76.862808 
L 310.468531 75.889121 
L 312.165096 75.569107 
L 313.86166 75.589028 
L 318.951353 75.199452 
L 320.647917 75.034436 
L 324.041046 74.583329 
L 325.73761 75.008561 
L 327.434175 75.304366 
L 329.130739 75.364941 
L 330.827303 81.182187 
L 332.523867 95.399078 
L 334.220432 83.816513 
L 335.916996 78.810893 
L 337.61356 81.195661 
L 339.310125 80.574707 
L 341.006689 81.877065 
L 342.703253 79.014262 
L 344.399818 74.64171 
L 346.096382 78.585371 
L 347.792946 77.890288 
L 349.48951 75.514404 
L 352.882639 77.991273 
L 354.579203 73.861744 
L 357.972332 74.124767 
L 359.668896 75.396628 
L 361.365461 76.345487 
L 363.062025 77.42376 
L 364.758589 77.405394 
L 366.455154 76.08558 
L 368.151718 75.637509 
L 369.848282 75.632868 
L 371.544846 75.760626 
L 374.937975 77.343056 
L 376.634539 77.057666 
L 378.331104 76.198623 
L 380.027668 76.594679 
L 381.724232 75.94718 
L 383.420797 75.820848 
L 385.117361 75.19769 
L 386.813925 75.125976 
L 388.51049 74.796886 
L 390.207054 73.967204 
L 396.993311 74.904371 
L 400.38644 75.25899 
L 403.779568 75.692645 
L 405.476133 75.65029 
L 407.172697 75.404054 
L 408.869261 75.475681 
L 412.26239 75.197656 
L 417.352083 74.434552 
L 419.048647 74.985309 
L 420.745211 75.263851 
L 425.834904 75.307901 
L 432.621161 75.403976 
L 434.317726 75.551503 
L 436.01429 76.052097 
L 437.710854 76.401318 
L 439.407419 76.528907 
L 441.103983 75.680088 
L 446.193676 75.329578 
L 451.283369 74.929045 
L 452.979933 74.615162 
L 454.676497 74.605439 
L 456.373062 75.044958 
L 459.76619 75.413176 
L 464.855883 75.386983 
L 468.249012 75.546825 
L 469.945576 75.863319 
L 471.64214 76.605256 
L 473.338705 76.752652 
L 475.035269 75.848783 
L 476.731833 75.596713 
L 480.124962 75.477605 
L 485.214655 75.081569 
L 486.911219 74.769452 
L 488.607784 74.617688 
L 490.304348 75.086601 
L 492.000912 75.309349 
L 495.394041 75.356462 
L 502.180298 75.502918 
L 503.876862 75.706442 
L 505.573427 76.326892 
L 507.269991 76.655433 
L 508.966555 75.950184 
L 512.359684 75.621378 
L 524.235634 74.611211 
L 525.932198 75.109294 
L 531.021891 75.355702 
L 536.111584 75.427345 
L 537.808148 75.524706 
L 539.504713 75.792863 
L 541.201277 76.621563 
L 542.897841 76.806761 
L 544.594406 75.834202 
L 546.29097 75.607599 
L 551.380663 75.398493 
L 554.773791 75.13973 
L 558.16692 74.616076 
L 559.863484 74.824289 
L 561.560049 75.175105 
L 564.953177 75.374472 
L 570.04287 75.389202 
L 573.435999 75.602767 
L 575.132563 76.092454 
L 576.829127 76.44214 
L 580.222256 75.55813 
L 583.615385 75.408258 
L 590.401642 74.77526 
L 592.098206 74.448719 
L 593.79477 74.364237 
L 595.491335 75.000884 
L 597.187899 75.234268 
L 600.581028 75.323282 
L 607.367285 75.509529 
L 609.063849 75.77361 
L 610.760413 76.585701 
L 612.456978 76.811969 
L 614.153542 75.810191 
L 615.850106 75.55253 
L 620.939799 75.369209 
L 622.636364 75.255764 
L 622.636364 75.255764 
" clip-path="url(#p4ac117d338)" style="fill: none; stroke: #ff7f0e; stroke-width: 1.5; stroke-linecap: square"/>
   </g>
   <g id="line2d_15">
    <path d="M 115.363636 95.223749 
L 118.756765 95.457921 
L 120.453329 95.158651 
L 128.936151 95.099728 
L 130.632715 95.025418 
L 132.329279 94.825603 
L 134.025844 94.905733 
L 135.722408 95.280688 
L 137.418972 95.143874 
L 147.598358 95.208449 
L 149.294922 95.328173 
L 150.991487 94.95671 
L 152.688051 97.258223 
L 154.384615 95.231962 
L 157.777744 95.155431 
L 164.564001 95.007439 
L 167.95713 94.776557 
L 169.653694 95.434101 
L 171.350258 94.932861 
L 173.046823 95.149582 
L 179.83308 95.200725 
L 184.922773 95.149997 
L 186.619337 95.62514 
L 188.315901 95.595422 
L 190.012466 95.133163 
L 193.405594 95.158493 
L 200.191852 94.962093 
L 201.888416 94.799765 
L 203.58498 95.755689 
L 205.281545 95.633415 
L 206.978109 95.140866 
L 218.854059 95.337956 
L 220.550623 94.947324 
L 222.247188 97.019527 
L 223.943752 95.358155 
L 225.640316 95.088745 
L 229.033445 95.141675 
L 234.123138 95.000169 
L 235.819702 94.826746 
L 237.516266 94.769426 
L 239.212831 95.509672 
L 240.909395 94.957428 
L 242.605959 95.162567 
L 249.392216 95.187472 
L 256.178474 95.210828 
L 257.875038 95.707153 
L 259.571602 95.293795 
L 261.268167 95.150677 
L 266.35786 95.115332 
L 269.750988 95.034975 
L 271.447552 94.852906 
L 273.144117 94.848572 
L 274.840681 95.308477 
L 278.23381 95.133142 
L 286.716631 95.266317 
L 288.413196 95.381191 
L 290.10976 95.08983 
L 291.806324 96.006403 
L 293.502888 94.965601 
L 295.199453 95.136922 
L 300.289146 95.124712 
L 305.378839 95.011898 
L 307.075403 94.823258 
L 308.771967 95.213541 
L 310.468531 95.384801 
L 312.165096 95.182639 
L 322.344482 95.185477 
L 324.041046 95.251048 
L 325.73761 95.077714 
L 327.434175 95.411412 
L 329.130739 95.173312 
L 330.827303 95.09061 
L 334.220432 95.19633 
L 335.916996 97.024213 
L 337.61356 96.04294 
L 341.006689 100.030761 
L 342.703253 100.467698 
L 344.399818 101.125955 
L 346.096382 96.905151 
L 347.792946 101.674451 
L 349.48951 102.946547 
L 351.186075 104.617817 
L 352.882639 101.287127 
L 354.579203 101.718262 
L 356.275768 91.420891 
L 359.668896 96.589304 
L 361.365461 94.706013 
L 363.062025 100.286642 
L 364.758589 95.573589 
L 366.455154 97.554608 
L 368.151718 99.210499 
L 369.848282 99.64734 
L 371.544846 96.892914 
L 373.241411 96.254884 
L 374.937975 96.747532 
L 376.634539 100.087916 
L 378.331104 92.329059 
L 381.724232 94.761611 
L 383.420797 96.166995 
L 385.117361 95.016973 
L 386.813925 95.161408 
L 388.51049 92.58814 
L 390.207054 92.266269 
L 391.903618 93.358188 
L 393.600182 94.843007 
L 395.296747 95.076762 
L 396.993311 95.042006 
L 398.689875 94.711455 
L 400.38644 94.004267 
L 402.083004 93.446086 
L 403.779568 94.690317 
L 405.476133 95.005425 
L 407.172697 95.755911 
L 415.655518 95.4584 
L 417.352083 95.528965 
L 419.048647 94.451262 
L 420.745211 94.869385 
L 422.441776 95.039547 
L 424.13834 94.993322 
L 425.834904 95.117055 
L 434.317726 95.006733 
L 437.710854 94.847729 
L 439.407419 96.516429 
L 441.103983 95.202638 
L 444.497112 95.171332 
L 452.979933 95.308787 
L 454.676497 95.096987 
L 456.373062 95.811198 
L 459.76619 95.130269 
L 463.159319 95.162898 
L 469.945576 94.993871 
L 471.64214 94.829982 
L 475.035269 95.409944 
L 476.731833 95.135964 
L 488.607784 95.245112 
L 490.304348 95.128335 
L 492.000912 95.554766 
L 493.697476 95.247988 
L 497.090605 95.179097 
L 503.876862 95.035548 
L 507.269991 94.811299 
L 508.966555 95.365363 
L 510.663119 95.189792 
L 514.056248 95.142215 
L 525.932198 95.435095 
L 527.628763 95.549917 
L 529.325327 95.150952 
L 539.504713 95.000788 
L 541.201277 94.802077 
L 542.897841 94.919359 
L 544.594406 95.256869 
L 546.29097 95.135216 
L 558.16692 95.317029 
L 559.863484 94.963342 
L 561.560049 97.306133 
L 563.256613 95.253769 
L 564.953177 95.127089 
L 570.04287 95.101385 
L 573.435999 95.010455 
L 576.829127 94.777269 
L 578.525692 95.428846 
L 580.222256 95.124295 
L 587.008513 95.224532 
L 593.79477 95.239314 
L 595.491335 95.181106 
L 597.187899 95.278064 
L 600.581028 95.159544 
L 607.367285 95.095703 
L 609.063849 95.026919 
L 610.760413 94.822815 
L 612.456978 94.927052 
L 614.153542 95.247105 
L 617.546671 95.138485 
L 622.636364 95.131417 
L 622.636364 95.131417 
" clip-path="url(#p4ac117d338)" style="fill: none; stroke: #2ca02c; stroke-width: 1.5; stroke-linecap: square"/>
   </g>
   <g id="line2d_16">
    <path d="M 115.363636 114.362244 
L 117.060201 115.359727 
L 118.756765 113.36972 
L 120.453329 116.327322 
L 125.543022 114.429072 
L 127.239587 114.147814 
L 128.936151 114.035643 
L 130.632715 114.222894 
L 132.329279 114.6138 
L 134.025844 114.631073 
L 135.722408 115.692128 
L 137.418972 114.774158 
L 142.508665 114.82673 
L 147.598358 114.591384 
L 149.294922 114.343015 
L 150.991487 114.743663 
L 152.688051 116.24739 
L 154.384615 114.912932 
L 156.08118 115.450643 
L 157.777744 114.740086 
L 159.474308 114.439509 
L 162.867437 114.192978 
L 164.564001 114.262523 
L 166.260566 114.530427 
L 167.95713 114.463354 
L 169.653694 114.841713 
L 171.350258 114.508061 
L 173.046823 114.779049 
L 176.439951 114.831929 
L 179.83308 114.723448 
L 184.922773 114.341319 
L 186.619337 115.407138 
L 188.315901 113.854612 
L 190.012466 116.366848 
L 193.405594 114.822842 
L 195.102159 114.401636 
L 196.798723 114.143032 
L 198.495287 114.086578 
L 200.191852 114.365289 
L 201.888416 114.500332 
L 203.58498 114.908876 
L 205.281545 115.450338 
L 206.978109 114.775909 
L 210.371237 114.840053 
L 213.764366 114.730203 
L 218.854059 114.276723 
L 220.550623 115.000529 
L 222.247188 115.965876 
L 223.943752 114.742769 
L 225.640316 115.424259 
L 229.033445 114.543898 
L 232.426573 114.173761 
L 234.123138 114.217244 
L 235.819702 114.518316 
L 237.516266 114.489553 
L 239.212831 114.768468 
L 240.909395 114.560699 
L 242.605959 114.787758 
L 245.999088 114.835962 
L 249.392216 114.751401 
L 254.481909 114.282236 
L 256.178474 115.118715 
L 257.875038 114.032038 
L 259.571602 115.836276 
L 264.661295 114.473842 
L 266.35786 114.188781 
L 268.054424 114.081427 
L 269.750988 114.228998 
L 271.447552 114.619391 
L 273.144117 114.560007 
L 274.840681 115.518691 
L 276.537245 114.786016 
L 283.323503 114.796959 
L 285.020067 114.656649 
L 286.716631 114.637782 
L 288.413196 114.391116 
L 290.10976 114.535368 
L 291.806324 115.551421 
L 293.502888 113.61694 
L 295.199453 116.834448 
L 296.896017 115.47246 
L 298.592581 114.778357 
L 300.289146 114.324922 
L 301.98571 114.090825 
L 303.682274 114.05485 
L 308.771967 114.819468 
L 310.468531 115.457037 
L 312.165096 114.804834 
L 317.254789 114.818597 
L 322.344482 114.47609 
L 324.041046 114.317763 
L 325.73761 115.063357 
L 327.434175 113.884019 
L 329.130739 115.966865 
L 330.827303 114.718096 
L 332.523867 116.081848 
L 334.220432 115.75181 
L 335.916996 114.751409 
L 339.310125 115.710302 
L 341.006689 116.271206 
L 342.703253 115.911651 
L 344.399818 115.941897 
L 346.096382 117.611262 
L 347.792946 115.712393 
L 349.48951 115.195198 
L 351.186075 114.358241 
L 352.882639 114.687148 
L 354.579203 117.402899 
L 356.275768 117.176086 
L 357.972332 118.969592 
L 359.668896 118.486824 
L 361.365461 115.933507 
L 363.062025 116.436047 
L 364.758589 112.210896 
L 366.455154 112.80404 
L 368.151718 113.688698 
L 369.848282 115.098508 
L 371.544846 115.914671 
L 373.241411 115.054714 
L 374.937975 114.59288 
L 376.634539 113.807839 
L 378.331104 113.856852 
L 380.027668 114.07839 
L 381.724232 115.359199 
L 383.420797 114.209446 
L 385.117361 115.388186 
L 386.813925 113.396794 
L 388.51049 112.199082 
L 391.903618 114.769631 
L 393.600182 116.529267 
L 395.296747 116.306924 
L 396.993311 115.434403 
L 398.689875 115.318432 
L 400.38644 114.813988 
L 403.779568 114.794625 
L 405.476133 115.118208 
L 407.172697 114.873098 
L 413.958954 114.792234 
L 415.655518 114.910466 
L 417.352083 114.623452 
L 419.048647 115.059303 
L 420.745211 113.856963 
L 422.441776 115.621423 
L 424.13834 115.32158 
L 425.834904 115.496882 
L 427.531469 115.090184 
L 429.228033 114.532177 
L 432.621161 113.935926 
L 434.317726 113.908216 
L 436.01429 114.348847 
L 437.710854 114.346359 
L 439.407419 114.861837 
L 441.103983 114.764907 
L 446.193676 114.849158 
L 449.586804 114.748558 
L 451.283369 114.672165 
L 452.979933 114.408998 
L 454.676497 114.417812 
L 456.373062 115.453591 
L 458.069626 114.011256 
L 459.76619 116.156807 
L 461.462755 115.680114 
L 463.159319 114.899691 
L 464.855883 114.461208 
L 466.552448 114.211424 
L 468.249012 114.115805 
L 473.338705 114.704131 
L 475.035269 115.44853 
L 476.731833 114.824911 
L 483.518091 114.782663 
L 486.911219 114.529219 
L 488.607784 114.318003 
L 490.304348 115.211979 
L 492.000912 114.011775 
L 493.697476 116.011343 
L 495.394041 115.282308 
L 498.787169 114.418676 
L 502.180298 114.040138 
L 503.876862 114.163494 
L 505.573427 114.553536 
L 507.269991 114.498717 
L 508.966555 115.180422 
L 510.663119 114.677031 
L 512.359684 114.930546 
L 524.235634 114.461098 
L 525.932198 115.409839 
L 527.628763 113.464279 
L 529.325327 116.309987 
L 531.021891 115.342139 
L 534.41502 114.377848 
L 536.111584 114.131744 
L 537.808148 114.0462 
L 539.504713 114.237979 
L 541.201277 114.640246 
L 542.897841 114.699356 
L 544.594406 115.711265 
L 546.29097 114.809844 
L 553.077227 114.809366 
L 556.470356 114.6107 
L 558.16692 114.344466 
L 559.863484 114.763318 
L 561.560049 116.338296 
L 563.256613 114.856158 
L 564.953177 115.464386 
L 566.649742 114.763405 
L 568.346306 114.443581 
L 571.739434 114.185537 
L 573.435999 114.262296 
L 575.132563 114.536013 
L 576.829127 114.465063 
L 578.525692 114.836831 
L 580.222256 114.47764 
L 581.91882 114.840992 
L 587.008513 114.813789 
L 593.79477 114.388389 
L 595.491335 115.216965 
L 597.187899 113.373348 
L 598.884463 116.149147 
L 600.581028 115.237127 
L 603.974156 114.369271 
L 607.367285 114.040101 
L 609.063849 114.239738 
L 610.760413 114.654857 
L 612.456978 114.725879 
L 614.153542 115.688772 
L 615.850106 114.837522 
L 622.636364 114.808612 
L 622.636364 114.808612 
" clip-path="url(#p4ac117d338)" style="fill: none; stroke: #d62728; stroke-width: 1.5; stroke-linecap: square"/>
   </g>
   <g id="line2d_17">
    <path d="M 115.363636 133.784137 
L 117.060201 132.861075 
L 118.756765 136.822856 
L 120.453329 134.941118 
L 122.149894 134.59792 
L 123.846458 134.390808 
L 128.936151 134.253506 
L 134.025844 134.643054 
L 135.722408 134.509398 
L 142.508665 134.582965 
L 147.598358 134.481027 
L 149.294922 134.140395 
L 150.991487 133.489437 
L 152.688051 133.019192 
L 154.384615 134.883734 
L 157.777744 134.470128 
L 161.170873 134.32797 
L 164.564001 134.414524 
L 167.95713 134.544697 
L 169.653694 134.454078 
L 171.350258 134.751455 
L 173.046823 134.452074 
L 176.439951 134.620674 
L 183.226209 134.390555 
L 184.922773 133.790396 
L 186.619337 132.882258 
L 188.315901 136.707508 
L 190.012466 134.962994 
L 191.70903 134.609348 
L 195.102159 134.366141 
L 196.798723 134.276415 
L 203.58498 134.644273 
L 205.281545 134.767521 
L 206.978109 134.592922 
L 217.157495 134.453626 
L 218.854059 134.006411 
L 220.550623 133.227786 
L 222.247188 133.043741 
L 223.943752 135.247151 
L 225.640316 134.704939 
L 229.033445 134.374375 
L 232.426573 134.28067 
L 237.516266 134.571024 
L 239.212831 134.499925 
L 240.909395 134.727245 
L 242.605959 134.458112 
L 247.695652 134.581537 
L 251.088781 134.520316 
L 252.785345 134.420071 
L 254.481909 133.948633 
L 256.178474 133.122459 
L 257.875038 135.661687 
L 259.571602 134.940663 
L 261.268167 134.607391 
L 262.964731 134.408817 
L 268.054424 134.279718 
L 273.144117 134.601522 
L 274.840681 134.509086 
L 276.537245 134.747999 
L 279.930374 134.643924 
L 286.716631 134.510178 
L 288.413196 134.27911 
L 290.10976 133.719314 
L 291.806324 132.892957 
L 293.502888 136.371078 
L 295.199453 134.822583 
L 298.592581 134.363245 
L 303.682274 134.264318 
L 308.771967 134.677 
L 310.468531 134.40794 
L 315.558224 134.623507 
L 322.344482 134.441047 
L 324.041046 133.942277 
L 325.73761 133.129264 
L 327.434175 136.107395 
L 329.130739 135.032899 
L 330.827303 134.64338 
L 332.523867 134.96588 
L 334.220432 135.514001 
L 335.916996 134.481489 
L 337.61356 134.580811 
L 339.310125 134.954837 
L 341.006689 135.144044 
L 342.703253 135.058341 
L 344.399818 134.576573 
L 346.096382 135.148604 
L 347.792946 133.388132 
L 349.48951 135.070605 
L 351.186075 135.023359 
L 354.579203 134.367268 
L 356.275768 135.238945 
L 359.668896 135.56477 
L 361.365461 136.676227 
L 363.062025 132.957145 
L 364.758589 132.636303 
L 366.455154 134.713756 
L 368.151718 134.650775 
L 369.848282 134.44772 
L 371.544846 134.698848 
L 373.241411 134.584122 
L 374.937975 134.606221 
L 376.634539 133.924556 
L 378.331104 133.880055 
L 380.027668 134.516002 
L 381.724232 134.800359 
L 383.420797 133.546922 
L 385.117361 138.126542 
L 386.813925 137.318018 
L 388.51049 136.204981 
L 390.207054 134.609688 
L 391.903618 134.637059 
L 395.296747 135.30094 
L 398.689875 135.22396 
L 400.38644 135.44647 
L 402.083004 135.297335 
L 403.779568 134.418195 
L 410.565825 134.576977 
L 415.655518 134.552834 
L 417.352083 134.205771 
L 419.048647 133.546659 
L 420.745211 136.189071 
L 422.441776 135.710236 
L 424.13834 135.011908 
L 425.834904 134.63881 
L 429.228033 134.324881 
L 434.317726 134.312375 
L 437.710854 134.568734 
L 451.283369 134.519932 
L 452.979933 134.307377 
L 454.676497 133.791183 
L 456.373062 132.868684 
L 458.069626 136.165504 
L 459.76619 134.858328 
L 461.462755 134.52227 
L 464.855883 134.321287 
L 466.552448 134.234483 
L 469.945576 134.431553 
L 473.338705 134.622411 
L 475.035269 134.516405 
L 480.124962 134.623372 
L 486.911219 134.407866 
L 488.607784 133.897839 
L 490.304348 133.000753 
L 492.000912 135.810707 
L 493.697476 134.974805 
L 495.394041 134.628367 
L 498.787169 134.355011 
L 502.180298 134.298711 
L 507.269991 134.581321 
L 508.966555 134.392242 
L 512.359684 134.516114 
L 515.752812 134.614017 
L 522.53907 134.3255 
L 524.235634 133.746046 
L 525.932198 132.841534 
L 527.628763 136.113049 
L 529.325327 134.932961 
L 532.718455 134.435309 
L 536.111584 134.273981 
L 537.808148 134.289034 
L 542.897841 134.637334 
L 544.594406 134.526258 
L 546.29097 134.633634 
L 556.470356 134.476264 
L 558.16692 134.118059 
L 559.863484 133.486649 
L 561.560049 133.035784 
L 563.256613 134.891608 
L 566.649742 134.452729 
L 570.04287 134.303314 
L 571.739434 134.28868 
L 576.829127 134.557436 
L 578.525692 134.468594 
L 580.222256 134.64125 
L 581.91882 134.498967 
L 587.008513 134.570441 
L 590.401642 134.519829 
L 592.098206 134.409981 
L 593.79477 133.814522 
L 595.491335 132.906064 
L 597.187899 136.230858 
L 598.884463 134.981639 
L 600.581028 134.629837 
L 603.974156 134.356394 
L 607.367285 134.326697 
L 612.456978 134.620473 
L 614.153542 134.499379 
L 615.850106 134.850702 
L 617.546671 134.67574 
L 622.636364 134.555776 
L 622.636364 134.555776 
" clip-path="url(#p4ac117d338)" style="fill: none; stroke: #9467bd; stroke-width: 1.5; stroke-linecap: square"/>
   </g>
   <g id="line2d_18">
    <path d="M 115.363636 153.733805 
L 117.060201 153.95371 
L 118.756765 152.327544 
L 120.453329 154.018144 
L 122.149894 153.934916 
L 123.846458 154.06163 
L 125.543022 154.323573 
L 127.239587 154.444043 
L 130.632715 154.225398 
L 134.025844 154.206596 
L 135.722408 154.534604 
L 137.418972 154.101106 
L 140.812101 154.306282 
L 144.20523 154.00333 
L 145.901794 153.844455 
L 150.991487 153.847395 
L 152.688051 154.133671 
L 154.384615 153.999922 
L 156.08118 153.363489 
L 157.777744 153.649099 
L 159.474308 154.091342 
L 161.170873 154.356972 
L 167.95713 154.333256 
L 169.653694 154.74719 
L 171.350258 154.167927 
L 173.046823 153.930481 
L 174.743387 154.214207 
L 176.439951 154.28795 
L 181.529644 153.907112 
L 184.922773 153.846165 
L 186.619337 154.072489 
L 188.315901 152.505496 
L 190.012466 154.216176 
L 193.405594 154.095367 
L 195.102159 154.341122 
L 196.798723 154.398229 
L 200.191852 154.249184 
L 201.888416 154.260809 
L 203.58498 153.979304 
L 205.281545 153.920722 
L 206.978109 154.010434 
L 208.674673 154.335218 
L 210.371237 154.415961 
L 217.157495 153.856671 
L 218.854059 153.790734 
L 220.550623 153.885082 
L 222.247188 154.225301 
L 225.640316 153.34011 
L 227.336881 153.653216 
L 229.033445 154.099952 
L 230.730009 154.406082 
L 237.516266 154.389322 
L 239.212831 154.743157 
L 240.909395 154.216924 
L 242.605959 153.955508 
L 244.302524 154.193234 
L 245.999088 154.25349 
L 252.785345 153.834228 
L 254.481909 153.777962 
L 256.178474 153.938762 
L 257.875038 153.402033 
L 259.571602 153.868847 
L 261.268167 153.620843 
L 262.964731 153.834391 
L 264.661295 154.167152 
L 266.35786 154.347539 
L 271.447552 154.142216 
L 273.144117 154.2128 
L 274.840681 154.663274 
L 276.537245 154.155611 
L 281.626938 154.12732 
L 285.020067 153.712658 
L 290.10976 153.705397 
L 291.806324 154.058984 
L 293.502888 152.420901 
L 295.199453 154.392405 
L 296.896017 154.254406 
L 298.592581 154.266562 
L 300.289146 154.464004 
L 301.98571 154.502586 
L 303.682274 154.351822 
L 308.771967 154.182959 
L 310.468531 154.03432 
L 312.165096 154.128168 
L 313.86166 154.418591 
L 315.558224 154.393827 
L 320.647917 153.845854 
L 325.73761 153.904694 
L 327.434175 153.143305 
L 329.130739 153.767553 
L 330.827303 154.918325 
L 332.523867 155.295705 
L 334.220432 153.876728 
L 335.916996 154.259587 
L 337.61356 154.464912 
L 339.310125 154.194082 
L 344.399818 154.300746 
L 347.792946 154.243192 
L 349.48951 153.368373 
L 351.186075 154.266417 
L 352.882639 154.129657 
L 354.579203 153.098552 
L 356.275768 150.945824 
L 357.972332 152.770509 
L 359.668896 152.129499 
L 361.365461 153.683394 
L 363.062025 153.043003 
L 364.758589 154.068355 
L 366.455154 154.257942 
L 368.151718 154.077818 
L 369.848282 156.545187 
L 373.241411 155.794906 
L 374.937975 154.273476 
L 376.634539 154.10303 
L 380.027668 154.280124 
L 381.724232 154.206934 
L 383.420797 154.276769 
L 385.117361 154.713272 
L 386.813925 156.616624 
L 388.51049 159.050417 
L 390.207054 159.982724 
L 391.903618 159.284923 
L 393.600182 158.122553 
L 395.296747 156.252653 
L 398.689875 155.527502 
L 400.38644 155.216213 
L 402.083004 154.702852 
L 403.779568 154.393087 
L 405.476133 155.653393 
L 407.172697 155.875573 
L 408.869261 155.084683 
L 410.565825 154.790027 
L 413.958954 153.985486 
L 415.655518 153.863263 
L 419.048647 153.975115 
L 420.745211 152.616113 
L 422.441776 153.6589 
L 424.13834 153.763051 
L 425.834904 154.161559 
L 429.228033 154.641026 
L 430.924597 154.745641 
L 434.317726 154.486841 
L 436.01429 154.359036 
L 437.710854 154.426034 
L 439.407419 153.890808 
L 444.497112 154.301661 
L 446.193676 154.240004 
L 449.586804 153.862367 
L 454.676497 153.845004 
L 456.373062 154.105204 
L 458.069626 153.111641 
L 459.76619 154.4108 
L 463.159319 154.222982 
L 464.855883 154.42417 
L 466.552448 154.461372 
L 469.945576 154.264279 
L 473.338705 154.204243 
L 475.035269 154.09434 
L 476.731833 154.146105 
L 478.428398 154.420531 
L 480.124962 154.433011 
L 485.214655 153.873643 
L 490.304348 153.954625 
L 492.000912 153.17931 
L 493.697476 153.707354 
L 495.394041 153.582359 
L 500.483734 154.426087 
L 505.573427 154.213745 
L 507.269991 154.289496 
L 508.966555 154.899824 
L 510.663119 154.19593 
L 512.359684 153.794623 
L 514.056248 153.977424 
L 515.752812 154.006563 
L 520.842505 153.661418 
L 524.235634 153.63161 
L 525.932198 153.926379 
L 527.628763 152.392635 
L 529.325327 153.850458 
L 531.021891 153.85523 
L 536.111584 154.485533 
L 539.504713 154.335249 
L 542.897841 154.297237 
L 544.594406 154.334759 
L 546.29097 154.118555 
L 549.684099 154.342703 
L 553.077227 154.020403 
L 554.773791 153.839159 
L 559.863484 153.846887 
L 561.560049 154.174583 
L 563.256613 154.030929 
L 564.953177 153.421848 
L 566.649742 153.683281 
L 568.346306 154.100292 
L 570.04287 154.355033 
L 575.132563 154.250724 
L 576.829127 154.320575 
L 578.525692 154.750855 
L 580.222256 154.089835 
L 581.91882 153.930427 
L 583.615385 154.072088 
L 585.311949 154.097784 
L 590.401642 153.810664 
L 595.491335 153.938281 
L 597.187899 152.684938 
L 598.884463 153.819327 
L 600.581028 153.657011 
L 605.670721 154.403155 
L 610.760413 154.184488 
L 614.153542 154.320075 
L 615.850106 154.139099 
L 619.243235 154.270535 
L 622.636364 153.912267 
L 622.636364 153.912267 
" clip-path="url(#p4ac117d338)" style="fill: none; stroke: #8c564b; stroke-width: 1.5; stroke-linecap: square"/>
   </g>
   <g id="line2d_19">
    <path d="M 115.363636 174.205597 
L 117.060201 174.427566 
L 120.453329 174.558941 
L 125.543022 174.187841 
L 134.025844 173.939363 
L 147.598358 173.983194 
L 150.991487 174.212367 
L 152.688051 174.424729 
L 159.474308 174.125085 
L 166.260566 173.966905 
L 183.226209 174.009677 
L 188.315901 174.35906 
L 191.70903 174.310981 
L 203.58498 173.909624 
L 218.854059 174.116683 
L 223.943752 174.54941 
L 229.033445 174.225502 
L 234.123138 174.027624 
L 247.695652 173.984448 
L 251.088781 174.026902 
L 252.785345 174.003749 
L 259.571602 174.562952 
L 262.964731 174.297943 
L 266.35786 174.110253 
L 273.144117 173.948306 
L 283.323503 173.982548 
L 285.020067 174.047634 
L 286.716631 173.984358 
L 290.10976 174.258438 
L 291.806324 174.527693 
L 296.896017 174.409156 
L 305.378839 174.001601 
L 312.165096 173.890847 
L 320.647917 174.017458 
L 322.344482 173.989958 
L 329.130739 174.398914 
L 332.523867 173.794752 
L 334.220432 173.956539 
L 335.916996 173.962751 
L 337.61356 173.848014 
L 342.703253 174.101235 
L 346.096382 173.878454 
L 347.792946 172.657994 
L 349.48951 172.389134 
L 351.186075 171.567507 
L 352.882639 172.123082 
L 354.579203 172.291471 
L 356.275768 172.605217 
L 359.668896 173.604113 
L 361.365461 173.930177 
L 363.062025 174.078383 
L 364.758589 174.846738 
L 368.151718 174.153347 
L 371.544846 174.025502 
L 373.241411 174.294513 
L 374.937975 174.265848 
L 376.634539 174.097097 
L 378.331104 174.079447 
L 381.724232 173.744892 
L 383.420797 174.189602 
L 385.117361 173.70476 
L 386.813925 173.710246 
L 388.51049 173.95668 
L 400.38644 174.523907 
L 402.083004 174.71753 
L 403.779568 173.869774 
L 405.476133 173.595724 
L 407.172697 173.893457 
L 408.869261 173.783672 
L 417.352083 174.013178 
L 419.048647 174.283364 
L 422.441776 175.01046 
L 425.834904 174.565019 
L 436.01429 174.111484 
L 439.407419 173.700723 
L 441.103983 173.833697 
L 444.497112 173.872426 
L 449.586804 174.073181 
L 451.283369 173.975216 
L 452.979933 174.046638 
L 454.676497 174.262769 
L 456.373062 174.655273 
L 463.159319 174.323831 
L 466.552448 174.129232 
L 473.338705 173.887635 
L 488.607784 174.138885 
L 490.304348 174.318151 
L 492.000912 174.347006 
L 493.697476 174.508335 
L 497.090605 174.273545 
L 502.180298 174.047713 
L 510.663119 173.883693 
L 517.449377 173.983075 
L 519.145941 174.055814 
L 522.53907 174.038469 
L 525.932198 174.374457 
L 531.021891 174.383806 
L 542.897841 173.919477 
L 558.16692 174.096833 
L 559.863484 174.256448 
L 561.560049 174.528086 
L 566.649742 174.256219 
L 571.739434 174.036484 
L 578.525692 173.959609 
L 583.615385 173.917931 
L 590.401642 174.00613 
L 592.098206 173.99889 
L 595.491335 174.223539 
L 597.187899 174.226286 
L 598.884463 174.402952 
L 603.974156 174.123679 
L 610.760413 173.969172 
L 622.636364 174.022549 
L 622.636364 174.022549 
" clip-path="url(#p4ac117d338)" style="fill: none; stroke: #e377c2; stroke-width: 1.5; stroke-linecap: square"/>
   </g>
   <g id="line2d_20">
    <path d="M 115.363636 194.522704 
L 117.060201 193.76873 
L 120.453329 193.577564 
L 123.846458 193.777814 
L 128.936151 193.636038 
L 130.632715 193.762695 
L 132.329279 194.22669 
L 134.025844 194.41544 
L 135.722408 194.036942 
L 137.418972 194.270296 
L 147.598358 194.954947 
L 149.294922 194.763133 
L 150.991487 194.040549 
L 152.688051 193.673941 
L 164.564001 193.674876 
L 166.260566 193.975203 
L 167.95713 194.113816 
L 169.653694 194.070255 
L 173.046823 194.46801 
L 178.136516 194.642848 
L 179.83308 194.864174 
L 183.226209 195.018341 
L 186.619337 193.742021 
L 190.012466 193.650521 
L 191.70903 193.800698 
L 195.102159 193.749645 
L 198.495287 193.662832 
L 201.888416 194.13925 
L 203.58498 194.716381 
L 205.281545 194.013955 
L 206.978109 194.382219 
L 217.157495 195.19381 
L 218.854059 194.783198 
L 220.550623 193.94208 
L 222.247188 193.67138 
L 225.640316 193.674825 
L 229.033445 193.713504 
L 234.123138 193.685167 
L 235.819702 194.01151 
L 237.516266 194.184034 
L 239.212831 194.18166 
L 242.605959 194.509589 
L 247.695652 194.682258 
L 249.392216 194.934725 
L 252.785345 195.173818 
L 254.481909 194.694762 
L 256.178474 193.866048 
L 259.571602 193.588811 
L 262.964731 193.706541 
L 268.054424 193.6097 
L 269.750988 193.746786 
L 271.447552 194.243208 
L 273.144117 194.391377 
L 274.840681 194.043506 
L 286.716631 195.090344 
L 288.413196 195.053415 
L 291.806324 193.738753 
L 295.199453 193.603068 
L 296.896017 193.776402 
L 300.289146 193.726566 
L 303.682274 193.645181 
L 305.378839 193.824453 
L 308.771967 194.531592 
L 310.468531 194.102593 
L 312.165096 194.299624 
L 317.254789 194.49405 
L 318.951353 194.693864 
L 322.344482 194.880234 
L 324.041046 194.48237 
L 325.73761 193.809557 
L 327.434175 193.675305 
L 330.827303 193.682362 
L 334.220432 194.021344 
L 335.916996 193.822085 
L 337.61356 194.737577 
L 339.310125 196.658932 
L 341.006689 197.74612 
L 342.703253 196.918007 
L 344.399818 194.757612 
L 346.096382 197.127926 
L 347.792946 194.882072 
L 349.48951 194.472628 
L 351.186075 192.819747 
L 352.882639 192.839546 
L 354.579203 189.942349 
L 356.275768 190.883689 
L 357.972332 188.968945 
L 359.668896 190.343201 
L 361.365461 194.998544 
L 363.062025 196.194774 
L 364.758589 202.166652 
L 366.455154 199.405779 
L 368.151718 199.63549 
L 369.848282 197.04795 
L 371.544846 194.97646 
L 373.241411 195.812289 
L 374.937975 196.108297 
L 376.634539 194.711347 
L 378.331104 193.573653 
L 380.027668 192.866733 
L 381.724232 192.899323 
L 383.420797 191.082862 
L 385.117361 192.718781 
L 386.813925 193.681751 
L 388.51049 193.760715 
L 391.903618 193.64525 
L 393.600182 193.714402 
L 396.993311 194.000016 
L 400.38644 194.023136 
L 402.083004 193.501448 
L 403.779568 193.189172 
L 405.476133 193.751539 
L 407.172697 193.427892 
L 408.869261 193.240313 
L 417.352083 193.093415 
L 419.048647 193.456304 
L 420.745211 193.589526 
L 424.13834 193.985254 
L 425.834904 194.176209 
L 427.531469 194.199348 
L 432.621161 193.807629 
L 434.317726 193.661512 
L 436.01429 193.721813 
L 437.710854 193.904545 
L 439.407419 194.345064 
L 441.103983 194.115599 
L 444.497112 194.38111 
L 446.193676 194.46614 
L 451.283369 195.05989 
L 452.979933 195.144062 
L 456.373062 193.765223 
L 459.76619 193.690143 
L 461.462755 193.849842 
L 464.855883 193.79632 
L 468.249012 193.670739 
L 469.945576 193.742485 
L 473.338705 194.295698 
L 475.035269 194.019014 
L 481.821526 194.464168 
L 483.518091 194.688543 
L 486.911219 194.931974 
L 488.607784 194.474856 
L 490.304348 193.779749 
L 492.000912 193.674369 
L 493.697476 193.681921 
L 497.090605 193.840051 
L 503.876862 193.70135 
L 505.573427 194.070977 
L 507.269991 194.240781 
L 508.966555 194.034714 
L 510.663119 194.307349 
L 522.53907 194.867909 
L 525.932198 193.726481 
L 531.021891 193.732286 
L 534.41502 193.709182 
L 537.808148 193.62924 
L 539.504713 193.796117 
L 541.201277 194.324433 
L 542.897841 194.51404 
L 544.594406 194.029294 
L 547.987534 194.269964 
L 551.380663 194.480233 
L 554.773791 194.893791 
L 556.470356 195.023614 
L 558.16692 194.818783 
L 559.863484 194.058631 
L 561.560049 193.671569 
L 573.435999 193.675429 
L 575.132563 193.986635 
L 576.829127 194.121138 
L 578.525692 194.080101 
L 583.615385 194.440096 
L 587.008513 194.612984 
L 588.705078 194.804813 
L 592.098206 194.964746 
L 593.79477 194.488271 
L 595.491335 193.787793 
L 598.884463 193.589864 
L 602.277592 193.721037 
L 607.367285 193.617719 
L 609.063849 193.807085 
L 610.760413 194.405587 
L 612.456978 194.616182 
L 614.153542 194.059531 
L 617.546671 194.227345 
L 620.939799 194.506593 
L 622.636364 194.764499 
L 622.636364 194.764499 
" clip-path="url(#p4ac117d338)" style="fill: none; stroke: #7f7f7f; stroke-width: 1.5; stroke-linecap: square"/>
   </g>
   <g id="line2d_21">
    <path d="M 115.363636 213.266115 
L 117.060201 213.516933 
L 120.453329 213.147828 
L 128.936151 213.323904 
L 130.632715 213.270028 
L 134.025844 212.717713 
L 135.722408 213.407344 
L 139.115537 213.404221 
L 144.20523 213.121732 
L 147.598358 213.147348 
L 149.294922 213.187379 
L 150.991487 213.437306 
L 152.688051 213.229571 
L 157.777744 213.195757 
L 162.867437 213.342659 
L 166.260566 213.217338 
L 167.95713 212.825038 
L 171.350258 213.375236 
L 173.046823 213.413549 
L 179.83308 213.089389 
L 183.226209 213.179444 
L 186.619337 213.455958 
L 188.315901 213.361432 
L 190.012466 213.110173 
L 198.495287 213.305406 
L 200.191852 213.251263 
L 201.888416 212.811586 
L 203.58498 212.61067 
L 205.281545 213.407847 
L 206.978109 213.451523 
L 215.46093 213.102635 
L 218.854059 213.222549 
L 220.550623 213.456239 
L 223.943752 213.08456 
L 232.426573 213.351709 
L 235.819702 213.228452 
L 237.516266 212.801284 
L 240.909395 213.375172 
L 242.605959 213.411962 
L 249.392216 213.096389 
L 252.785345 213.163759 
L 254.481909 213.256922 
L 256.178474 213.478677 
L 257.875038 213.10899 
L 261.268167 213.186471 
L 264.661295 213.246105 
L 268.054424 213.318118 
L 269.750988 213.268795 
L 271.447552 213.089623 
L 273.144117 212.75394 
L 274.840681 213.357852 
L 276.537245 213.456664 
L 279.930374 213.288083 
L 285.020067 213.078679 
L 288.413196 213.144699 
L 291.806324 213.483556 
L 295.199453 213.113847 
L 301.98571 213.332789 
L 305.378839 213.262291 
L 307.075403 212.905964 
L 308.771967 212.723432 
L 310.468531 213.437622 
L 312.165096 213.462891 
L 320.647917 213.105962 
L 324.041046 213.245938 
L 325.73761 213.478538 
L 327.434175 213.151748 
L 330.827303 213.237701 
L 332.523867 212.605379 
L 334.220432 213.17302 
L 335.916996 213.179091 
L 339.310125 213.488431 
L 341.006689 213.952012 
L 342.703253 214.197948 
L 344.399818 215.137433 
L 346.096382 214.581199 
L 347.792946 215.059767 
L 349.48951 214.961859 
L 351.186075 216.660636 
L 352.882639 216.704318 
L 354.579203 215.521212 
L 356.275768 212.890661 
L 357.972332 214.165246 
L 359.668896 214.362247 
L 363.062025 214.440455 
L 366.455154 213.559616 
L 369.848282 213.04569 
L 371.544846 212.946943 
L 374.937975 212.222255 
L 376.634539 213.01751 
L 378.331104 212.890561 
L 380.027668 213.132844 
L 381.724232 213.555937 
L 383.420797 213.420362 
L 385.117361 213.406404 
L 386.813925 213.572986 
L 388.51049 212.614032 
L 390.207054 212.634217 
L 391.903618 212.869849 
L 393.600182 212.843112 
L 396.993311 213.037086 
L 400.38644 213.053846 
L 402.083004 213.284869 
L 403.779568 213.105144 
L 407.172697 213.314604 
L 415.655518 213.185159 
L 417.352083 213.274717 
L 419.048647 213.540305 
L 420.745211 213.141298 
L 422.441776 213.197894 
L 424.13834 213.114925 
L 432.621161 213.380202 
L 436.01429 213.260394 
L 437.710854 212.804281 
L 439.407419 212.852928 
L 441.103983 213.440612 
L 444.497112 213.291037 
L 449.586804 213.100135 
L 452.979933 213.16584 
L 456.373062 213.463668 
L 458.069626 213.462752 
L 459.76619 213.107096 
L 464.855883 213.3012 
L 468.249012 213.342335 
L 469.945576 213.307019 
L 471.64214 212.933772 
L 473.338705 212.751716 
L 475.035269 213.439347 
L 478.428398 213.367977 
L 481.821526 213.150184 
L 485.214655 213.113605 
L 488.607784 213.252956 
L 490.304348 213.497124 
L 492.000912 213.120094 
L 495.394041 213.182564 
L 498.787169 213.234426 
L 502.180298 213.328112 
L 505.573427 213.168143 
L 507.269991 212.785989 
L 508.966555 213.244613 
L 512.359684 213.383599 
L 522.53907 213.157022 
L 524.235634 213.286416 
L 525.932198 213.543383 
L 527.628763 213.059915 
L 536.111584 213.310095 
L 539.504713 213.251636 
L 542.897841 212.692293 
L 544.594406 213.429096 
L 547.987534 213.399082 
L 551.380663 213.164775 
L 554.773791 213.092156 
L 558.16692 213.191788 
L 559.863484 213.438988 
L 561.560049 213.209963 
L 568.346306 213.258163 
L 573.435999 213.298274 
L 575.132563 213.221564 
L 576.829127 212.831039 
L 580.222256 213.382592 
L 583.615385 213.35661 
L 588.705078 213.115455 
L 592.098206 213.181331 
L 593.79477 213.26779 
L 595.491335 213.526284 
L 597.187899 213.160708 
L 603.974156 213.234071 
L 607.367285 213.297316 
L 609.063849 213.23673 
L 610.760413 213.016373 
L 612.456978 212.676576 
L 614.153542 213.421459 
L 615.850106 213.470555 
L 622.636364 213.112911 
L 622.636364 213.112911 
" clip-path="url(#p4ac117d338)" style="fill: none; stroke: #bcbd22; stroke-width: 1.5; stroke-linecap: square"/>
   </g>
   <g id="line2d_22">
    <path d="M 115.363636 233.766353 
L 117.060201 236.954764 
L 118.756765 239.274398 
L 120.453329 242.908257 
L 122.149894 243.050755 
L 123.846458 241.238756 
L 125.543022 239.783768 
L 127.239587 238.73284 
L 130.632715 237.493996 
L 132.329279 236.687509 
L 134.025844 232.115082 
L 135.722408 224.374486 
L 137.418972 224.738406 
L 139.115537 226.502524 
L 140.812101 227.897998 
L 144.20523 228.495493 
L 145.901794 229.368229 
L 147.598358 232.491433 
L 149.294922 233.63618 
L 152.688051 237.006882 
L 154.384615 244.362967 
L 156.08118 243.645264 
L 157.777744 241.129938 
L 159.474308 239.684117 
L 161.170873 238.555167 
L 166.260566 236.880529 
L 167.95713 233.755763 
L 169.653694 229.478124 
L 171.350258 223.019601 
L 173.046823 225.367672 
L 174.743387 227.180053 
L 176.439951 228.143899 
L 179.83308 228.829727 
L 181.529644 231.124465 
L 183.226209 233.995656 
L 184.922773 234.123642 
L 186.619337 236.528691 
L 188.315901 235.842794 
L 190.012466 242.751313 
L 191.70903 242.431351 
L 193.405594 240.709316 
L 195.102159 239.327036 
L 196.798723 238.415516 
L 198.495287 237.812986 
L 200.191852 236.865286 
L 201.888416 234.658533 
L 203.58498 233.732534 
L 205.281545 224.680455 
L 206.978109 225.548886 
L 210.371237 228.120497 
L 213.764366 228.471223 
L 215.46093 229.775587 
L 217.157495 232.897297 
L 218.854059 233.775485 
L 220.550623 236.249839 
L 222.247188 236.964139 
L 223.943752 244.411473 
L 225.640316 243.841964 
L 227.336881 241.41504 
L 229.033445 239.75422 
L 230.730009 238.460481 
L 232.426573 237.720244 
L 234.123138 237.294865 
L 235.819702 236.679072 
L 237.516266 233.793783 
L 239.212831 230.098814 
L 240.909395 223.360536 
L 242.605959 225.462463 
L 244.302524 227.064915 
L 245.999088 228.035254 
L 249.392216 228.590145 
L 251.088781 230.527768 
L 252.785345 233.459307 
L 254.481909 233.513508 
L 256.178474 236.379422 
L 257.875038 242.208089 
L 259.571602 243.331968 
L 261.268167 243.34919 
L 262.964731 241.173861 
L 264.661295 239.635436 
L 266.35786 238.654889 
L 268.054424 238.090727 
L 269.750988 237.64521 
L 271.447552 236.853966 
L 273.144117 232.576814 
L 274.840681 225.381214 
L 276.537245 225.229131 
L 279.930374 227.620015 
L 281.626938 228.012268 
L 283.323503 228.277856 
L 285.020067 228.797123 
L 286.716631 231.523455 
L 288.413196 233.445036 
L 290.10976 233.987011 
L 291.806324 236.730634 
L 293.502888 238.220448 
L 295.199453 243.086033 
L 296.896017 242.54878 
L 300.289146 239.599742 
L 301.98571 238.598431 
L 303.682274 238.057706 
L 305.378839 237.242401 
L 307.075403 236.007584 
L 308.771967 231.425921 
L 310.468531 223.525882 
L 312.165096 225.496074 
L 313.86166 227.019325 
L 315.558224 228.261711 
L 318.951353 228.643374 
L 320.647917 230.211382 
L 322.344482 233.360002 
L 324.041046 233.858192 
L 325.73761 236.639906 
L 327.434175 240.80567 
L 329.130739 242.081354 
L 330.827303 238.33819 
L 332.523867 235.078043 
L 334.220432 233.290836 
L 335.916996 227.049394 
L 337.61356 231.571093 
L 339.310125 233.202121 
L 341.006689 231.929007 
L 342.703253 232.841152 
L 344.399818 232.118311 
L 346.096382 231.665745 
L 347.792946 232.535113 
L 349.48951 232.134075 
L 351.186075 232.104769 
L 352.882639 232.689105 
L 354.579203 231.102312 
L 356.275768 230.91398 
L 357.972332 234.676831 
L 359.668896 235.396791 
L 361.365461 231.61078 
L 363.062025 232.550495 
L 364.758589 233.282121 
L 366.455154 231.514357 
L 368.151718 235.78526 
L 369.848282 235.737239 
L 371.544846 237.403094 
L 373.241411 234.703428 
L 376.634539 223.476681 
L 378.331104 231.318526 
L 380.027668 228.773234 
L 381.724232 224.676844 
L 383.420797 225.5084 
L 385.117361 230.41145 
L 386.813925 238.543605 
L 390.207054 246.24 
L 391.903618 242.528711 
L 393.600182 239.674047 
L 396.993311 238.289822 
L 400.38644 236.142722 
L 402.083004 235.320923 
L 403.779568 232.594592 
L 405.476133 228.91865 
L 407.172697 221.620099 
L 408.869261 224.61931 
L 410.565825 225.951417 
L 412.26239 226.955333 
L 413.958954 227.790221 
L 415.655518 231.921785 
L 419.048647 237.012715 
L 420.745211 239.825157 
L 422.441776 241.400352 
L 424.13834 243.39853 
L 425.834904 241.871321 
L 427.531469 239.919253 
L 429.228033 238.880998 
L 430.924597 238.021318 
L 432.621161 237.491322 
L 434.317726 237.127992 
L 436.01429 236.560844 
L 437.710854 233.536737 
L 439.407419 228.166434 
L 441.103983 225.199132 
L 442.800547 226.158742 
L 444.497112 227.373142 
L 446.193676 227.914005 
L 447.89024 228.114073 
L 449.586804 228.519486 
L 451.283369 231.32054 
L 452.979933 233.765693 
L 454.676497 234.007531 
L 456.373062 236.40088 
L 458.069626 236.128451 
L 459.76619 242.973048 
L 461.462755 242.368956 
L 463.159319 240.573241 
L 464.855883 239.226655 
L 466.552448 238.28826 
L 468.249012 237.645314 
L 471.64214 235.838905 
L 473.338705 231.159951 
L 475.035269 223.263523 
L 476.731833 225.795759 
L 480.124962 228.122337 
L 481.821526 228.385321 
L 483.518091 228.521917 
L 485.214655 230.352943 
L 486.911219 233.4433 
L 488.607784 233.86281 
L 490.304348 236.94525 
L 492.000912 242.259963 
L 493.697476 242.731834 
L 495.394041 243.432072 
L 497.090605 241.432123 
L 498.787169 239.77738 
L 500.483734 238.592459 
L 502.180298 238.038401 
L 503.876862 237.624689 
L 505.573427 236.997784 
L 507.269991 233.37153 
L 508.966555 227.080054 
L 510.663119 225.900202 
L 512.359684 226.289887 
L 514.056248 227.537932 
L 519.145941 228.450251 
L 522.53907 233.445244 
L 524.235634 233.851456 
L 525.932198 237.223477 
L 527.628763 241.408512 
L 529.325327 243.101276 
L 531.021891 243.363288 
L 534.41502 239.9446 
L 536.111584 238.790339 
L 541.201277 236.765738 
L 542.897841 232.234317 
L 544.594406 223.804352 
L 546.29097 224.864134 
L 547.987534 226.548808 
L 549.684099 227.821193 
L 551.380663 228.237683 
L 553.077227 228.458341 
L 554.773791 229.393958 
L 556.470356 232.491086 
L 558.16692 233.587431 
L 559.863484 235.189536 
L 561.560049 237.219241 
L 563.256613 244.560361 
L 564.953177 243.657 
L 566.649742 241.065043 
L 568.346306 239.656617 
L 570.04287 238.525168 
L 575.132563 236.828064 
L 576.829127 233.704409 
L 578.525692 229.710101 
L 580.222256 224.746774 
L 581.91882 225.519303 
L 583.615385 227.129845 
L 585.311949 227.864075 
L 587.008513 228.071157 
L 588.705078 228.488132 
L 590.401642 230.427596 
L 592.098206 233.685972 
L 593.79477 233.985379 
L 595.491335 237.239866 
L 597.187899 242.03941 
L 600.581028 243.329295 
L 602.277592 241.511254 
L 603.974156 239.89158 
L 605.670721 238.794228 
L 609.063849 237.773577 
L 610.760413 236.974903 
L 612.456978 232.230011 
L 614.153542 223.999211 
L 615.850106 225.454373 
L 619.243235 227.702514 
L 620.939799 228.089004 
L 622.636364 228.341641 
L 622.636364 228.341641 
" clip-path="url(#p4ac117d338)" style="fill: none; stroke: #17becf; stroke-width: 1.5; stroke-linecap: square"/>
   </g>
   <g id="patch_3">
    <path d="M 90 256.32 
L 90 34.56 
" style="fill: none; stroke: #000000; stroke-width: 0.8; stroke-linejoin: miter; stroke-linecap: square"/>
   </g>
   <g id="patch_4">
    <path d="M 648 256.32 
L 648 34.56 
" style="fill: none; stroke: #000000; stroke-width: 0.8; stroke-linejoin: miter; stroke-linecap: square"/>
   </g>
   <g id="patch_5">
    <path d="M 90 256.32 
L 648 256.32 
" style="fill: none; stroke: #000000; stroke-width: 0.8; stroke-linejoin: miter; stroke-linecap: square"/>
   </g>
   <g id="patch_6">
    <path d="M 90 34.56 
L 648 34.56 
" style="fill: none; stroke: #000000; stroke-width: 0.8; stroke-linejoin: miter; stroke-linecap: square"/>
   </g>
   <g id="legend_1">
    <g id="patch_7">
     <path d="M 566.573437 189.34125 
L 641 189.34125 
Q 643 189.34125 643 187.34125 
L 643 41.56 
Q 643 39.56 641 39.56 
L 566.573437 39.56 
Q 564.573437 39.56 564.573437 41.56 
L 564.573437 187.34125 
Q 564.573437 189.34125 566.573437 189.34125 
z
" style="fill: #ffffff; opacity: 0.8; stroke: #cccccc; stroke-linejoin: miter"/>
    </g>
    <g id="line2d_23">
     <path d="M 568.573437 47.658437 
L 578.573437 47.658437 
L 588.573437 47.658437 
" style="fill: none; stroke: #1f77b4; stroke-width: 1.5; stroke-linecap: square"/>
    </g>
    <g id="text_15">
     <!-- Trace 1 -->
     <g transform="translate(596.573437 51.158437) scale(0.1 -0.1)">
      <defs>
       <path id="DejaVuSans-54" d="M -19 4666 
L 3928 4666 
L 3928 4134 
L 2272 4134 
L 2272 0 
L 1638 0 
L 1638 4134 
L -19 4134 
L -19 4666 
z
" transform="scale(0.015625)"/>
       <path id="DejaVuSans-72" d="M 2631 2963 
Q 2534 3019 2420 3045 
Q 2306 3072 2169 3072 
Q 1681 3072 1420 2755 
Q 1159 2438 1159 1844 
L 1159 0 
L 581 0 
L 581 3500 
L 1159 3500 
L 1159 2956 
Q 1341 3275 1631 3429 
Q 1922 3584 2338 3584 
Q 2397 3584 2469 3576 
Q 2541 3569 2628 3553 
L 2631 2963 
z
" transform="scale(0.015625)"/>
       <path id="DejaVuSans-63" d="M 3122 3366 
L 3122 2828 
Q 2878 2963 2633 3030 
Q 2388 3097 2138 3097 
Q 1578 3097 1268 2742 
Q 959 2388 959 1747 
Q 959 1106 1268 751 
Q 1578 397 2138 397 
Q 2388 397 2633 464 
Q 2878 531 3122 666 
L 3122 134 
Q 2881 22 2623 -34 
Q 2366 -91 2075 -91 
Q 1284 -91 818 406 
Q 353 903 353 1747 
Q 353 2603 823 3093 
Q 1294 3584 2113 3584 
Q 2378 3584 2631 3529 
Q 2884 3475 3122 3366 
z
" transform="scale(0.015625)"/>
      </defs>
      <use xlink:href="#DejaVuSans-54"/>
      <use xlink:href="#DejaVuSans-72" x="46.333984"/>
      <use xlink:href="#DejaVuSans-61" x="87.447266"/>
      <use xlink:href="#DejaVuSans-63" x="148.726562"/>
      <use xlink:href="#DejaVuSans-65" x="203.707031"/>
      <use xlink:href="#DejaVuSans-20" x="265.230469"/>
      <use xlink:href="#DejaVuSans-31" x="297.017578"/>
     </g>
    </g>
    <g id="line2d_24">
     <path d="M 568.573437 62.336563 
L 578.573437 62.336563 
L 588.573437 62.336563 
" style="fill: none; stroke: #ff7f0e; stroke-width: 1.5; stroke-linecap: square"/>
    </g>
    <g id="text_16">
     <!-- Trace 2 -->
     <g transform="translate(596.573437 65.836563) scale(0.1 -0.1)">
      <use xlink:href="#DejaVuSans-54"/>
      <use xlink:href="#DejaVuSans-72" x="46.333984"/>
      <use xlink:href="#DejaVuSans-61" x="87.447266"/>
      <use xlink:href="#DejaVuSans-63" x="148.726562"/>
      <use xlink:href="#DejaVuSans-65" x="203.707031"/>
      <use xlink:href="#DejaVuSans-20" x="265.230469"/>
      <use xlink:href="#DejaVuSans-32" x="297.017578"/>
     </g>
    </g>
    <g id="line2d_25">
     <path d="M 568.573437 77.014688 
L 578.573437 77.014688 
L 588.573437 77.014688 
" style="fill: none; stroke: #2ca02c; stroke-width: 1.5; stroke-linecap: square"/>
    </g>
    <g id="text_17">
     <!-- Trace 3 -->
     <g transform="translate(596.573437 80.514688) scale(0.1 -0.1)">
      <use xlink:href="#DejaVuSans-54"/>
      <use xlink:href="#DejaVuSans-72" x="46.333984"/>
      <use xlink:href="#DejaVuSans-61" x="87.447266"/>
      <use xlink:href="#DejaVuSans-63" x="148.726562"/>
      <use xlink:href="#DejaVuSans-65" x="203.707031"/>
      <use xlink:href="#DejaVuSans-20" x="265.230469"/>
      <use xlink:href="#DejaVuSans-33" x="297.017578"/>
     </g>
    </g>
    <g id="line2d_26">
     <path d="M 568.573437 91.692813 
L 578.573437 91.692813 
L 588.573437 91.692813 
" style="fill: none; stroke: #d62728; stroke-width: 1.5; stroke-linecap: square"/>
    </g>
    <g id="text_18">
     <!-- Trace 4 -->
     <g transform="translate(596.573437 95.192813) scale(0.1 -0.1)">
      <use xlink:href="#DejaVuSans-54"/>
      <use xlink:href="#DejaVuSans-72" x="46.333984"/>
      <use xlink:href="#DejaVuSans-61" x="87.447266"/>
      <use xlink:href="#DejaVuSans-63" x="148.726562"/>
      <use xlink:href="#DejaVuSans-65" x="203.707031"/>
      <use xlink:href="#DejaVuSans-20" x="265.230469"/>
      <use xlink:href="#DejaVuSans-34" x="297.017578"/>
     </g>
    </g>
    <g id="line2d_27">
     <path d="M 568.573437 106.370938 
L 578.573437 106.370938 
L 588.573437 106.370938 
" style="fill: none; stroke: #9467bd; stroke-width: 1.5; stroke-linecap: square"/>
    </g>
    <g id="text_19">
     <!-- Trace 5 -->
     <g transform="translate(596.573437 109.870938) scale(0.1 -0.1)">
      <use xlink:href="#DejaVuSans-54"/>
      <use xlink:href="#DejaVuSans-72" x="46.333984"/>
      <use xlink:href="#DejaVuSans-61" x="87.447266"/>
      <use xlink:href="#DejaVuSans-63" x="148.726562"/>
      <use xlink:href="#DejaVuSans-65" x="203.707031"/>
      <use xlink:href="#DejaVuSans-20" x="265.230469"/>
      <use xlink:href="#DejaVuSans-35" x="297.017578"/>
     </g>
    </g>
    <g id="line2d_28">
     <path d="M 568.573437 121.049062 
L 578.573437 121.049062 
L 588.573437 121.049062 
" style="fill: none; stroke: #8c564b; stroke-width: 1.5; stroke-linecap: square"/>
    </g>
    <g id="text_20">
     <!-- Trace 6 -->
     <g transform="translate(596.573437 124.549062) scale(0.1 -0.1)">
      <use xlink:href="#DejaVuSans-54"/>
      <use xlink:href="#DejaVuSans-72" x="46.333984"/>
      <use xlink:href="#DejaVuSans-61" x="87.447266"/>
      <use xlink:href="#DejaVuSans-63" x="148.726562"/>
      <use xlink:href="#DejaVuSans-65" x="203.707031"/>
      <use xlink:href="#DejaVuSans-20" x="265.230469"/>
      <use xlink:href="#DejaVuSans-36" x="297.017578"/>
     </g>
    </g>
    <g id="line2d_29">
     <path d="M 568.573437 135.727188 
L 578.573437 135.727188 
L 588.573437 135.727188 
" style="fill: none; stroke: #e377c2; stroke-width: 1.5; stroke-linecap: square"/>
    </g>
    <g id="text_21">
     <!-- Trace 7 -->
     <g transform="translate(596.573437 139.227188) scale(0.1 -0.1)">
      <use xlink:href="#DejaVuSans-54"/>
      <use xlink:href="#DejaVuSans-72" x="46.333984"/>
      <use xlink:href="#DejaVuSans-61" x="87.447266"/>
      <use xlink:href="#DejaVuSans-63" x="148.726562"/>
      <use xlink:href="#DejaVuSans-65" x="203.707031"/>
      <use xlink:href="#DejaVuSans-20" x="265.230469"/>
      <use xlink:href="#DejaVuSans-37" x="297.017578"/>
     </g>
    </g>
    <g id="line2d_30">
     <path d="M 568.573437 150.405312 
L 578.573437 150.405312 
L 588.573437 150.405312 
" style="fill: none; stroke: #7f7f7f; stroke-width: 1.5; stroke-linecap: square"/>
    </g>
    <g id="text_22">
     <!-- Trace 8 -->
     <g transform="translate(596.573437 153.905312) scale(0.1 -0.1)">
      <use xlink:href="#DejaVuSans-54"/>
      <use xlink:href="#DejaVuSans-72" x="46.333984"/>
      <use xlink:href="#DejaVuSans-61" x="87.447266"/>
      <use xlink:href="#DejaVuSans-63" x="148.726562"/>
      <use xlink:href="#DejaVuSans-65" x="203.707031"/>
      <use xlink:href="#DejaVuSans-20" x="265.230469"/>
      <use xlink:href="#DejaVuSans-38" x="297.017578"/>
     </g>
    </g>
    <g id="line2d_31">
     <path d="M 568.573437 165.083438 
L 578.573437 165.083438 
L 588.573437 165.083438 
" style="fill: none; stroke: #bcbd22; stroke-width: 1.5; stroke-linecap: square"/>
    </g>
    <g id="text_23">
     <!-- Trace 9 -->
     <g transform="translate(596.573437 168.583438) scale(0.1 -0.1)">
      <defs>
       <path id="DejaVuSans-39" d="M 703 97 
L 703 672 
Q 941 559 1184 500 
Q 1428 441 1663 441 
Q 2288 441 2617 861 
Q 2947 1281 2994 2138 
Q 2813 1869 2534 1725 
Q 2256 1581 1919 1581 
Q 1219 1581 811 2004 
Q 403 2428 403 3163 
Q 403 3881 828 4315 
Q 1253 4750 1959 4750 
Q 2769 4750 3195 4129 
Q 3622 3509 3622 2328 
Q 3622 1225 3098 567 
Q 2575 -91 1691 -91 
Q 1453 -91 1209 -44 
Q 966 3 703 97 
z
M 1959 2075 
Q 2384 2075 2632 2365 
Q 2881 2656 2881 3163 
Q 2881 3666 2632 3958 
Q 2384 4250 1959 4250 
Q 1534 4250 1286 3958 
Q 1038 3666 1038 3163 
Q 1038 2656 1286 2365 
Q 1534 2075 1959 2075 
z
" transform="scale(0.015625)"/>
      </defs>
      <use xlink:href="#DejaVuSans-54"/>
      <use xlink:href="#DejaVuSans-72" x="46.333984"/>
      <use xlink:href="#DejaVuSans-61" x="87.447266"/>
      <use xlink:href="#DejaVuSans-63" x="148.726562"/>
      <use xlink:href="#DejaVuSans-65" x="203.707031"/>
      <use xlink:href="#DejaVuSans-20" x="265.230469"/>
      <use xlink:href="#DejaVuSans-39" x="297.017578"/>
     </g>
    </g>
    <g id="line2d_32">
     <path d="M 568.573437 179.761562 
L 578.573437 179.761562 
L 588.573437 179.761562 
" style="fill: none; stroke: #17becf; stroke-width: 1.5; stroke-linecap: square"/>
    </g>
    <g id="text_24">
     <!-- Trace 10 -->
     <g transform="translate(596.573437 183.261562) scale(0.1 -0.1)">
      <use xlink:href="#DejaVuSans-54"/>
      <use xlink:href="#DejaVuSans-72" x="46.333984"/>
      <use xlink:href="#DejaVuSans-61" x="87.447266"/>
      <use xlink:href="#DejaVuSans-63" x="148.726562"/>
      <use xlink:href="#DejaVuSans-65" x="203.707031"/>
      <use xlink:href="#DejaVuSans-20" x="265.230469"/>
      <use xlink:href="#DejaVuSans-31" x="297.017578"/>
      <use xlink:href="#DejaVuSans-30" x="360.640625"/>
     </g>
    </g>
   </g>
  </g>
 </g>
 <defs>
  <clipPath id="p4ac117d338">
   <rect x="90" y="34.56" width="558" height="221.76"/>
  </clipPath>
 </defs>
</svg>
